<svg width="93" height="32" viewBox="0 0 93 32" fill="none" xmlns="http://www.w3.org/2000/svg">
<g id="CPS Logo dark bg">
<g id="g194">
<path id="path196" d="M28.5721 27.6182H25.8085V28.6925H28.471V29.4394H25.8085V30.6932H28.6932V31.4402H24.7158V26.8721H28.5721V27.6182Z" fill="#F58113"/>
</g>
<g id="g198">
<path id="path200" d="M29.3374 26.8711H30.8754L33.6335 30.3769H33.6472V26.8711H34.6306V31.4392H33.1609L30.3363 27.871H30.3236V31.4392H29.3374V26.8711Z" fill="#F58113"/>
</g>
<g id="g202">
<path id="path204" d="M39.3084 27.6182H36.543V28.6925H39.2092V29.4394H36.543V30.6932H39.4295V31.4402H35.4521V26.8721H39.3084V27.6182Z" fill="#F58113"/>
</g>
<g id="g214">
<path id="path216" d="M40.0449 26.8711H42.9624C44.036 26.8711 44.8382 27.1942 44.8382 28.0984C44.8382 28.8949 44.2436 29.2248 43.496 29.2761V29.2872C44.6096 29.3333 44.6961 29.8 44.7517 30.6487C44.7708 31.0273 44.8245 31.2623 44.8983 31.4392H43.7264C43.6636 31.3076 43.6308 30.9837 43.618 30.7179C43.5707 29.8197 43.3549 29.6368 42.2895 29.6368H41.1367V31.4392H40.0449V26.8711ZM41.1367 28.9282H42.5517C43.1937 28.9282 43.7064 28.7958 43.7064 28.2428C43.7064 27.6941 43.1782 27.6172 42.5991 27.6172H41.1367V28.9282Z" fill="#F58113"/>
</g>
<g id="g218">
<path id="path220" d="M49.7503 28.3458C49.7175 27.7073 49.0164 27.4612 48.4764 27.4612C47.4529 27.4612 46.5013 27.9483 46.5013 29.138C46.5013 29.9841 46.9858 30.814 48.4837 30.814C48.9071 30.814 49.2777 30.7627 49.8168 30.6055V29.7329H48.2588V29.0218H50.8839V31.1567C50.1883 31.4336 49.1229 31.5601 48.4136 31.5601C46.6015 31.5601 45.3677 30.802 45.3677 29.144C45.3677 27.7757 46.3994 26.751 48.3152 26.751C49.7849 26.751 50.8839 27.2774 50.8839 28.3458H49.7503Z" fill="#F58113"/>
</g>
<g id="g222">
<path id="path224" d="M56.6155 26.8711L54.2717 29.6991V31.4392H53.179V29.6991L50.8115 26.8711H52.2402L53.7773 28.8257L55.3225 26.8711H56.6155Z" fill="#F58113"/>
</g>
<g id="g228">
<g id="g234">
<path id="path236" d="M62.941 27.8525C61.4832 27.1534 61.4431 25.6765 61.5314 24.9065C61.6343 24.0202 61.9922 23.0528 62.3628 22.2161C62.7143 21.4289 63.1313 20.6469 63.5019 19.9982C62.7953 19.6769 61.9703 19.276 61.1945 18.8333C60.3695 18.3624 59.4717 17.7753 58.8352 17.1163C58.2797 16.5429 57.3856 15.3258 58.1331 13.9533C58.6467 13.0046 59.6857 10.0424 59.8605 8.99028C60.1182 7.47071 61.6043 6.97757 62.411 6.82032C63.3407 6.63998 64.4316 6.65793 65.3941 6.73143C66.2992 6.79981 67.2198 6.93142 67.992 7.06304C68.0985 6.33402 68.2515 5.46996 68.4609 4.64009C68.684 3.7598 69 2.77951 69.4726 2.00691C69.8823 1.33515 70.8384 0.160852 72.4583 0.40101C73.5811 0.566813 76.9019 0.578778 78.021 0.412121C79.6428 0.171108 80.5971 1.3454 81.0114 2.01887C81.4812 2.79062 81.7972 3.77006 82.0203 4.65206C82.2306 5.48193 82.3818 6.34257 82.4883 7.07415C83.2596 6.94339 84.1811 6.81262 85.0871 6.7434C86.0505 6.66904 87.1396 6.65109 88.0683 6.83057C88.8769 6.99125 90.3612 7.48096 90.618 9.00225C90.7964 10.0552 91.8108 13.0234 92.3253 13.9721C93.0701 15.3446 92.1778 16.56 91.6223 17.1351C90.9849 17.7932 90.0926 18.3804 89.2658 18.8513C88.4918 19.294 87.6622 19.6965 86.9565 20.017C87.3271 20.6649 87.7451 21.4477 88.0938 22.2349C88.4672 23.0707 88.8223 24.039 88.9261 24.9227C89.0153 25.6945 88.9762 27.1705 87.5174 27.8696C86.5031 28.3533 83.8096 30.178 83.0083 30.931C81.8464 32.0189 80.3394 31.5984 79.5854 31.2797C78.7222 30.9147 77.8489 30.2968 77.1168 29.7054C76.4248 29.1482 75.7628 28.5371 75.2219 28.0063C74.6811 28.5371 74.02 29.1482 73.3261 29.7054C72.5949 30.2968 71.7235 30.9147 70.8585 31.2797C70.1054 31.5984 68.5957 32.0189 67.4383 30.931C66.6361 30.1763 63.9535 28.3354 62.941 27.8525Z" fill="#173E7D"/>
</g>
<g id="g238">
<path id="path240" d="M81.1882 32C80.4689 31.9982 79.8387 31.7863 79.4253 31.6128C78.5002 31.2231 77.6069 30.5864 76.8602 29.9838C76.272 29.5095 75.7084 29.0018 75.2203 28.5343C74.7322 29.0018 74.1695 29.5095 73.5822 29.9838C72.8337 30.5864 71.9422 31.2231 71.0171 31.6128C70.5991 31.7897 69.969 31.9982 69.2515 32C68.5704 32.0034 67.7991 31.7948 67.1608 31.1906C66.4241 30.4898 63.696 28.6181 62.7627 28.1805L62.9412 27.8515L63.1178 27.5233C64.2069 28.0515 66.8457 29.8616 67.7135 30.6693C68.1997 31.1231 68.7233 31.2598 69.2515 31.2632C69.8024 31.265 70.3423 31.094 70.6956 30.9436C71.5024 30.6052 72.3538 30.0052 73.0713 29.4257C73.7506 28.8796 74.4026 28.2754 74.938 27.7523L75.2194 27.4737L75.5044 27.7523C76.038 28.2754 76.6918 28.8796 77.3711 29.4257C78.0877 30.0052 78.9418 30.6052 79.744 30.9436C80.0992 31.0923 80.6373 31.265 81.1882 31.2632C81.7154 31.2598 82.2408 31.1231 82.7298 30.6693C83.6003 29.8616 86.2501 28.0685 87.3364 27.5421C88.3463 27.0549 88.5511 26.1473 88.5593 25.402C88.5593 25.2379 88.5493 25.0892 88.5366 24.9619C88.44 24.1397 88.0995 23.1936 87.7307 22.3748C87.3892 21.6057 86.9758 20.8305 86.6098 20.1895L86.4186 19.8519L86.7855 19.6852C87.4839 19.369 88.3016 18.9699 89.062 18.5366C89.8706 18.0768 90.7383 17.5007 91.3311 16.8897C91.7081 16.4974 92.2226 15.8017 92.2162 15.0462C92.2162 14.7599 92.1506 14.4607 91.9749 14.1394C91.4258 13.1121 90.4269 10.1926 90.2302 9.06019C90.0235 7.77906 88.7569 7.34832 87.9866 7.1885C87.4912 7.09277 86.9349 7.05431 86.3712 7.05602C85.9478 7.05602 85.5235 7.07824 85.1173 7.10816C84.2295 7.17824 83.3199 7.30644 82.5577 7.43549L82.1534 7.50386L82.0997 7.1244C81.9932 6.4005 81.8438 5.54927 81.6371 4.73649C81.4204 3.87158 81.1072 2.91693 80.6701 2.20244C80.315 1.62042 79.5719 0.735002 78.4446 0.746113C78.3317 0.746113 78.2106 0.755514 78.0804 0.774317C77.4904 0.859782 76.4377 0.896532 75.3532 0.896532C74.1913 0.896532 73.0267 0.855509 72.392 0.764061C72.2664 0.742694 72.148 0.735002 72.0333 0.735002C70.9033 0.723892 70.1602 1.61188 69.8106 2.18877C69.3707 2.90668 69.0593 3.86133 68.8417 4.72538C68.6368 5.53816 68.4829 6.39196 68.3791 7.11158L68.3227 7.49275L67.9202 7.42438C67.159 7.29362 66.2475 7.16542 65.3578 7.0979C64.9563 7.06542 64.5319 7.04491 64.1103 7.04491C63.5458 7.04491 62.9849 7.08337 62.4895 7.17909C61.7246 7.33379 60.4507 7.76966 60.2468 9.04737C60.051 10.1815 59.0284 13.0959 58.4812 14.1232C58.3027 14.4419 58.238 14.7394 58.238 15.0291C58.2317 15.7863 58.7471 16.4829 59.1249 16.8683C59.7141 17.4828 60.5873 18.0588 61.3977 18.5195C62.1572 18.9511 62.9712 19.3494 63.6724 19.6673L64.0393 19.8322L63.8454 20.1715C63.4802 20.8142 63.0677 21.586 62.7235 22.3569C62.3584 23.1782 62.0142 24.1209 61.9195 24.9533C61.9031 25.0713 61.8931 25.22 61.8931 25.3832C61.8995 26.1293 62.1071 27.0387 63.1178 27.5233L62.9412 27.8515L62.7609 28.1788C61.3841 27.5182 61.1009 26.2387 61.1091 25.3832C61.1091 25.1901 61.1209 25.0149 61.1419 24.8662C61.2521 23.9183 61.6236 22.9269 62.0005 22.0723C62.3001 21.404 62.6425 20.7425 62.9658 20.1596C62.3402 19.869 61.65 19.5246 60.9898 19.1477C60.1493 18.6665 59.2251 18.0674 58.5431 17.3632C58.1115 16.9127 57.4595 16.0931 57.4531 15.0291C57.4531 14.6334 57.5487 14.2061 57.7818 13.7873C58.2617 12.9121 59.318 9.90031 59.4728 8.93113C59.7824 7.17226 61.4824 6.62015 62.3293 6.45862C62.9002 6.34752 63.5094 6.3082 64.1103 6.3082C64.5593 6.3082 65.0036 6.33042 65.4234 6.36375C66.1956 6.42187 66.9714 6.52443 67.6598 6.63468C67.7627 5.986 67.9011 5.26125 68.0786 4.55445C68.3081 3.65792 68.6268 2.65028 69.1294 1.82469C69.5265 1.176 70.4325 0.0111105 72.0333 0C72.1872 0 72.3502 0.0111105 72.5186 0.0376048C73.0477 0.116233 74.2187 0.16153 75.3532 0.16153C76.4113 0.16153 77.4658 0.119652 77.9584 0.0487153C78.125 0.0230757 78.2853 0.0111105 78.4446 0.0111105C80.0436 0.0213664 80.9487 1.18711 81.3494 1.8358C81.852 2.66139 82.1707 3.66732 82.4011 4.56727C82.5805 5.27322 82.7143 5.99625 82.8191 6.64664C83.5075 6.53725 84.2833 6.43469 85.0527 6.37657C85.4725 6.34239 85.9196 6.31931 86.3712 6.31931C86.9695 6.32102 87.5768 6.35692 88.1487 6.46973C88.9946 6.63297 90.6946 7.18166 91.0042 8.94395C91.1627 9.91741 92.1934 12.936 92.6733 13.8052C92.9037 14.2266 93.0002 14.6513 93.0002 15.0462C92.9947 16.1085 92.341 16.9281 91.9112 17.382C91.2282 18.0836 90.3122 18.6836 89.4681 19.1639C88.8079 19.5408 88.115 19.8869 87.4894 20.1792C87.8136 20.7604 88.1578 21.4228 88.4555 22.092C88.8343 22.9458 89.2031 23.938 89.3151 24.8841C89.3315 25.0345 89.3433 25.2106 89.3433 25.402C89.3506 26.2558 89.0683 27.5344 87.6925 28.1967C86.7546 28.6377 84.0155 30.4932 83.2825 31.1906C82.646 31.7914 81.8821 32 81.2064 32H81.1882Z" fill="white"/>
</g>
</g>
<g id="g242">
<g id="g244">
<g id="g250">
<g id="g252">
<path id="path266" d="M69.4309 8.92393C68.5631 8.72907 61.8194 7.28898 61.4916 9.23503C61.2985 10.3811 65.2686 13.1784 68.9246 14.4997C65.1375 13.5527 60.163 13.6228 59.603 14.657C58.6496 16.4133 65.0064 18.9678 65.8305 19.2892C65.3661 20.0054 61.8194 25.5777 63.6924 26.4734C64.7942 26.9982 68.8545 24.318 71.3258 21.4626C69.1941 24.5547 67.729 29.0151 68.6032 29.8348C70.0874 31.2278 74.6421 26.3418 75.2212 25.7076C75.8031 26.3418 80.356 31.2278 81.8402 29.8348C82.7144 29.0169 81.2529 24.5624 79.124 21.4737C81.5944 24.3299 85.6637 27.017 86.7655 26.4905C88.6349 25.5957 85.091 20.0216 84.6275 19.3071C85.4516 18.9849 91.8065 16.4304 90.8567 14.674C90.2958 13.6433 85.3295 13.5698 81.5425 14.5168C85.2021 13.1938 89.1822 10.3922 88.9864 9.24357C88.6604 7.29924 81.9167 8.74104 81.0507 8.93504C80.977 8.09919 80.3532 1.63544 78.2799 1.94312C77.0579 2.1226 75.4534 6.53432 75.2404 10.2051C75.0309 6.53261 73.4237 2.11405 72.1999 1.93201C72.1517 1.92517 72.1043 1.9209 72.0579 1.9209C70.1001 1.92175 69.5019 8.10688 69.4309 8.92393Z" fill="url(#paint0_radial_18445_18309)"/>
</g>
</g>
</g>
</g>
<g id="g276">
<path id="path278" d="M73.6943 14.3984C72.7164 15.0642 71.1347 15.042 69.3481 14.6078C71.0564 15.2437 72.3458 16.0975 72.7182 17.1735C73.0924 18.2538 72.5807 19.6588 71.59 21.1211C72.761 19.7896 74.024 18.9042 75.2277 18.9042C76.4388 18.9042 77.7054 19.7939 78.8773 21.1297C77.893 19.6733 77.3849 18.2726 77.7591 17.1966C78.1316 16.1154 79.4246 15.2616 81.1419 14.6275C79.3618 15.0548 77.7837 15.077 76.8085 14.4104C75.8324 13.7438 75.3643 12.325 75.2523 10.5986C75.1358 12.3199 74.6686 13.7326 73.6943 14.3984Z" fill="white"/>
</g>
<path id="path192" d="M55.2147 7.42435C53.6421 6.92523 50.4651 6.61328 47.9291 6.61328C42.972 6.61328 37.982 7.95167 37.9829 12.4078C37.9838 15.9623 42.7634 17.0213 47.3054 17.5973C51.7135 18.1545 52.6669 18.6605 52.6669 19.4647C52.6669 20.7373 51.8628 21.6304 47.5695 21.6296C43.929 21.6296 39.8232 20.151 38.3635 19.4339V23.2448C40.8439 24.2824 44.6156 25.1302 47.1943 25.1302C52.8426 25.1302 56.7872 23.8687 56.7872 19.081C56.7872 15.5923 52.2107 14.5069 47.3801 14.0043C43.2843 13.5779 42.2171 12.9617 42.2171 12.2224C42.2171 11.0669 43.1231 10.1635 47.3345 10.1644C50.4196 10.1644 53.6767 10.7096 55.2119 11.1464L55.2147 7.42435Z" fill="white"/>
<g id="g280">
<path id="path282" d="M16.7847 7.33521C15.2886 6.9754 13.3245 6.64551 10.8486 6.64551C7.63974 6.64551 3.63684 7.2959 2.25003 8.59668C0.86869 9.8949 0.00546346 12.8964 0 15.8997C0.00546346 18.9021 0.86869 21.9062 2.25003 23.2027C3.63684 24.5052 7.63974 25.1539 10.8486 25.1539C13.3245 25.1539 15.2886 24.8249 16.7847 24.465V20.7106C15.3204 21.1327 12.7153 21.6327 10.8486 21.6327C8.59493 21.6327 5.72661 21.3293 5.07646 20.7165C4.42813 20.108 4.10306 18.0056 4.09942 15.8997C4.10306 13.7955 4.42813 11.6905 5.07646 11.082C5.72661 10.4709 8.59493 10.1667 10.8486 10.1667C12.7153 10.1667 15.3204 10.6658 16.7847 11.0897V7.33521Z" fill="white"/>
</g>
<g id="g284">
<path id="path286" d="M34.9806 8.59571C33.5947 7.29492 30.109 6.64453 26.8 6.64453C23.5182 6.64453 21.7035 6.98297 18.6895 7.79319V31.4432H22.7124V24.7051C24.0673 25.0025 25.2538 25.1538 26.83 25.1538C30.0407 25.1538 33.5947 24.5042 34.9806 23.2017C36.3647 21.9052 37.227 18.902 37.2315 15.8987C37.227 12.8963 36.3647 9.89393 34.9806 8.59571ZM32.1551 20.7164C31.5058 21.3283 29.0828 21.6317 26.83 21.6317C25.5989 21.6317 24.0464 21.4147 22.7124 21.1454V10.6076C24.0464 10.3383 25.5989 10.1657 26.83 10.1657C29.0828 10.1657 31.5058 10.47 32.1551 11.081C32.8034 11.6896 33.1294 13.7954 33.1321 15.8987C33.1294 18.0054 32.8034 20.1079 32.1551 20.7164Z" fill="white"/>
</g>
<g id="g288">
<path id="path290" d="M85.0059 2.4046C85.0077 1.16877 86.0767 0.167969 87.3961 0.167969C88.711 0.169678 89.7782 1.17219 89.7773 2.40973C89.7773 3.64727 88.7055 4.64807 87.3916 4.64636C86.0731 4.6455 85.0049 3.64385 85.0059 2.4046ZM85.4757 2.40631C85.4766 3.40027 86.3317 4.20194 87.3916 4.2045C88.4478 4.2045 89.3056 3.40369 89.3083 2.40973C89.3083 1.41662 88.4515 0.613244 87.3961 0.60897C86.3362 0.61068 85.4784 1.4132 85.4757 2.40631Z" fill="#F58113"/>
</g>
<g id="g292">
<path id="path294" d="M86.6224 1.30116C86.7863 1.27466 87.0367 1.25586 87.2926 1.25586C87.644 1.25586 87.8835 1.3097 88.0447 1.43876C88.1785 1.54388 88.255 1.7037 88.2541 1.896C88.2541 2.19341 88.0401 2.39255 87.8125 2.47032V2.48058C87.9855 2.54126 88.0911 2.70108 88.1521 2.92243C88.2268 3.20618 88.2915 3.47112 88.3424 3.55915H87.8835C87.8471 3.48992 87.7906 3.30617 87.7214 3.01987C87.6531 2.72074 87.5384 2.62672 87.2844 2.61989H87.0622L87.0603 3.5583H86.6196L86.6224 1.30116ZM87.0622 2.31392H87.3244C87.6258 2.31392 87.8125 2.16521 87.8125 1.93787C87.8134 1.68575 87.6267 1.57037 87.3363 1.57037C87.196 1.57037 87.105 1.58063 87.0631 1.59088L87.0622 2.31392Z" fill="#F58113"/>
</g>
</g>
<defs>
<radialGradient id="paint0_radial_18445_18309" cx="0" cy="0" r="1" gradientUnits="userSpaceOnUse" gradientTransform="translate(75.2338 16.0048) scale(15.3669 14.4231)">
<stop stop-color="#FCD006"/>
<stop offset="0.0553" stop-color="#FCD006"/>
<stop offset="0.5393" stop-color="#EA6921"/>
<stop offset="0.7265" stop-color="#EA6921"/>
<stop offset="1" stop-color="#E71C35"/>
</radialGradient>
</defs>
</svg>
