<svg width="172" height="40" viewBox="0 0 172 40" fill="none" xmlns="http://www.w3.org/2000/svg">
<path d="M38.1038 1.16345L22.978 26.7349L7.8522 1.16345H0L22.978 40.0002L45.956 1.16345H38.1038Z" fill="#FFC836"/>
<path d="M117.535 36.7347C123.548 33.3673 127.619 26.9592 127.619 19.6122C127.619 8.79592 118.795 0 107.926 0C97.0779 0 88.2339 8.79592 88.2339 19.6122C88.2339 26.9592 92.3046 33.3673 98.3178 36.7347C101.169 38.3265 104.434 39.2449 107.926 39.2449C111.419 39.2449 114.683 38.3265 117.535 36.7347ZM107.926 6.20408C115.138 6.20408 121.006 12.4286 121.006 19.6122C121.006 26.7959 115.138 33.0204 107.926 33.0204C100.715 33.0204 94.8463 26.7959 94.8463 19.6122C94.8256 12.4286 100.694 6.20408 107.926 6.20408Z" fill="#FFC836"/>
<path d="M165.185 1.16345V25.5716L138.57 1.16345H135.264V38.1635H142.021V13.5308L168.863 38.1635H171.942V1.16345H165.185Z" fill="#FFC836"/>
<path d="M60.2346 31.8165V22.2043H76.0629V16.1839H60.2346V7.48998H80.8569V1.16345H53.4775V37.7145V38.1635H80.9396V37.7145V31.8165H60.2346Z" fill="#FFC836"/>
</svg>
