<?xml version="1.0" encoding="utf-8"?>
<!-- Generator: Adobe Illustrator 27.0.1, SVG Export Plug-In . SVG Version: 6.00 Build 0)  -->
<svg version="1.1" id="Logo" xmlns="http://www.w3.org/2000/svg" xmlns:xlink="http://www.w3.org/1999/xlink" x="0px" y="0px"
	 viewBox="0 0 1520.6 329.3" style="enable-background:new 0 0 1520.6 329.3;" xml:space="preserve">
<style type="text/css">
	.st0{fill:#100050;}
	.st1{fill:#3E24D3;}
	.st2{fill:url(#SVGID_1_);}
	.st3{fill:url(#SVGID_00000070808049175680871510000002950050631172235415_);}
	.st4{fill:url(#SVGID_00000179645654443556360980000004306907004874893964_);}
	.st5{fill:url(#SVGID_00000070087564468976715710000014157897588056311229_);}
	.st6{fill:url(#SVGID_00000001640446441429710960000006572118618614514862_);}
	.st7{opacity:0.5;fill:#100050;enable-background:new    ;}
</style>
<g id="LSG_Digital_3_">
	<g>
		<g>
			<g>
				<g>
					<path class="st0" d="M289.7,263v-6.8c0-7.1,1.9-12.7,5.6-16.7s8.9-6,15.5-6s11.9,2,15.9,6c2.8,2.8,4.2,7.1,4.2,12.7h-10
						c0-6.1-3.3-9.2-9.8-9.2c-1.9,0-3.6,0.4-5,1.1s-2.4,1.6-3,2.6c-0.7,1-1.2,2.4-1.5,4.3c-0.4,1.9-0.6,3.5-0.6,4.8
						c-0.1,1.3-0.1,3-0.1,5.2s0,3.6,0,4.3c0,0.7,0.1,1.9,0.2,3.6s0.3,2.9,0.6,3.6c0.3,0.7,0.7,1.6,1.2,2.8c0.5,1.1,1.2,1.9,2,2.4
						c2.1,1.3,4.5,2,7.2,2c4.5,0,7.6-1.9,9.5-5.7v-3.7H315v-8.9h15.8v16.5c-1.6,3.7-4.1,6.6-7.5,8.5s-7.3,2.8-11.7,2.8
						c-7.7,0-13.3-2.2-16.8-6.5C291.4,278.4,289.7,271.8,289.7,263"/>
					<path class="st0" d="M386.2,288.7h-12.4l-10.7-20.3h-7.7v20.3h-10.7v-43c0-4.1,0.9-7.1,2.8-9s5.1-2.8,9.5-2.8h9.1
						c5.4,0,9.8,1.7,13,5s4.8,7.5,4.8,12.6c0,3.7-1,6.9-2.9,9.6s-4.3,4.6-7.1,5.6L386.2,288.7z M371.1,257.2
						c1.5-1.6,2.2-3.5,2.2-5.8s-0.7-4.2-2.1-5.7c-1.4-1.4-3.3-2.2-5.7-2.2h-5.3c-3.2,0-4.8,1.6-4.8,4.8v11.2h10.1
						C367.8,259.5,369.7,258.7,371.1,257.2"/>
					<path class="st0" d="M437.9,258.8v4.2c0,9.2-1.7,15.8-5.2,20s-9,6.2-16.7,6.2c-7.6,0-13.2-2.1-16.6-6.2
						c-3.4-4.2-5.1-10.9-5.1-20.2v-4c0-8.5,1.7-14.8,5.2-19s8.9-6.2,16.5-6.2c7.5,0,13,2.1,16.6,6.3
						C436.2,244,437.9,250.3,437.9,258.8 M427.2,262.7v-2.8c0-4.9-0.6-8.8-1.8-11.8c-1.4-3.4-4.5-5.1-9.2-5.1
						c-4.8,0-7.9,1.7-9.3,5.1c-1.2,2.8-1.8,6.7-1.8,11.8v2.8c0,6.6,0.9,11.1,2.8,13.4c0.7,1,1.8,1.8,3.2,2.5s3.1,1,5.1,1
						s3.7-0.3,5-1c1.4-0.7,2.5-1.5,3.2-2.5c0.8-1,1.4-2.3,1.8-3.8C426.9,269.8,427.2,266.6,427.2,262.7"/>
					<path class="st0" d="M490.2,234v36c0,5.9-2,10.6-6,14.1c-4,3.4-9,5.2-14.9,5.2s-10.9-1.7-14.9-5.2c-4-3.4-6-8.1-6-14.1v-36
						h10.7v35.6c0,3.4,0.9,5.9,2.8,7.6c1.9,1.7,4.3,2.5,7.4,2.5c3.1,0,5.6-0.8,7.5-2.5s2.8-4.2,2.8-7.6V234H490.2z"/>
					<path class="st0" d="M538.7,238.7c3.2,3.2,4.7,7.8,4.7,13.9s-1.6,10.7-4.7,13.9c-3.2,3.2-7.6,4.7-13.3,4.7h-10.5v17.5h-10.7
						V234h21.2C531.1,234,535.5,235.5,538.7,238.7 M532.7,252.6c0-6.1-2.6-9.1-7.9-9.1h-10v18.1h10c2.6,0,4.5-0.7,5.9-2.1
						C532,258.1,532.7,255.8,532.7,252.6"/>
				</g>
				<g>
					<path class="st0" d="M357.4,177.1h-32.7c-12.3,0-21.2-2.4-26.7-7.2c-5.5-4.8-8.2-12.6-8.2-23.4V67.3h21.4v79.2
						c0,4.3,1,7.3,2.9,8.9c2,1.6,5.5,2.5,10.6,2.5h32.7L357.4,177.1L357.4,177.1z"/>
					<path class="st0" d="M446.8,177.1H408c-12.3,0-21-2.1-26-6.4s-7.5-11.8-7.5-22.6V67.3h72.3v19.1h-50.9v25.7h35.6l-1.5,19.1
						h-34.1v15.3c0,4.3,1,7.3,2.9,8.9c2,1.6,5.5,2.5,10.6,2.5h37.3v19.2H446.8z"/>
					<path class="st0" d="M551,177.1h-22.4l-6.2-19h-36.8l-6,19h-22.4l35.1-100.5c1.5-3.5,3.3-5.9,5.2-7.2s4.2-2,7-2s5,0.6,6.7,1.8
						s3.2,3.7,4.5,7.4L551,177.1z M517.5,140.1l-12.9-43.5L491,140.1H517.5z"/>
					<path class="st0" d="M651.6,67.3V166c0,3.4-1,6.3-3.1,8.7c-2.1,2.4-4.5,3.6-7.2,3.6c-7.1,0-12.9-4.1-17.4-12.3L586,106.6V177
						h-21.4V67.3h20.7l45,71.8V67.3H651.6z"/>
					<path class="st1" d="M763.3,144.7c0,10.4-3.8,18.5-11.4,24.4c-7.6,5.9-17.3,8.9-29.1,8.9c-9.4,0-18.4-2.6-27.1-7.7
						c-4.3-2.7-7.9-6.4-10.6-11.3c-2.8-4.9-4.2-10.5-4.2-16.7l19.4-0.9c0,5.5,2.4,9.9,7.1,12.9c4.7,3.1,10,4.6,15.7,4.6
						c12.8,0,19.3-4.5,19.3-13.6c0-7.4-4.4-11.8-13.1-13.1l-17.9-1.8c-8.9-1.3-16-4.5-21.3-9.6c-5.2-5-7.9-12.3-7.9-21.7
						c0-9.5,3.8-17.3,11.3-23.4c7.5-6.2,17-9.2,28.4-9.2c11.5,0,20.7,2.9,27.7,8.7s10.5,13.3,10.5,22.4L741,98.5
						c-1.7-8.9-7.8-13.4-18-13.4c-6.3,0-11.2,1.3-14.7,4s-5.3,5.8-5.3,9.5c0,3.6,1.3,6.5,3.9,8.6c2.6,2.1,5.8,3.4,9.6,3.9l17.6,1.9
						C753.4,115.6,763.3,126.2,763.3,144.7"/>
					<path class="st1" d="M860.8,117.1v8.3c0,18.4-3.5,31.8-10.4,40.1S832.3,178,817,178s-26.4-4.2-33.2-12.5s-10.3-21.8-10.3-40.5
						v-8c0-17.1,3.5-29.8,10.4-38.1s17.9-12.5,33-12.5S843,70.6,850.1,79C857.3,87.4,860.8,100.1,860.8,117.1 M839.4,125v-5.7
						c0-9.9-1.2-17.7-3.7-23.6c-2.9-6.8-9-10.2-18.5-10.2c-9.6,0-15.8,3.4-18.7,10.2c-2.4,5.5-3.5,13.4-3.5,23.6v5.7
						c0,13.3,1.9,22.2,5.5,26.8c1.4,2,3.6,3.6,6.4,5c2.8,1.4,6.2,2.1,10.2,2.1s7.3-0.7,10.1-2s4.9-3,6.5-4.9c1.5-2,2.7-4.5,3.5-7.7
						C838.7,139.2,839.4,132.8,839.4,125"/>
					<path class="st1" d="M947.3,177.1h-32.7c-12.3,0-21.2-2.4-26.7-7.2c-5.5-4.8-8.2-12.6-8.2-23.4V67.3h21.4v79.2
						c0,4.3,1,7.3,2.9,8.9c2,1.6,5.5,2.5,10.6,2.5h32.7V177.1z"/>
					<path class="st1" d="M1045,67.3v72.1c0,11.9-4,21.3-12.1,28.2c-8.1,6.9-18,10.3-29.8,10.3s-21.8-3.4-29.8-10.3
						c-8.1-6.9-12.1-16.3-12.1-28.2V67.3h21.4v71.4c0,6.8,1.9,11.8,5.6,15.2c3.7,3.3,8.7,5,14.9,5c6.2,0,11.1-1.7,15-5
						c3.8-3.3,5.7-8.4,5.7-15.2V67.3L1045,67.3L1045,67.3z"/>
					<polygon class="st1" points="1138.8,86.4 1109.3,86.4 1109.3,177.1 1087.9,177.1 1087.9,86.4 1058.6,86.4 1058.6,67.3 
						1138.8,67.3 					"/>
					<rect x="1155.4" y="67.3" class="st1" width="21.4" height="109.8"/>
					<path class="st1" d="M1282.9,117.1v8.3c0,18.4-3.5,31.8-10.4,40.1s-18.1,12.5-33.4,12.5s-26.4-4.2-33.2-12.5
						c-6.8-8.3-10.3-21.8-10.3-40.5v-8c0-17.1,3.5-29.8,10.4-38.1s17.9-12.5,33-12.5s26.1,4.2,33.2,12.6
						C1279.3,87.4,1282.9,100.1,1282.9,117.1 M1261.5,125v-5.7c0-9.9-1.2-17.7-3.7-23.6c-2.9-6.8-9-10.2-18.5-10.2
						c-9.6,0-15.8,3.4-18.7,10.2c-2.4,5.5-3.5,13.4-3.5,23.6v5.7c0,13.3,1.9,22.2,5.5,26.8c1.4,2,3.6,3.6,6.4,5s6.2,2.1,10.2,2.1
						s7.3-0.7,10.1-2c2.8-1.3,4.9-3,6.5-4.9c1.5-2,2.7-4.5,3.5-7.7C1260.7,139.2,1261.5,132.8,1261.5,125"/>
					<path class="st1" d="M1387.2,67.3V166c0,3.4-1,6.3-3.1,8.7c-2.1,2.4-4.5,3.6-7.2,3.6c-7.1,0-12.9-4.1-17.4-12.3l-37.9-59.3
						v70.4h-21.4V67.3h20.7l45,71.8V67.3H1387.2z"/>
					<path class="st1" d="M1483.4,144.7c0,10.4-3.8,18.5-11.4,24.4s-17.3,8.9-29.1,8.9c-9.4,0-18.4-2.6-27.1-7.7
						c-4.3-2.7-7.9-6.4-10.6-11.3c-2.8-4.9-4.2-10.5-4.2-16.7l19.4-0.9c0,5.5,2.4,9.9,7.1,12.9c4.7,3.1,10,4.6,15.7,4.6
						c12.8,0,19.3-4.5,19.3-13.6c0-7.4-4.4-11.8-13.1-13.1l-17.9-1.8c-8.9-1.3-16-4.5-21.3-9.6c-5.2-5-7.9-12.3-7.9-21.7
						c0-9.5,3.7-17.3,11.3-23.4c7.5-6.2,17-9.2,28.4-9.2c11.5,0,20.7,2.9,27.7,8.7s10.5,13.3,10.5,22.4l-19.1,0.9
						c-1.7-8.9-7.8-13.4-18-13.4c-6.3,0-11.2,1.3-14.7,4s-5.3,5.8-5.3,9.5c0,3.6,1.3,6.5,3.9,8.6s5.8,3.4,9.6,3.9l17.6,1.9
						C1473.6,115.6,1483.4,126.2,1483.4,144.7"/>
				</g>
			</g>
			
				<linearGradient id="SVGID_1_" gradientUnits="userSpaceOnUse" x1="35.7929" y1="310.0956" x2="224.3325" y2="310.0956" gradientTransform="matrix(1 0 0 1 0 -214)">
				<stop  offset="0" style="stop-color:#100050"/>
				<stop  offset="1" style="stop-color:#5E5BFF"/>
			</linearGradient>
			<path class="st2" d="M220.9,143.4c0,0-1.8,2.3-6.2,6.8c-4.4,4.4-7.2,3-11.5,0S136.5,104,136.5,104c-4.3-2.7-6.8-3.2-10.6-1.3
				c-0.7,0.3-1.4,0.8-2.2,1.3c0,0-62.4,43.2-66.7,46.2s-7,4.4-11.5,0c-4.4-4.4-6.2-6.8-6.2-6.8c-4.3-4.7-4.7-11.6-0.9-15.4
				l85.1-86.4c1.7-1.7,4-2.5,6.4-2.4c0.1,0,0.2,0,0.2,0h0.1c0,0,0,0,0.1,0c2.4-0.1,4.7,0.7,6.4,2.4l24.8,25.1l60.3,61.3
				C225.5,131.7,225.1,138.7,220.9,143.4z"/>
			<g>
				<g>
					
						<linearGradient id="SVGID_00000154421882405539560130000012153645681466424449_" gradientUnits="userSpaceOnUse" x1="157.1" y1="400.26" x2="207.8295" y2="400.26" gradientTransform="matrix(1 0 0 1 0 -214)">
						<stop  offset="0" style="stop-color:#9527FF"/>
						<stop  offset="0.3662" style="stop-color:#9527FF"/>
						<stop  offset="0.5008" style="stop-color:#7E29D6"/>
						<stop  offset="0.6509" style="stop-color:#682BAF"/>
						<stop  offset="0.7892" style="stop-color:#582C93"/>
						<stop  offset="0.9101" style="stop-color:#4E2D82"/>
						<stop  offset="1" style="stop-color:#4B2D7C"/>
					</linearGradient>
					
						<path id="SVGID_00000111896816196267565680000009724218120614563984_" style="fill:url(#SVGID_00000154421882405539560130000012153645681466424449_);" d="
						M157.1,186c12.4,5.2,26.9,11.2,35.4,14.1c3.8,0.9,6.5-1.2,7.2-2c3.7-3.7,5.2-5.7,5.2-5.7c3.6-3.9,3.9-9.6,0.8-12.8l-7.6-5.2
						c-4.3-1.5-8.5-2.2-12.6-2.2C175.4,172.2,166,176.7,157.1,186"/>
				</g>
			</g>
			<g>
				<g>
					
						<linearGradient id="SVGID_00000168100575212614871810000006150789553535221410_" gradientUnits="userSpaceOnUse" x1="126.9236" y1="382.6501" x2="198.1236" y2="382.6501" gradientTransform="matrix(1 0 0 1 0 -214)">
						<stop  offset="0" style="stop-color:#00FFA2"/>
						<stop  offset="0.2551" style="stop-color:#00FFA2"/>
						<stop  offset="0.5596" style="stop-color:#00E0A6"/>
						<stop  offset="0.8199" style="stop-color:#00CDA8"/>
						<stop  offset="1" style="stop-color:#00C6A9"/>
					</linearGradient>
					
						<path id="SVGID_00000134966984055465589190000009888889187141522354_" style="fill:url(#SVGID_00000168100575212614871810000006150789553535221410_);" d="
						M157.1,151.6c-0.3,0-0.6,0.1-0.9,0.1c-0.5,0.1-0.9,0.1-1.4,0.2c-0.2,0-0.3,0-0.4,0.1c-0.3,0-0.5,0.1-0.8,0.2
						c-0.1,0-0.3,0.1-0.4,0.1c-0.2,0-0.4,0.1-0.6,0.1c-0.2,0.1-0.4,0.1-0.6,0.2c-0.3,0.1-0.5,0.2-0.8,0.2c0,0,0,0-0.1,0
						c-0.2,0.1-0.5,0.2-0.7,0.2c-0.2,0.1-0.4,0.1-0.6,0.2s-0.4,0.2-0.6,0.2l0,0c-0.3,0.1-0.5,0.2-0.8,0.3c-0.3,0.1-0.5,0.2-0.8,0.4
						c-0.3,0.1-0.5,0.2-0.8,0.4c-0.3,0.1-0.5,0.3-0.8,0.4s-0.5,0.3-0.8,0.4c-0.2,0.1-0.5,0.3-0.7,0.4c-0.2,0.2-0.5,0.3-0.7,0.5
						s-0.5,0.3-0.7,0.5s-0.5,0.3-0.7,0.5c-0.2,0.1-0.4,0.3-0.6,0.4c-1.6,1.2-3.1,2.5-4.5,3.9c-0.1,0.1-0.2,0.2-0.3,0.3
						c-0.3,0.3-0.5,0.6-0.8,0.9c-0.2,0.2-0.4,0.4-0.5,0.6c-0.2,0.2-0.3,0.4-0.5,0.6s-0.3,0.4-0.5,0.6s-0.3,0.4-0.5,0.6
						s-0.3,0.4-0.5,0.6c-0.6,0.8-1.2,1.5-1.7,2.3c-0.1,0.2-0.3,0.4-0.4,0.6c-0.9,1.3-1.7,2.5-2.3,3.5c-0.2,0.3-0.4,0.6-0.5,0.9
						c-0.4,0.6-0.7,1.2-0.9,1.6c-0.1,0.1-0.1,0.3-0.2,0.4c-0.4,0.7-0.6,1.2-0.7,1.3c1.1-0.3,2.1-0.5,3.2-0.5c2,0,3.7,0.7,6.7,1.6
						c4.1,1.6,11.7,4.9,20.3,8.5c12.4-13,26-16.7,41-11.6l-31.6-21.8l0,0c-0.6-0.2-1.2-0.3-1.8-0.4c-0.1,0-0.3-0.1-0.4-0.1
						c-0.5-0.1-1-0.2-1.6-0.3c-0.4-0.1-0.8-0.1-1.2-0.1c-0.3,0-0.5-0.1-0.8-0.1c-0.6,0-1.2-0.1-1.8-0.1
						C158.3,151.6,157.7,151.6,157.1,151.6"/>
				</g>
			</g>
			<g>
				<g>
					
						<linearGradient id="SVGID_00000076562229119054259200000014030864266061152948_" gradientUnits="userSpaceOnUse" x1="52.3608" y1="388.2999" x2="99.8892" y2="388.2999" gradientTransform="matrix(1 0 0 1 0 -214)">
						<stop  offset="0" style="stop-color:#FF6D7D"/>
						<stop  offset="0.1362" style="stop-color:#FF6779"/>
						<stop  offset="0.32" style="stop-color:#FF566E"/>
						<stop  offset="0.5301" style="stop-color:#FF3A5D"/>
						<stop  offset="0.6338" style="stop-color:#FF2952"/>
						<stop  offset="1" style="stop-color:#FF2952"/>
					</linearGradient>
					
						<path id="SVGID_00000096045236696745504150000007696861135746838407_" style="fill:url(#SVGID_00000076562229119054259200000014030864266061152948_);" d="
						M54.5,179.6c-3.1,3.2-2.8,8.9,0.7,12.8c0,0,0.1,0.1,0.3,0.4l0.1,0.1l0.1,0.1c0.2,0.2,0.5,0.5,0.8,0.9c0.1,0.1,0.2,0.2,0.3,0.4
						c0.1,0.1,0.3,0.3,0.4,0.4c0.1,0.1,0.2,0.2,0.3,0.4c0.1,0.2,0.3,0.3,0.5,0.5l0,0c0.1,0.1,0.2,0.2,0.2,0.3
						c0.1,0.1,0.2,0.2,0.3,0.3c0.1,0.1,0.2,0.2,0.3,0.3c0.1,0.2,0.3,0.3,0.4,0.5c0.2,0.2,0.3,0.3,0.5,0.5c0.1,0.1,0.2,0.2,0.3,0.3
						c0.1,0.1,0.2,0.2,0.3,0.3l0,0c0.1,0.1,0.2,0.2,0.3,0.3c0.2,0.2,0.6,0.4,0.9,0.7c0.1,0.1,0.2,0.1,0.3,0.2l0,0
						c0.3,0.2,0.7,0.4,1.1,0.5c0.1,0.1,0.3,0.1,0.4,0.1c0.1,0,0.3,0.1,0.4,0.1c0.1,0,0.2,0,0.3,0.1c0.1,0,0.2,0,0.3,0.1
						c0.1,0,0.3,0,0.4,0.1c0.1,0,0.3,0,0.4,0c0.2,0,0.3,0,0.5,0c0.6,0,1.2-0.1,1.9-0.2l0,0c0.4-0.1,0.7-0.2,1.1-0.4
						c0.2-0.1,0.4-0.1,0.6-0.2c0.2-0.1,0.4-0.1,0.6-0.2c0.4-0.2,0.9-0.3,1.3-0.5c0.7-0.2,1.3-0.5,2-0.8c0.1-0.1,0.3-0.1,0.4-0.2
						c0.3-0.1,0.6-0.2,0.9-0.3c0.1,0,0.2-0.1,0.3-0.1c0.3-0.1,0.5-0.2,0.8-0.3c0,0,0,0,0.1,0c0.2-0.1,0.3-0.1,0.5-0.2
						c0.1-0.1,0.3-0.1,0.4-0.2h0.1c0.5-0.2,1.1-0.4,1.7-0.7c0.2-0.1,0.3-0.1,0.5-0.2c0.4-0.1,0.7-0.3,1.1-0.4
						c0.2-0.1,0.3-0.1,0.5-0.2c0.8-0.3,1.7-0.7,2.5-1c0.1,0,0.1-0.1,0.2-0.1c2.8-1.1,5.6-2.3,8.5-3.5c-6.7-15.8-0.9-30.5,8-42.3
						L54.5,179.6z"/>
				</g>
			</g>
			<g>
				<g>
					
						<linearGradient id="SVGID_00000103240731758241756420000014912570106957753745_" gradientUnits="userSpaceOnUse" x1="88.9468" y1="373.8" x2="166.4999" y2="373.8" gradientTransform="matrix(1 0 0 1 0 -214)">
						<stop  offset="0" style="stop-color:#F3AF1C"/>
						<stop  offset="0.99" style="stop-color:#EE4500"/>
						<stop  offset="1" style="stop-color:#EE4500"/>
					</linearGradient>
					
						<path id="SVGID_00000054950431735271899830000006126190370970082718_" style="fill:url(#SVGID_00000103240731758241756420000014912570106957753745_);" d="
						M129.9,129c-0.1,0-0.1,0-0.2,0h-0.1h-0.1h-0.1c-0.1,0-0.3,0-0.4,0.1c-0.1,0-0.1,0-0.2,0s-0.1,0-0.2,0.1
						c-0.5,0.1-0.9,0.3-1.4,0.5c-0.1,0.1-0.3,0.1-0.4,0.2c-0.5,0.2-1,0.5-1.5,0.9l-25.4,17.5c-8.9,11.8-14.8,26.5-8,42.3
						c12.7-5.3,25.7-10.9,31.5-13.2c1.4-0.5,2.5-0.8,3.5-1.1c0.1-0.2,0.3-0.7,0.7-1.3c0.1-0.1,0.1-0.2,0.2-0.4
						c0.3-0.5,0.6-1,0.9-1.6c0.2-0.3,0.3-0.6,0.5-0.9c0.6-1.1,1.4-2.3,2.3-3.5c0.1-0.2,0.3-0.4,0.4-0.6c0.5-0.7,1.1-1.5,1.7-2.3
						c0.1-0.2,0.3-0.4,0.5-0.6s0.3-0.4,0.5-0.6s0.3-0.4,0.5-0.6s0.3-0.4,0.5-0.6s0.3-0.4,0.5-0.6c0.3-0.3,0.5-0.6,0.8-0.9
						c0.1-0.1,0.2-0.2,0.3-0.3c1.4-1.4,2.8-2.7,4.5-3.9c0.2-0.1,0.4-0.3,0.6-0.4c0.2-0.2,0.5-0.3,0.7-0.5s0.5-0.3,0.7-0.5
						s0.5-0.3,0.7-0.5s0.5-0.3,0.7-0.4c0.2-0.2,0.5-0.3,0.8-0.4c0.2-0.1,0.5-0.3,0.8-0.4s0.5-0.3,0.8-0.4s0.5-0.3,0.8-0.4
						s0.5-0.2,0.8-0.3l0,0c0.2-0.1,0.4-0.2,0.6-0.2c0.2-0.1,0.4-0.2,0.6-0.2c0.2-0.1,0.5-0.2,0.7-0.2c0,0,0,0,0.1,0
						c0.3-0.1,0.5-0.2,0.8-0.2c0.2-0.1,0.4-0.1,0.6-0.2s0.4-0.1,0.6-0.1c0.1,0,0.3-0.1,0.4-0.1c0.3-0.1,0.5-0.1,0.8-0.2
						c0.2,0,0.3-0.1,0.4-0.1c0.5-0.1,0.9-0.1,1.4-0.2c0.3,0,0.6-0.1,0.9-0.1c1.2-0.1,2.5-0.1,3.7,0c0.3,0,0.5,0,0.8,0.1
						c0.4,0,0.8,0.1,1.2,0.1c0.5,0.1,1,0.2,1.6,0.3c0.1,0,0.3,0,0.4,0.1c0.6,0.1,1.2,0.3,1.8,0.4L135,130.9
						c-1.7-1.1-3.2-1.8-4.6-1.8c-0.1,0-0.2,0-0.3,0C130,129,130,129,129.9,129"/>
				</g>
			</g>
			<path class="st7" d="M161.5,66.7c-16.8,2.7-30.5,13.3-35.5,36c-0.7,0.3-1.4,0.8-2.2,1.3c0,0-62.4,43.2-66.7,46.2s-7,4.4-11.5,0
				c-4.4-4.4-6.2-6.8-6.2-6.8c-4.3-4.7-4.7-11.6-0.9-15.4l85.1-86.4c1.7-1.7,4-2.5,6.4-2.4c0.1,0,0.2,0,0.2,0h0.1c0,0,0,0,0.1,0
				c2.4-0.1,4.7,0.7,6.4,2.4L161.5,66.7z"/>
		</g>
	</g>
</g>
</svg>
