<svg width="153" height="35" viewBox="0 0 153 35" fill="none" xmlns="http://www.w3.org/2000/svg">
<g clip-path="url(#clip0_635_12390)">
<path d="M11.825 28.11C10.6339 28.2937 9.43739 28.2644 8.25945 28.0248C6.1815 27.604 4.30739 26.5601 2.84356 25.0049C0.52474 22.5523 -0.462613 19.109 0.204446 15.7882L1.59945 8.75784C1.61533 8.66463 1.66827 8.59007 1.75033 8.53681L2.12886 8.28382C2.17386 8.25453 2.21886 8.23589 2.2718 8.23056C2.38562 8.21458 2.49945 8.25453 2.57621 8.33708C2.65298 8.4223 2.69003 8.53681 2.66621 8.65132L1.20239 16.0039C0.604152 18.9945 1.49886 22.0995 3.5768 24.3152C5.66268 26.5228 8.68827 27.5747 11.6689 27.114C15.5071 26.5228 18.5936 23.5482 19.3586 19.7002L21.8759 7.03487C21.8918 6.94166 21.9447 6.86444 22.0268 6.81118L22.4053 6.55819C22.4503 6.5289 22.4953 6.51292 22.5483 6.50493C22.6621 6.48895 22.7759 6.5289 22.8527 6.61145C22.9268 6.69667 22.9665 6.81118 22.9427 6.92568L20.3565 19.9132C19.5068 24.1767 16.0789 27.4868 11.825 28.1393L11.8171 28.1073L11.825 28.11Z" fill="#CBED69"/>
<path d="M11.528 26.1553C10.5645 26.3018 9.593 26.2778 8.63741 26.0861C6.95388 25.7399 5.43712 24.8984 4.24594 23.6414C2.37182 21.6548 1.5777 18.864 2.10712 16.1743L3.89123 7.21064C3.90712 7.11744 3.96006 7.04287 4.03418 6.98695L4.4127 6.73396C4.4577 6.70201 4.5027 6.68869 4.55565 6.6807C4.66947 6.66472 4.78329 6.70467 4.85741 6.78989C4.93418 6.87244 4.97123 6.98961 4.94741 7.10412L3.10506 16.3874C2.63653 18.7495 3.3327 21.2021 4.97918 22.9517C6.62565 24.6987 9.01329 25.5189 11.3718 25.1594C14.3974 24.6907 16.8406 22.3446 17.4468 19.3087L19.5856 8.57411C19.6015 8.4809 19.6545 8.40634 19.7365 8.35041L20.1151 8.09743C20.1601 8.06813 20.2051 8.05215 20.258 8.04416C20.3718 8.02819 20.4856 8.06813 20.5624 8.15069C20.6365 8.2359 20.6762 8.35041 20.6524 8.46492L18.4527 19.5218C17.7618 22.9783 14.9877 25.6547 11.5359 26.1846L11.5201 26.1527L11.528 26.1553Z" fill="#CBED69"/>
<path d="M11.2317 24.2085C10.4959 24.323 9.75204 24.3017 9.0188 24.1552C7.72969 23.8942 6.56233 23.2418 5.65969 22.2858C4.22763 20.7679 3.61086 18.6295 4.02116 16.5656L6.1891 5.66857C6.20498 5.57802 6.25792 5.5008 6.33998 5.44487L6.53057 5.32237C6.63645 5.25314 6.76616 5.24515 6.90116 5.29841C6.93027 5.3064 6.9541 5.3277 6.96998 5.35167L7.13674 5.60465C7.18969 5.68188 7.20557 5.77242 7.18969 5.86563L5.0191 16.76C4.67763 18.4936 5.18586 20.2938 6.39292 21.5668C7.59998 22.8477 9.34969 23.4522 11.0809 23.1832C13.3044 22.845 15.0938 21.122 15.5332 18.8904L17.3464 9.76695C17.3782 9.62048 17.4894 9.51396 17.635 9.48999C17.7329 9.47401 17.8309 9.50597 17.9076 9.56722C17.9235 9.56722 17.9394 9.56722 17.9526 9.55923C18.0664 9.54325 18.1803 9.58053 18.2544 9.66575C18.3312 9.7483 18.3682 9.86548 18.347 9.97999L16.5338 19.1035C16.0097 21.7478 13.8788 23.8037 11.2397 24.2085L11.2317 24.2005V24.2085Z" fill="#CBED69"/>
<path d="M10.9436 22.2594C10.4354 22.3366 9.91127 22.3286 9.40304 22.2194C8.50833 22.0357 7.69569 21.5909 7.06569 20.9172C6.07304 19.86 5.64686 18.3793 5.92745 16.9466L7.7698 7.66338C7.8148 7.43968 8.05039 7.30387 8.30186 7.42637C8.32304 7.44235 8.34686 7.45566 8.36274 7.47963L8.65127 7.91636C8.70422 7.99359 8.7201 8.08413 8.70422 8.17734L6.92274 17.141C6.70304 18.2462 7.02863 19.3886 7.79627 20.2009C8.56127 21.0131 9.67833 21.3965 10.7769 21.2288C12.1877 21.0131 13.3313 19.9186 13.6119 18.4992L15.8116 7.44235C15.8566 7.21865 16.0922 7.08284 16.341 7.20534C16.3648 7.22132 16.386 7.2373 16.4019 7.2586L16.6904 7.69533C16.7433 7.77256 16.7592 7.8631 16.7433 7.95631L14.6045 18.6909C14.2419 20.5311 12.7622 21.9504 10.9251 22.2327L10.941 22.262L10.9436 22.2594Z" fill="#CBED69"/>
<path d="M10.6499 20.3127C10.3455 20.358 10.0597 20.3527 9.77906 20.2967C9.16495 20.1742 8.73877 19.828 8.48995 19.5671C8.15642 19.2156 7.6323 18.4539 7.852 17.3435L9.31583 9.99886C9.36083 9.77783 9.59642 9.63935 9.84789 9.76185C9.86906 9.77783 9.89289 9.79114 9.90877 9.81511L10.1973 10.2518C10.2502 10.3291 10.2661 10.4223 10.2502 10.5128L8.85524 17.5432C8.72553 18.2036 9.03789 18.6483 9.23377 18.8534C9.42965 19.0611 9.85583 19.3966 10.5149 19.2981C11.1211 19.2076 11.6055 18.7309 11.7273 18.1237L14.3135 5.13619C14.3585 4.9125 14.5941 4.77669 14.8429 4.89919C14.8667 4.91516 14.8879 4.93114 14.9038 4.95245L15.1923 5.38918C15.2452 5.46641 15.2611 5.55695 15.2452 5.65016L12.7279 18.3155C12.5241 19.3434 11.6955 20.1396 10.6711 20.3021L10.6499 20.3101V20.3127Z" fill="#CBED69"/>
<path d="M22.9586 4.63534L19.9939 0.129514C19.9065 -0.00363636 19.7265 -0.0409186 19.5942 0.0496239L15.1366 3.04818C15.0042 3.13606 14.9671 3.31714 15.0571 3.45296L18.0218 7.95878C18.1092 8.09193 18.2892 8.12921 18.4215 8.03867L22.8792 5.04011C23.0115 4.95223 23.0486 4.77115 22.9586 4.63534Z" fill="#CBED69"/>
<path d="M32.6253 27.1086C31.1747 26.3629 30.0286 25.343 29.2053 24.0434C28.3821 22.7465 27.9639 21.2819 27.9639 19.6548V6.78177C27.9639 5.85771 28.2789 5.14136 28.9062 4.64604C29.5336 4.15071 30.423 3.90039 31.5877 3.90039V19.6548C31.5877 21.2606 32.1303 22.5495 33.2156 23.5348C34.3009 24.5201 35.733 25.0074 37.5224 25.0074C39.3118 25.0074 40.7465 24.5175 41.8318 23.5348C42.9171 22.5521 43.4597 21.2606 43.4597 19.6548V6.78177C43.4597 5.83108 43.7668 5.11739 44.3809 4.62739C44.995 4.14539 45.8924 3.90039 47.0809 3.90039V19.6548C47.0809 21.2792 46.668 22.7465 45.8395 24.0567C45.0162 25.3643 43.8727 26.3895 42.4221 27.1219C40.9715 27.8542 39.3356 28.227 37.525 28.227C35.7145 28.227 34.0865 27.8569 32.628 27.1112" fill="#CBED69"/>
<path d="M50.4556 13.2502C50.4556 12.4832 50.7177 11.8627 51.2392 11.3861C51.7606 10.9094 52.5521 10.6724 53.5977 10.6724V12.5365C53.4865 12.6963 53.3753 12.848 53.2641 12.9918C53.153 13.1357 53.0418 13.2874 52.9306 13.4472L53.063 13.5857C53.7565 12.6616 54.54 11.94 55.4241 11.4313C56.3056 10.9227 57.3724 10.6724 58.6271 10.6724C60.5224 10.6724 62.0603 11.2209 63.2356 12.3181C64.4056 13.4153 64.9933 14.856 64.9933 16.6402V22.2964C64.9933 24.0806 64.3712 25.5133 63.1297 26.5972C61.8883 27.681 60.2868 28.2216 58.3174 28.2216C57.3565 28.2216 56.4274 28.0113 55.5327 27.5932C54.638 27.1751 53.865 26.6291 53.2191 25.9474L53.1212 26.1178C53.2774 26.3415 53.513 26.5945 53.828 26.8635V32.5197C53.828 34.1655 52.6977 34.991 50.4424 34.991V13.2502H50.4556ZM60.6786 24.4322C61.3721 23.8703 61.7189 23.09 61.7189 22.094V16.8079C61.7189 15.7907 61.3721 15.0104 60.6786 14.4565C59.985 13.8999 59.0056 13.623 57.7297 13.623C56.6127 13.623 55.6783 13.9133 54.9318 14.4885C54.18 15.0637 53.8068 15.7827 53.8068 16.6428V22.2671C53.8068 23.1273 54.1721 23.841 54.8974 24.4215C55.6227 24.9967 56.5783 25.287 57.7615 25.287C59.0109 25.287 59.985 25.002 60.6759 24.4401V24.4348L60.6786 24.4322Z" fill="#CBED69"/>
<path d="M70.0226 26.7835C69.2179 25.8248 68.8129 24.5625 68.8129 23.0046V11.9957H65.5967C65.5967 11.1169 65.774 10.4565 66.134 10.0145C66.494 9.57239 66.9705 9.35402 67.5714 9.35402H68.879V6.209C68.879 5.39678 69.1464 4.80826 69.6837 4.44609C70.2264 4.08125 71.0364 3.90283 72.1349 3.90283V9.35402H76.5926C76.5926 10.2594 76.4099 10.9279 76.0367 11.3513C75.6714 11.78 75.0943 11.9931 74.3108 11.9931H72.1984V22.8768C72.1984 23.737 72.3546 24.3495 72.6696 24.7196C72.9846 25.0898 73.5379 25.2815 74.3426 25.2815C75.1473 25.2815 75.8858 25.0711 76.6243 24.6397C76.9843 25.0019 77.1617 25.452 77.1617 25.9952C77.1617 26.5837 76.8599 27.1057 76.259 27.5531C75.6582 28.0031 74.8217 28.2348 73.7417 28.2348C72.0687 28.2348 70.8273 27.7528 70.0226 26.7941V26.7888V26.7835Z" fill="#CBED69"/>
<path d="M82.2446 27.4121C81.1461 26.8715 80.2911 26.1232 79.6611 25.1778C79.0337 24.2272 78.7188 23.1673 78.7188 21.9929V17.1489C78.7188 15.9265 79.0443 14.8294 79.7061 13.8441C80.3652 12.8587 81.244 12.0865 82.3346 11.5246C83.4252 10.9627 84.6217 10.6777 85.924 10.6777C87.2264 10.6777 88.4017 10.9494 89.4738 11.49C90.5458 12.0305 91.3955 12.7842 92.0229 13.7429C92.6502 14.7016 92.9652 15.7907 92.9652 17.0157V19.1168C92.9652 19.5003 92.8143 19.8385 92.5152 20.1155C92.2135 20.4004 91.8482 20.5389 91.422 20.5389H81.9693V21.8278C81.9693 22.9116 82.3029 23.7904 82.9752 24.4508C83.6476 25.1193 84.6296 25.4495 85.924 25.4495C87.2185 25.4495 88.1979 25.1592 88.8596 24.584C89.5188 24.0088 89.847 23.2498 89.847 22.2965C90.6517 22.2299 91.3108 22.3551 91.8217 22.6853C92.3379 23.0155 92.592 23.5055 92.592 24.1579C92.592 24.8583 92.2849 25.5187 91.6708 26.1392C91.0567 26.7597 90.2388 27.263 89.2249 27.6465C88.2058 28.0299 87.1073 28.2217 85.924 28.2217C84.5582 28.2217 83.3299 27.95 82.2367 27.4095H82.2446V27.4121ZM89.9185 17.9957V17.0104C89.9185 15.9478 89.5532 15.0877 88.8146 14.4193C88.0761 13.7509 87.1152 13.4206 85.932 13.4206C84.7488 13.4206 83.7958 13.7509 83.0679 14.4193C82.3426 15.0877 81.9773 15.9532 81.9773 17.0104V17.9957H89.9185Z" fill="#CBED69"/>
<path d="M96.0544 13.4231C96.0544 11.5909 97.1132 10.6802 99.2388 10.6802V12.8133C99.0165 13.0369 98.7676 13.3538 98.5003 13.7639L98.6697 13.9024C99.3818 12.8638 100.134 12.0649 100.917 11.5164C101.701 10.9598 102.624 10.6828 103.702 10.6828C105.716 10.6828 107.087 11.6548 107.826 13.5962C109.075 11.6522 110.775 10.6828 112.919 10.6828C114.481 10.6828 115.704 11.2234 116.585 12.3073C117.469 13.3911 117.906 14.8052 117.906 16.5441V25.9286C117.906 26.7222 117.633 27.3027 117.083 27.6729C116.532 28.043 115.704 28.2348 114.586 28.2348V16.7732C114.586 14.6241 113.724 13.5536 112.003 13.5536C111.063 13.5536 110.264 13.8785 109.605 14.5176C108.946 15.1594 108.617 16.0568 108.617 17.2152V25.9259C108.617 26.7382 108.35 27.3267 107.813 27.6915C107.275 28.0563 106.46 28.2321 105.367 28.2321V16.7732C105.367 15.7825 105.15 14.9943 104.731 14.4217C104.308 13.8465 103.646 13.5562 102.757 13.5562C101.777 13.5562 100.965 13.9131 100.324 14.6188C99.6915 15.3325 99.3712 16.2326 99.3712 17.3164V25.9206C99.3712 26.7142 99.0959 27.2947 98.5479 27.6649C98 28.035 97.1688 28.2268 96.0518 28.2268V13.4231H96.0544Z" fill="#CBED69"/>
<path d="M121.029 13.2502C121.029 12.4832 121.291 11.8627 121.813 11.3861C122.337 10.9094 123.126 10.6724 124.171 10.6724V12.5365C124.06 12.6963 123.949 12.848 123.838 12.9918C123.726 13.1357 123.615 13.2874 123.504 13.4472L123.636 13.5857C124.33 12.6616 125.114 11.94 125.998 11.4313C126.882 10.9227 127.946 10.6724 129.201 10.6724C131.096 10.6724 132.634 11.2209 133.809 12.3181C134.979 13.4153 135.569 14.856 135.569 16.6402V22.2964C135.569 24.0806 134.947 25.5133 133.706 26.5972C132.464 27.681 130.86 28.2216 128.894 28.2216C127.933 28.2216 127.004 28.0113 126.109 27.5932C125.214 27.1777 124.441 26.6291 123.795 25.9474L123.697 26.1178C123.854 26.3415 124.089 26.5945 124.404 26.8635V32.5197C124.404 34.1655 123.274 34.991 121.019 34.991V13.2502H121.032H121.029ZM131.252 24.4322C131.946 23.8703 132.292 23.09 132.292 22.094V16.8079C132.292 15.7907 131.946 15.0104 131.252 14.4565C130.559 13.8999 129.579 13.623 128.303 13.623C127.186 13.623 126.252 13.9133 125.505 14.4885C124.754 15.0637 124.38 15.7827 124.38 16.6428V22.2671C124.38 23.1273 124.748 23.841 125.471 24.4215C126.196 24.9967 127.152 25.287 128.335 25.287C129.582 25.287 130.556 25.002 131.249 24.4401V24.4348L131.252 24.4322Z" fill="#CBED69"/>
<path d="M141.809 27.4466C140.692 26.9247 139.816 26.211 139.18 25.2923C138.545 24.3815 138.228 23.3563 138.228 22.2271V16.9064C138.228 15.756 138.543 14.7068 139.167 13.7534C139.795 12.8027 140.665 12.0544 141.783 11.5005C142.9 10.9439 144.175 10.667 145.6 10.667C147.024 10.667 148.305 10.9439 149.417 11.5005C150.534 12.0544 151.41 12.8027 152.045 13.7534C152.68 14.7041 153.001 15.748 153.001 16.9064V22.2271C153.001 23.3563 152.68 24.3815 152.045 25.2923C151.41 26.2057 150.528 26.9247 149.398 27.4466C148.268 27.9686 147 28.2269 145.594 28.2269C144.189 28.2269 142.929 27.9686 141.809 27.4466ZM148.615 24.4135C149.353 23.8116 149.718 23.0181 149.718 22.0274V17.0449C149.718 16.0063 149.345 15.1675 148.593 14.539C147.842 13.9052 146.849 13.5883 145.594 13.5883C144.34 13.5883 143.347 13.9052 142.593 14.539C141.841 15.1728 141.468 16.0063 141.468 17.0449V22.0274C141.468 23.0181 141.835 23.817 142.571 24.4135C143.31 25.0153 144.318 25.3136 145.586 25.3136C146.854 25.3136 147.868 25.0153 148.599 24.4135H148.612H148.615Z" fill="#CBED69"/>
</g>
<defs>
<clipPath id="clip0_635_12390">
<rect width="153" height="35" fill="white"/>
</clipPath>
</defs>
</svg>
