<svg width="170" height="36" viewBox="0 0 170 36" fill="none" xmlns="http://www.w3.org/2000/svg" src="">
<path fill-rule="evenodd" clip-rule="evenodd" d="M43.1445 7.54936H47.4371V11.2152H47.5315C48.8521 8.59016 52.0597 7.00635 55.4088 7.00635C61.6351 7.00635 64.4183 10.7174 64.4183 16.9175V30.6306H59.9841V18.6826C59.9841 13.2973 58.7579 10.6718 54.8901 10.4457C49.8428 10.4457 47.5787 14.3381 47.5787 19.9499V30.6306H43.1445V7.54936Z" fill="#009ADC"/>
<path fill-rule="evenodd" clip-rule="evenodd" d="M103.941 10.9887H97.5735V23.6159C97.5735 26.2857 99.2716 27.7339 101.3 27.7339C102.668 27.7339 103.659 27.327 104.319 26.9196V30.5402C103.328 30.8115 101.961 31.1737 100.545 31.1737C95.9706 31.1737 93.1397 29.0916 93.1397 24.4754V10.9887H87.7148V7.5494H93.1397V2.20882L97.5735 0.851074V7.5494H103.941V10.9887Z" fill="#009ADC"/>
<path fill-rule="evenodd" clip-rule="evenodd" d="M122.007 16.8723C122.007 13.342 119.837 10.4457 116.017 10.4457C111.676 10.4457 109.884 13.8851 109.554 16.8723H122.007ZM124.885 29.6803C123.186 30.2685 121.253 31.1736 117.29 31.1736C108.752 31.1736 104.838 26.1952 104.838 18.6826C104.838 11.8487 109.319 7.00635 116.112 7.00635C124.13 7.00635 126.724 12.6177 126.724 20.0404H109.554C109.554 24.6114 113.281 27.7343 117.479 27.7343C120.403 27.7343 123.8 26.2856 124.885 25.4257V29.6803Z" fill="#009ADC"/>
<path fill-rule="evenodd" clip-rule="evenodd" d="M129.602 7.54936H133.753V11.1248H133.847C135.026 8.72626 137.573 7.00635 140.12 7.00635C141.442 7.00635 142.102 7.14198 143.045 7.32283V11.1248C142.243 10.8074 141.347 10.7174 140.592 10.7174C136.63 10.7174 134.036 14.3381 134.036 20.1308V30.6306H129.602V7.54936Z" fill="#009ADC"/>
<path fill-rule="evenodd" clip-rule="evenodd" d="M82.7409 21.6696C82.7409 25.109 80.4297 27.734 76.0436 27.734C74.015 27.734 71.5617 26.4215 71.5617 23.9777C71.5617 19.9045 77.5053 19.5428 79.911 19.5428C80.8549 19.5428 81.7975 19.6328 82.7409 19.6328V21.6696ZM87.3639 30.6304C87.2695 29.9517 87.1751 28.7296 87.1751 26.105V16.5556C87.1751 10.2646 84.3924 7.0061 77.5053 7.0061C74.4595 7.0061 71.8325 7.89974 69.6248 9.15414V12.969C71.5296 11.3008 74.4668 10.4455 76.7973 10.4455C81.232 10.4455 82.7409 12.4823 82.7409 16.4651C80.9956 16.3743 79.7698 16.3743 78.0249 16.3743C73.4487 16.3743 66.8457 18.1846 66.8457 23.9777C66.8457 29.0014 70.4771 31.1734 75.666 31.1734C79.7222 31.1734 82.0811 29.0466 83.119 27.6436H83.2124V30.6304H87.3639Z" fill="#009ADC"/>
<path fill-rule="evenodd" clip-rule="evenodd" d="M157.398 21.6696C157.398 25.109 155.087 27.734 150.7 27.734C148.672 27.734 146.219 26.4215 146.219 23.9777C146.219 19.9045 152.162 19.5428 154.568 19.5428C155.511 19.5428 156.455 19.6328 157.398 19.6328V21.6696ZM162.021 30.6304C161.926 29.9517 161.832 28.7296 161.832 26.105V16.5556C161.832 10.2646 159.049 7.0061 152.162 7.0061C149.312 7.0061 146.931 7.78901 144.828 8.91747V12.4491C146.618 11.2071 149.164 10.4455 151.455 10.4455C155.889 10.4455 157.398 12.4823 157.398 16.4651C155.653 16.3743 154.427 16.3743 152.681 16.3743C148.106 16.3743 141.502 18.1846 141.502 23.9777C141.502 29.0014 145.135 31.1734 150.323 31.1734C154.379 31.1734 156.739 29.0466 157.776 27.6436H157.87V30.6304H162.021Z" fill="#009ADC"/>
<mask mask-type="alpha" maskUnits="userSpaceOnUse" x="0" y="0" width="17" height="18">
<path fill-rule="evenodd" clip-rule="evenodd" d="M0 0.461426H16.0849V17.6369H0V0.461426Z" fill="white"/>
</mask>
<g>
<path fill-rule="evenodd" clip-rule="evenodd" d="M9.47143 14.128C11.2328 14.128 12.8806 14.6548 14.2933 15.5692C13.6137 14.1427 13.2275 12.5229 13.2275 10.8035C13.2275 7.90206 14.3226 5.2816 16.0849 3.40345C14.3781 1.58389 12.0453 0.461426 9.47143 0.461426C4.24038 0.461426 0 5.09198 0 10.8035C0 13.4235 0.893989 15.8142 2.36488 17.637C4.10016 15.4866 6.63962 14.128 9.47143 14.128Z" fill="#009ADC"/>
</g>
<mask mask-type="alpha" maskUnits="userSpaceOnUse" x="16" y="0" width="17" height="18">
<path fill-rule="evenodd" clip-rule="evenodd" d="M16.0859 0.461426H32.1718V17.6369H16.0859V0.461426Z" fill="white"/>
</mask>
<g>
<path fill-rule="evenodd" clip-rule="evenodd" d="M17.8776 15.5692C19.2903 14.6548 20.9385 14.128 22.6999 14.128C25.5312 14.128 28.0712 15.4862 29.8065 17.637C31.2773 15.8142 32.1718 13.4235 32.1718 10.8035C32.1718 5.09152 27.931 0.461426 22.6999 0.461426C20.1261 0.461426 17.7933 1.58389 16.0859 3.40345C17.8487 5.2816 18.9439 7.90206 18.9439 10.8035C18.9439 12.5229 18.5576 14.1427 17.8776 15.5692Z" fill="#9ACA3C"/>
</g>
<path fill-rule="evenodd" clip-rule="evenodd" d="M14.2943 15.5691C14.9464 15.9912 15.5471 16.4955 16.086 17.0699C16.6249 16.4955 17.226 15.9912 17.8776 15.5691C18.5576 14.1426 18.9439 12.5228 18.9439 10.8034C18.9439 7.90193 17.8483 5.28147 16.086 3.40332C14.3237 5.28147 13.2285 7.90193 13.2285 10.8034C13.2285 12.5228 13.6143 14.1426 14.2943 15.5691Z" fill="#005E7F"/>
<mask mask-type="alpha" maskUnits="userSpaceOnUse" x="0" y="17" width="17" height="18">
<path fill-rule="evenodd" clip-rule="evenodd" d="M0 17.6362H16.0853V34.8119H0V17.6362Z" fill="white"/>
</mask>
<g>
<path fill-rule="evenodd" clip-rule="evenodd" d="M14.2937 19.704C12.8811 20.6184 11.2328 21.1452 9.47189 21.1452C6.64008 21.1452 4.10062 19.787 2.36488 17.6362C0.893989 19.459 0 21.8497 0 24.4697C0 30.1817 4.24083 34.8122 9.47189 34.8122C12.0457 34.8122 14.3781 33.6893 16.0854 31.8693C14.3231 29.9921 13.2279 27.3712 13.2279 24.4697C13.2279 22.7503 13.6137 21.1305 14.2937 19.704Z" fill="#9ACA3C"/>
</g>
<path fill-rule="evenodd" clip-rule="evenodd" d="M9.47178 21.1455C11.2332 21.1455 12.8809 20.6186 14.2936 19.7043C14.6501 18.9569 15.0873 18.263 15.5927 17.6365C15.0873 17.01 14.6501 16.3166 14.2936 15.5692C12.8809 14.6543 11.2332 14.1279 9.47178 14.1279C6.63998 14.1279 4.10052 15.4861 2.36523 17.6365C4.10052 19.7868 6.63998 21.1455 9.47178 21.1455Z" fill="#005E7F"/>
<mask mask-type="alpha" maskUnits="userSpaceOnUse" x="16" y="17" width="17" height="18">
<path fill-rule="evenodd" clip-rule="evenodd" d="M16.0859 17.6365H32.1713V34.8119H16.0859V17.6365Z" fill="white"/>
</mask>
<g>
<path fill-rule="evenodd" clip-rule="evenodd" d="M22.6999 21.1455C20.9385 21.1455 19.2903 20.6186 17.8776 19.7042C18.5576 21.1307 18.9439 22.7505 18.9439 24.47C18.9439 27.3714 17.8483 29.9923 16.0859 31.8695C17.7933 33.6896 20.1261 34.812 22.6999 34.812C27.931 34.812 32.1713 30.1819 32.1713 24.47C32.1713 21.85 31.2773 19.4593 29.8065 17.6365C28.0707 19.7868 25.5312 21.1455 22.6999 21.1455Z" fill="#009ADC"/>
</g>
<path fill-rule="evenodd" clip-rule="evenodd" d="M22.701 14.1279C20.9396 14.1279 19.2914 14.6548 17.8787 15.5692C17.5226 16.3166 17.0855 17.0104 16.5801 17.6369C17.0855 18.2635 17.5226 18.9569 17.8787 19.7042C19.2914 20.6191 20.9396 21.1455 22.701 21.1455C25.5323 21.1455 28.0718 19.7873 29.8075 17.6369C28.0718 15.4866 25.5323 14.1279 22.701 14.1279Z" fill="#005E7F"/>
<path fill-rule="evenodd" clip-rule="evenodd" d="M17.8776 19.7041C17.226 19.2825 16.6248 18.7777 16.086 18.2034C15.5471 18.7777 14.9464 19.2825 14.2943 19.7041C13.6148 21.1306 13.2285 22.7504 13.2285 24.4699C13.2285 27.3713 14.3237 29.9922 16.086 31.8694C17.8488 29.9922 18.9439 27.3713 18.9439 24.4699C18.9439 22.7504 18.5576 21.1306 17.8776 19.7041Z" fill="#005E7F"/>
<path fill-rule="evenodd" clip-rule="evenodd" d="M163.807 7.80467H162.715V7.33594H165.404V7.80467H164.311V11.0581H163.807V7.80467Z" fill="#009ADC"/>
<path fill-rule="evenodd" clip-rule="evenodd" d="M165.859 7.33618H166.691L167.794 10.4286L168.877 7.33618H169.708V11.0583H169.204V7.83721H169.194L168.03 11.0583H167.536L166.373 7.83721H166.363V11.0583H165.859V7.33618Z" fill="#009ADC"/>
</svg>
