<svg aria-hidden="true" focusable="false" viewBox="0 0 179 36" fill="none" xmlns="http://www.w3.org/2000/svg">
    <path d="M31.605 17.894c0 .054-.014.11-.042.161l-4.904 8.288a.333.333 0 0 1-.57 0l-5-8.447h5.284l-5.284-8.93h-10.38a.328.328 0 0 1-.285-.16L8.161 4.982a.323.323 0 0 1 .286-.483h15.094c.118 0 .227.06.285.16l2.547 4.305 2.643 4.465 2.547 4.305c.028.05.042.104.042.16zM23.16 31.286H8.072a.34.34 0 0 1-.164-.042.346.346 0 0 1-.096-.081l-5.216-8.805-.103-.173-2.446-4.13a.306.306 0 0 1-.003-.322l4.904-8.288a.333.333 0 0 1 .57 0l5.005 8.447-5.29.006 2.639 4.459 2.644 4.465h10.38c.06 0 .116.015.164.043a.29.29 0 0 1 .12.118l2.262 3.82a.321.321 0 0 1-.282.483z" fill="#1a1a1a"/>
    <path d="M21.034 17.894c0 .055-.015.11-.043.161l-2.452 4.143a.333.333 0 0 1-.284.161h-4.906a.329.329 0 0 1-.284-.16l-2.452-4.144a.311.311 0 0 1-.042-.16c0-.058.014-.11.042-.16l2.452-4.144a.31.31 0 0 1 .12-.118.338.338 0 0 1 .164-.043h4.904a.329.329 0 0 1 .284.16l2.452 4.145a.29.29 0 0 1 .045.16zM49.234 8.07v3.41h-4.636v16.592h-3.71V11.48h-4.635V8.07h12.981zM61.604 22.615H52.62c.377 1.335 1.42 2.273 3.014 2.273 1.071 0 2.116-.597 2.753-1.278l2.435 2.187c-1.102 1.478-3.1 2.5-5.187 2.5-4.143 0-6.867-3.152-6.867-7.045 0-3.892 2.464-7.045 6.694-7.045 2.318 0 6.288 1.505 6.288 6.79-.002.54-.06 1.05-.147 1.618zm-9.011-2.727h5.476c-.115-1.193-1.043-2.273-2.608-2.273-1.593 0-2.521.938-2.868 2.273zM74.732 24.009c0 2.302-1.709 4.29-5.737 4.29-2.84 0-4.694-1.42-5.39-2.102l1.854-2.728c1.216.965 2.376 1.365 3.332 1.478 1.42.17 2.231-.228 2.231-.825 0-.682-1.07-.795-2.347-1.165-3.883-1.165-4.608-2.87-4.608-4.66 0-2.187 1.826-4.09 5.419-4.09 0 0 2.172 0 4.347 1.42l-1.71 2.842c-.637-.425-1.39-.825-2.549-.91-1.216-.085-1.797.313-1.797.738 0 .455.579.825 1.912 1.137 3.044.712 5.043 1.792 5.043 4.575zM82.612 17.843v5.227c0 1.79 1.16 2.245 2.318 1.393l1.39 2.812c-.782.625-1.797 1.023-3.013 1.023-3.072 0-4.404-2.16-4.404-5.455v-5h-2.318v-3.408h2.318V9.207l3.71-1.137v6.365h3.709v3.41h-3.71v-.002zM104.864 18.07c0 5.285-3.477 10-10.46 10h-4.839v-20h4.84c7.157 0 10.459 4.717 10.459 10zm-3.708 0c0-3.352-2.434-6.59-6.084-6.59h-1.797v13.182h1.797c3.65 0 6.084-3.24 6.084-6.592zM119.553 22.615h-8.983c.377 1.335 1.42 2.273 3.014 2.273 1.071 0 2.116-.597 2.753-1.278l2.435 2.187c-1.101 1.478-3.1 2.5-5.186 2.5-4.144 0-6.867-3.152-6.867-7.045 0-3.892 2.463-7.045 6.693-7.045 2.318 0 6.288 1.505 6.288 6.79-.003.54-.06 1.05-.147 1.618zm-9.011-2.727h5.477c-.117-1.193-1.043-2.273-2.609-2.273-1.593 0-2.521.938-2.868 2.273zM124.281 14.434l2.84 8.352 2.84-8.352h4.115l-5.331 13.637h-3.246l-5.332-13.637h4.114zM139.634 8.07v16.592h7.882v3.41h-11.591V8.07h3.709zM158.874 28.07l-.232-1.62c-.985 1.08-2.609 1.847-4.231 1.847-3.245 0-5.041-2.102-5.041-4.517 0-3.495 4.434-5.398 8.751-3.835-.117-1.62-.956-2.443-2.723-2.443-1.16 0-2.203.37-3.014.795l-1.39-2.67c1.071-.71 2.665-1.42 4.867-1.42 3.274 0 6.028 1.875 6.028 6.99v6.875h-3.015v-.002zm-5.796-4.29c0 1.108.928 1.675 2.028 1.675 1.275 0 2.695-1.08 3.072-2.926-2.84-1.05-5.1-.34-5.1 1.251zM168.61 15.968c.783-.995 2.173-1.762 3.825-1.762 3.622 0 6.374 3.012 6.374 7.045 0 4.034-2.753 7.045-6.374 7.045-1.652 0-3.042-.767-3.825-1.818v1.59h-3.71V7.616h3.71v8.353zm6.49 5.284c0-1.988-1.449-3.637-3.246-3.637s-3.246 1.648-3.246 3.637c0 1.988 1.449 3.637 3.246 3.637s3.246-1.649 3.246-3.637z" fill="#1a1a1a"/>
</svg>
