<svg width="2941" height="2011" viewBox="0 0 2941 2011" fill="none" xmlns="http://www.w3.org/2000/svg">
<g clip-path="url(#clip0)">
<path d="M0 838.2H61.1V887.8H62.6C66.6 879.2 72.1 871.5 78.9 864.3C85.8 857.4 93.2 851.4 101.6 846.2C110.2 841.1 119.5 837.2 129.1 834.4C139.1 831.5 148.9 830.1 158.9 830.1C168.9 830.1 177.8 831.5 186.1 834.1L183.5 900.1C178.6 898.7 173.6 897.5 168.6 896.7C163.7 895.8 158.7 895.3 153.7 895.2C123.9 895.2 101 903.5 85.2 920.4C69.4 937 61.4 963.1 61.4 998.4V1160.1H0C0 1160.2 0 838.2 0 838.2ZM223.4 999.3C223.4 975.8 227.7 953.7 236.6 933.3C254 892.7 286.5 860.4 327.2 843.3C348.4 834.4 371.3 829.9 394.3 830.1C417.3 829.8 440.2 834.3 461.4 843.3C481.7 851.7 500.1 864.1 515.6 879.7C531.1 895.2 543.1 913 552 933.3C560.9 953.7 565.2 975.8 565.2 999.3C565.5 1044.3 547.7 1087.5 515.6 1119.2C500.1 1134.4 482 1146.4 461.4 1155C440.2 1163.9 417.3 1168.4 394.3 1168.2C371.3 1168.5 348.4 1164 327.2 1155C307 1146.6 288.6 1134.4 273 1119.2C257.4 1103.9 245.1 1085.7 236.6 1065.6C227.8 1044.6 223.3 1022.1 223.4 999.3ZM288.8 999.3C288.8 1015.6 291.4 1030.5 296.3 1044.3C301.2 1058.1 308.3 1069.8 317.3 1079.6C326.7 1089.6 338 1097.5 350.5 1102.8C364.5 1108.7 379.5 1111.6 394.7 1111.4C409.9 1111.6 424.9 1108.7 438.9 1102.8C451.5 1097.4 462.8 1089.5 472.1 1079.6C481.3 1069.9 488.2 1058.1 493.1 1044.3C498 1030.5 500.6 1015.3 500.6 999.3C500.6 983 498 968.1 493.1 954.3C488.6 941.3 481.4 929.3 472.1 919C462.7 909 451.4 901.1 438.9 895.8C424.9 889.9 409.9 887 394.7 887.2C379.5 887 364.5 889.9 350.5 895.8C337.9 901.2 326.6 909.1 317.3 919C307.9 929.1 300.8 941.2 296.3 954.3C291.1 967.8 288.8 983 288.8 999.3ZM642.3 646.9H703.4V888H704.9C712.6 870.8 725.8 856.8 745 846.1C763.9 835.5 786 830.1 811 830.1C826.5 830.1 841.1 832.4 855.5 837.3C869.9 842.2 882.2 849.3 892.8 859.4C903.4 869.4 912 882.1 918.3 897.8C924.6 913.3 927.8 931.9 927.8 953.2V1160.2H866.7V970.1C866.7 955.2 864.7 942.3 860.7 931.7C857.3 922 851.7 913.1 844.4 905.9C837.7 899.5 829.7 894.6 820.9 891.6C812 888.7 802.7 887.3 793.4 887.3C780.8 887.3 769 889.3 758.1 893.3C747.3 897.4 737.5 904 729.7 912.5C721.1 922.2 714.6 933.7 710.8 946.1C706.2 959.6 703.9 975.6 703.9 994.3V1160H642.8V647H642.3V646.9ZM1024.6 646.9H1085.7V1160.2H1024.6C1024.6 1160.2 1024.6 646.9 1024.6 646.9ZM1173.4 722.9C1173.4 710.6 1177.7 700.2 1186.6 691.4C1194.8 682.8 1206.2 678 1218.1 678.2C1230.4 678.2 1240.8 682.5 1249.6 691.4C1258.5 700.3 1262.8 710.6 1262.8 722.9C1262.8 735.2 1258.5 745.5 1249.6 754.4C1241.4 763 1229.9 767.8 1218.1 767.6C1205.8 767.6 1195.4 763.3 1186.6 754.4C1178 746.2 1173.2 734.8 1173.4 722.9ZM1187.5 838.2H1248.6V1159.9H1187.5V838.2ZM1345.8 646.9H1406.9V978.1L1545.4 839H1630.3L1480.3 985L1643.2 1160.2H1556.3L1406.8 993V1160.2H1345.7C1345.8 1160.2 1345.8 646.9 1345.8 646.9Z" fill="black"/>
<path d="M2611.9 1653C2440.5 1685.4 2333.4 1834.8 2351.5 1853C2369.6 1870.7 2467.6 1929 2475.9 1922.5C2582.6 1833.1 2779.9 1826.7 2796.7 1846.9C2813.6 1867.2 2779.4 1669.4 2779.4 1669.4C2779.4 1669.4 2760.4 1645.2 2690.9 1645.2C2669.8 1644.8 2643.8 1647 2611.9 1653ZM2380 1359.4C2208.6 1391.8 2101.5 1541.2 2119.6 1559.4C2137.7 1577.1 2192.6 1775.7 2199 1767.1C2285.4 1652.7 2454.6 1537.4 2564.8 1552.9C2580.4 1555.1 2585.1 1495.1 2576.9 1445.4C2571.3 1411.7 2553.1 1381.9 2553.1 1381.9C2553.1 1381.9 2549.2 1349.9 2470.6 1349.9C2447.4 1349.5 2417.6 1352.1 2380 1359.4ZM2288.4 521.7C2200.8 590.4 2008.6 581.7 1876.9 526C1867 521.7 1906.2 714.3 1899.8 738.9C1893.3 763.1 2060.5 839.5 2225.4 781.6C2385.2 725.5 2364.4 675.8 2364.4 675.8C2364.4 675.8 2369.2 653.3 2360.1 627.9C2343.7 582.1 2308.3 520.4 2292.3 520.4C2291 520.7 2289.7 521.1 2288.4 521.7ZM2339 162.9C2334.3 188.8 2160.2 281.7 2023.4 257.9C2012.6 256.2 1956.9 355.9 1950.4 380.1C1943.9 404.3 2111 480.7 2276 422.8C2405.5 377.4 2416.8 321.8 2416.8 321.8C2416.8 321.8 2420.7 277.8 2414.6 256.6C2401.2 210 2355 160.3 2342.5 160.3C2340.3 159.9 2339.4 160.7 2339 162.9Z" fill="url(#paint0_linear)"/>
<path d="M2740.5 1853.8C2706.8 1918.1 2638.2 1965.2 2601.9 1979C2660.7 1994.6 2721.1 2005.3 2782.4 2010.5V2009.6C2860.3 2018.7 2930.9 1963 2940 1885.1C2942.1 1867.2 2940.8 1849.1 2936.1 1831.7C2925.3 1792 2895.5 1757.9 2862.2 1740.1C2830.7 1715.9 2804.4 1691.3 2774.6 1663.2C2777.7 1681.5 2787.6 1764 2740.5 1853.8ZM2295.8 1845.2C2348.6 1878.6 2404 1907.4 2461.6 1931.6C2484.5 1922.1 2548 1883.7 2620.5 1761.9C2687.8 1649.2 2667.1 1546.9 2667.1 1546.9C2623.5 1492.5 2584.2 1434.7 2549.7 1374.2C2564.8 1487.2 2432.7 1738.1 2295.8 1845.2ZM1826.8 1206.1C1886.2 1429.6 2015.4 1628.2 2195.6 1773.1C2398.1 1637.5 2494.4 1341.7 2414.1 1042.1C2334.7 745.8 2108 539 1867.4 518.7C1783.2 730.3 1763.4 969.5 1826.8 1206.1ZM2016.8 257.4C1980.6 304.7 1948.1 354.8 1919.7 407.2C2088.5 433.5 2317.8 577.4 2365.8 687C2365.3 618.2 2370.4 549.5 2380.9 481.5C2363.6 439.2 2306.6 367.5 2246.2 327.8C2153.4 266.5 2077.4 256.1 2037.2 256.1C2028.9 256.6 2022 257 2016.8 257.4ZM2306.6 4C2295.9 7 2285.7 11.2 2275.9 16.5V16C2217.4 54.8 2162.8 99.4 2113.1 149C2147.2 140.4 2230.1 144.7 2294 185.7C2377.8 239.3 2409.3 308.3 2416.6 326.1C2430.1 280.5 2446.6 235.8 2465.8 192.2H2464.9C2478.1 163.5 2480.8 131.1 2472.7 100.6C2457 41.6 2403.6 0.400001 2342.4 0.100001C2330.3 -0.399999 2318.3 0.900001 2306.6 4Z" fill="url(#paint1_linear)"/>
<path d="M2740.5 1853.8C2706.8 1918.1 2638.2 1965.2 2601.9 1979C2660.7 1994.6 2721.1 2005.3 2782.4 2010.5V2009.6C2860.3 2018.7 2930.9 1963 2940 1885.1C2942.1 1867.2 2940.8 1849.1 2936.1 1831.7C2925.3 1792 2895.5 1757.9 2862.2 1740.1C2830.7 1715.9 2804.4 1691.3 2774.6 1663.2C2777.7 1681.5 2787.6 1764 2740.5 1853.8ZM2295.8 1845.2C2348.6 1878.6 2404 1907.4 2461.6 1931.6C2484.5 1922.1 2548 1883.7 2620.5 1761.9C2687.8 1649.2 2667.1 1546.9 2667.1 1546.9C2623.5 1492.5 2584.2 1434.7 2549.7 1374.2C2564.8 1487.2 2432.7 1738.1 2295.8 1845.2ZM1826.8 1206.1C1886.2 1429.6 2015.4 1628.2 2195.6 1773.1C2398.1 1637.5 2494.4 1341.7 2414.1 1042.1C2334.7 745.8 2108 539 1867.4 518.7C1783.2 730.3 1763.4 969.5 1826.8 1206.1ZM2016.8 257.4C1980.6 304.7 1948.1 354.8 1919.7 407.2C2088.5 433.5 2317.8 577.4 2365.8 687C2365.3 618.2 2370.4 549.5 2380.9 481.5C2363.6 439.2 2306.6 367.5 2246.2 327.8C2153.4 266.5 2077.4 256.1 2037.2 256.1C2028.9 256.6 2022 257 2016.8 257.4ZM2306.6 4C2295.9 7 2285.7 11.2 2275.9 16.5V16C2217.4 54.8 2162.8 99.4 2113.1 149C2147.2 140.4 2230.1 144.7 2294 185.7C2377.8 239.3 2409.3 308.3 2416.6 326.1C2430.1 280.5 2446.6 235.8 2465.8 192.2H2464.9C2478.1 163.5 2480.8 131.1 2472.7 100.6C2457 41.6 2403.6 0.400001 2342.4 0.100001C2330.3 -0.399999 2318.3 0.900001 2306.6 4Z" fill="url(#paint2_linear)" fill-opacity="0.1"/>
<path d="M223.1 1598.4C232.6 1611.2 245 1621.5 260.3 1629.2C275.6 1636.9 292.6 1640.8 311.3 1640.8C327.7 1640.8 341.7 1638.4 353.2 1633.7C364.7 1628.9 374 1622.4 381.1 1614.2C388.2 1606 393.3 1596.4 396.4 1585.3C399.5 1574.3 401.1 1562.5 401.1 1550V1508.6H400.1C389.6 1524.4 376.8 1535.6 361.6 1542.1C346.5 1548.7 330.5 1552 313.8 1552C297 1552 281.3 1549 266.7 1543.1C252.1 1537.2 239.3 1529 228.5 1518.7C217.7 1508.3 209.1 1495.9 202.9 1481.5C196.7 1467 193.5 1451.4 193.5 1434.6C193.5 1417.8 196.5 1402.2 202.4 1387.8C208.3 1373.3 216.5 1360.7 226.8 1349.8C237.2 1338.9 249.5 1330.5 263.8 1324.4C278.1 1318.3 293.8 1315.3 310.9 1315.3C317.8 1315.3 325.1 1316 332.8 1317.3C340.5 1318.6 348.2 1320.9 356 1324.2C363.7 1327.5 371.4 1332 378.9 1337.8C386.5 1343.6 393.5 1350.9 400.1 1359.7H401.1V1321.2H433.6V1550C433.6 1562.5 432 1575.8 428.9 1589.9C425.8 1604 419.7 1617 410.7 1628.9C401.6 1640.7 389.1 1650.6 373 1658.5C356.9 1666.4 335.8 1670.3 309.9 1670.3C286.9 1670.3 266.3 1666.5 248.3 1659C230.2 1651.4 213.8 1639.8 199 1624L223.1 1598.4ZM229 1433.6C229 1445.8 231.2 1457.2 235.7 1467.9C240.1 1478.6 246.2 1488 254 1496C261.7 1504.1 270.8 1510.5 281.1 1515.2C291.5 1520 302.7 1522.3 314.9 1522.3C326.7 1522.3 338 1520.2 348.7 1515.9C359.4 1511.6 368.8 1505.6 377.1 1497.9C385.3 1490.2 391.6 1480.9 396.1 1470C400.5 1459.2 402.6 1447 402.3 1433.5C402.3 1421.3 400.3 1409.9 396.4 1399.2C392.5 1388.5 386.7 1379.1 379.1 1371.1C371.5 1363.1 362.3 1356.6 351.5 1351.9C340.7 1347.1 328.5 1344.8 315 1344.8C302.8 1344.8 291.6 1347.2 281.2 1351.9C270.8 1356.7 261.8 1363.1 254.1 1371.1C246.4 1379.2 240.3 1388.5 235.8 1399.2C231.2 1410.1 229 1421.5 229 1433.6Z" fill="black"/>
<path d="M549.5 1393.2C549.5 1383 549.2 1372.7 548.8 1362.1C548.3 1351.6 547.9 1337.9 547.6 1321.2H579.7V1364.1H580.7C583 1357.9 586.3 1351.9 590.6 1346.1C594.9 1340.4 600.1 1335.2 606.1 1330.6C612.2 1326 619.2 1322.3 627.3 1319.5C635.4 1316.7 644.5 1315.3 654.7 1315.3C663.9 1315.3 672 1316.3 678.9 1318.3L672.5 1350.4C668.2 1348.8 662 1347.9 653.8 1347.9C641.3 1347.9 630.6 1350.3 621.7 1355C612.8 1359.8 605.4 1365.9 599.5 1373.3C593.6 1380.7 589.2 1388.7 586.4 1397.2C583.6 1405.7 582.2 1414 582.2 1421.9V1552H549.7V1393.2H549.5Z" fill="black"/>
<path d="M973.6 1436.6C973.6 1454 970.6 1470.1 964.5 1484.9C958.4 1499.7 950 1512.5 939.1 1523.4C928.2 1534.3 915.3 1542.7 900.4 1548.8C885.4 1554.9 868.9 1557.9 850.8 1557.9C833 1557.9 816.7 1554.9 801.7 1548.8C786.7 1542.7 773.8 1534.3 763 1523.4C752.2 1512.5 743.7 1499.7 737.6 1484.9C731.5 1470.1 728.5 1454 728.5 1436.6C728.5 1419.2 731.5 1403.1 737.6 1388.3C743.7 1373.5 752.1 1360.7 763 1349.8C773.9 1338.9 786.7 1330.5 801.7 1324.4C816.7 1318.3 833 1315.3 850.8 1315.3C868.9 1315.3 885.4 1318.3 900.4 1324.4C915.4 1330.5 928.3 1338.9 939.1 1349.8C950 1360.6 958.4 1373.5 964.5 1388.3C970.6 1403.1 973.6 1419.2 973.6 1436.6ZM938.1 1436.6C938.1 1423.8 936 1411.8 931.9 1400.6C927.8 1389.4 921.9 1379.7 914.4 1371.5C906.8 1363.3 897.7 1356.8 887 1352C876.3 1347.2 864.2 1344.9 850.7 1344.9C837.2 1344.9 825.1 1347.3 814.5 1352C803.8 1356.8 794.8 1363.3 787.4 1371.5C780 1379.7 774.2 1389.4 770.1 1400.6C766 1411.8 763.9 1423.8 763.9 1436.6C763.9 1449.4 766 1461.4 770.1 1472.6C774.2 1483.8 780 1493.5 787.4 1501.7C794.8 1509.9 803.8 1516.4 814.5 1521.2C825.2 1526 837.3 1528.4 850.7 1528.4C864.2 1528.4 876.3 1526 887 1521.2C897.7 1516.4 906.8 1509.9 914.4 1501.7C922 1493.5 927.8 1483.8 931.9 1472.6C936.1 1461.4 938.1 1449.4 938.1 1436.6Z" fill="black"/>
<path d="M1238.9 1552C1238.2 1545.8 1237.8 1539.6 1237.7 1533.5C1237.5 1527.4 1237.4 1521.3 1237.4 1515H1236.4C1232.8 1521.2 1228.2 1527 1222.6 1532.3C1217 1537.6 1210.8 1542.1 1203.9 1545.9C1197 1549.7 1189.7 1552.6 1182 1554.8C1174.3 1556.9 1166.6 1558 1159.1 1558C1129.5 1558 1107.6 1550.2 1093.5 1534.6C1079.4 1519 1072.3 1496.7 1072.3 1467.8V1321.3H1104.8V1449C1104.8 1461.8 1105.8 1473.2 1107.8 1483C1109.8 1492.9 1113.1 1501.2 1117.9 1507.9C1122.7 1514.6 1129.1 1519.7 1137.1 1523.2C1145.1 1526.7 1155.3 1528.4 1167.4 1528.4C1169 1528.4 1173.6 1527.7 1181.2 1526.4C1188.8 1525.1 1196.7 1521.5 1205.1 1515.5C1213.5 1509.6 1221 1500.7 1227.5 1488.9C1234.1 1477.1 1237.4 1460.6 1237.4 1439.6V1321.2H1269.9V1501.2C1269.9 1507.4 1270.2 1515.3 1270.6 1524.9C1271.1 1534.4 1271.7 1543.5 1272.3 1552H1238.9Z" fill="black"/>
<path d="M1385.9 1321.2H1418.4V1359.7H1419.4C1424.7 1351.8 1430.9 1345.1 1438.1 1339.5C1445.3 1333.9 1452.9 1329.3 1460.8 1325.7C1468.7 1322.1 1476.8 1319.5 1485.2 1317.8C1493.6 1316.2 1501.5 1315.3 1509.1 1315.3C1527.2 1315.3 1543.7 1318.3 1558.7 1324.4C1573.7 1330.5 1586.6 1338.9 1597.4 1349.8C1608.3 1360.6 1616.7 1373.5 1622.8 1388.3C1628.9 1403.1 1631.9 1419.2 1631.9 1436.6C1631.9 1454 1628.9 1470.1 1622.8 1484.9C1616.7 1499.7 1608.3 1512.5 1597.4 1523.4C1586.5 1534.3 1573.6 1542.7 1558.7 1548.8C1543.7 1554.9 1527.2 1557.9 1509.1 1557.9C1501.5 1557.9 1493.6 1557.1 1485.2 1555.4C1476.8 1553.8 1468.7 1551.1 1460.8 1547.5C1452.9 1543.9 1445.3 1539.3 1438.1 1533.7C1430.9 1528.1 1424.6 1521.4 1419.4 1513.5H1418.4V1694H1385.9V1321.2ZM1596.5 1436.6C1596.5 1423.8 1594.4 1411.8 1590.3 1400.6C1586.2 1389.4 1580.3 1379.7 1572.8 1371.5C1565.2 1363.3 1556.1 1356.8 1545.4 1352C1534.7 1347.2 1522.6 1344.9 1509.2 1344.9C1495.7 1344.9 1483.4 1347.3 1472.2 1352C1461 1356.8 1451.3 1363.3 1443.1 1371.5C1434.9 1379.7 1428.5 1389.4 1423.9 1400.6C1419.3 1411.8 1417 1423.8 1417 1436.6C1417 1449.4 1419.3 1461.4 1423.9 1472.6C1428.5 1483.8 1434.9 1493.5 1443.1 1501.7C1451.3 1509.9 1461 1516.4 1472.2 1521.2C1483.4 1526 1495.7 1528.4 1509.2 1528.4C1522.7 1528.4 1534.8 1526 1545.4 1521.2C1556.1 1516.4 1565.2 1509.9 1572.8 1501.7C1580.4 1493.5 1586.2 1483.8 1590.3 1472.6C1594.4 1461.4 1596.5 1449.4 1596.5 1436.6Z" fill="black"/>
</g>
<defs>
<linearGradient id="paint0_linear" x1="2637.45" y1="827.5" x2="1969.93" y2="1007" gradientUnits="userSpaceOnUse">
<stop stop-color="#9D5D00"/>
<stop offset="1" stop-color="#E58035"/>
</linearGradient>
<linearGradient id="paint1_linear" x1="2483.88" y1="482.184" x2="1276.69" y2="2698.65" gradientUnits="userSpaceOnUse">
<stop stop-color="#FBBD47"/>
<stop offset="1" stop-color="#CE7014"/>
</linearGradient>
<linearGradient id="paint2_linear" x1="2365.21" y1="-0.00416565" x2="2365.21" y2="2010.57" gradientUnits="userSpaceOnUse">
<stop stop-color="white"/>
<stop offset="1" stop-color="white" stop-opacity="0"/>
</linearGradient>
<clipPath id="clip0">
<rect width="2941" height="2010.7" fill="white"/>
</clipPath>
</defs>
</svg>
