<svg xmlns="http://www.w3.org/2000/svg" xmlns:xlink="http://www.w3.org/1999/xlink" width="168.79100000000003" height="48" viewBox="0 0 168.79100000000003 48"><path fill="#FC3F1D" d="M22.12 41.00L29.26 41.00L29.26-0.00L18.87-0.00C8.43-0.00 2.94 5.37 2.94 13.27C2.94 19.59 5.95 23.30 11.32 27.14L2.00 41.00L9.73 41.00L20.11 25.48L16.51 23.07C12.15 20.12 10.02 17.82 10.02 12.86C10.02 8.49 13.09 5.54 18.93 5.54L22.12 5.54Z"/><path fill="#000" d="M115.87 39.00L115.87 33.27C113.69 34.75 110.03 36.05 106.61 36.05C101.47 36.05 99.53 33.63 99.23 28.67L116.16 28.67L116.16 24.95C116.16 14.63 111.62 10.73 104.60 10.73C96.04 10.73 91.97 17.28 91.97 26.25C91.97 36.58 97.05 41.59 106.02 41.59C110.50 41.59 113.80 40.41 115.87 39.00ZM159.76 41.59C163.01 41.59 165.31 41.00 167.02 39.76L167.02 34.04C165.25 35.28 163.13 36.05 160.18 36.05C155.16 36.05 153.10 32.15 153.10 26.02C153.10 19.59 155.63 16.28 160.24 16.28C162.95 16.28 165.61 17.23 167.02 18.11L167.02 12.15C165.55 11.32 162.95 10.73 159.47 10.73C150.50 10.73 145.84 17.17 145.84 26.19C145.84 36.11 150.38 41.59 159.76 41.59ZM51.56 11.32L51.56 23.07L42.18 23.07L42.18 11.32L35.16 11.32L35.16 41.00L42.18 41.00L42.18 28.61L51.56 28.61L51.56 41.00L58.58 41.00L58.58 11.32ZM90.26 35.46L87.14 35.46L87.14 11.32L66.66 11.32L66.66 13.86C66.66 21.12 66.19 30.50 63.71 35.46L61.53 35.46L61.53 47.79L68.02 47.79L68.02 41.00L83.77 41.00L83.77 47.79L90.26 47.79ZM138.29 41.00L146.25 41.00L134.98 25.25L144.90 11.32L137.82 11.32L127.90 25.25L127.90 11.32L120.88 11.32L120.88 41.00L127.90 41.00L127.90 26.66ZM104.48 16.28C107.96 16.28 109.02 19.17 109.02 22.89L109.02 23.48L99.23 23.48C99.41 18.76 101.12 16.28 104.48 16.28ZM80.11 35.46L70.20 35.46C72.15 30.97 72.68 22.89 72.68 17.76L72.68 16.87L80.11 16.87Z"/></svg>