<svg width="130" height="26" viewBox="0 0 130 26" fill="none" xmlns="http://www.w3.org/2000/svg">
<path fill-rule="evenodd" clip-rule="evenodd" d="M15.615 16.9937L12.0217 9.06854H11.9153L8.38588 16.9937L6.62252 20.9862L4.85916 24.8869C4.78307 25.1014 4.64127 25.2864 4.45395 25.4157C4.26663 25.545 4.04331 25.6119 3.81578 25.6069H0.686971C0.573289 25.6163 0.45918 25.5948 0.356646 25.5448C0.254112 25.4949 0.16694 25.4182 0.104296 25.3229C0.041652 25.2275 0.00585148 25.1171 0.000658343 25.0031C-0.0045348 24.8892 0.0210714 24.7759 0.0747846 24.6753L11.2632 0.430052C11.3128 0.309642 11.3977 0.20707 11.5067 0.135813C11.6158 0.0645556 11.7438 0.0279483 11.874 0.0308007H12.2333C12.3647 0.0228878 12.4951 0.0574268 12.6054 0.129319C12.7156 0.201211 12.7998 0.306645 12.8455 0.430052L23.9248 24.6713C23.9785 24.7719 24.0041 24.8852 23.9989 24.9991C23.9937 25.1131 23.9579 25.2235 23.8953 25.3189C23.8326 25.4142 23.7454 25.4909 23.6429 25.5409C23.5404 25.5908 23.4263 25.6123 23.3126 25.6029H20.1838C19.9547 25.6155 19.7279 25.5516 19.539 25.4212C19.3502 25.2909 19.21 25.1016 19.1404 24.8829L17.3784 20.9929M121.611 17.0003L118.018 9.07519H117.906L114.381 16.9937L112.617 20.9862L110.855 24.8763C110.779 25.0906 110.636 25.2755 110.449 25.4047C110.262 25.5339 110.038 25.6009 109.811 25.5962H106.683C106.57 25.6052 106.456 25.5834 106.353 25.5333C106.251 25.4832 106.164 25.4066 106.102 25.3114C106.039 25.2162 106.003 25.106 105.998 24.9922C105.992 24.8785 106.018 24.7653 106.071 24.6647L117.259 0.430052C117.309 0.309533 117.394 0.206856 117.503 0.135575C117.612 0.0642949 117.74 0.0277628 117.87 0.0308007H118.229C118.361 0.0226727 118.491 0.0571248 118.602 0.129045C118.712 0.200966 118.796 0.306522 118.842 0.430052L129.926 24.6713C129.979 24.772 130.005 24.8851 129.999 24.9989C129.994 25.1127 129.958 25.2229 129.895 25.3181C129.833 25.4132 129.746 25.4899 129.644 25.54C129.541 25.5901 129.428 25.6118 129.314 25.6029H126.185C125.956 25.6157 125.729 25.5519 125.54 25.4215C125.351 25.2912 125.211 25.1017 125.142 24.8829L123.378 20.9929M22.1641 1.3297C22.1108 1.22902 22.0856 1.11589 22.091 1.00212C22.0964 0.888355 22.1322 0.778126 22.1948 0.682943C22.2573 0.587761 22.3443 0.511117 22.4466 0.461014C22.5489 0.410912 22.6627 0.389188 22.7763 0.398113H26.4454C26.575 0.39792 26.7019 0.435603 26.8104 0.506531C26.9189 0.57746 27.0044 0.678544 27.0562 0.797364L33.9633 16.2857H34.2148L41.1219 0.797364C41.1737 0.678544 41.2592 0.57746 41.3677 0.506531C41.4762 0.435603 41.6031 0.39792 41.7327 0.398113H45.4019C45.5154 0.389188 45.6293 0.410912 45.7316 0.461014C45.8338 0.511117 45.9208 0.587761 45.9833 0.682943C46.0459 0.778126 46.0817 0.888355 46.0871 1.00212C46.0925 1.11589 46.0673 1.22902 46.0141 1.3297L34.8629 25.571C34.8128 25.6913 34.7275 25.7937 34.6184 25.8649C34.5092 25.9361 34.3811 25.9728 34.2508 25.9702H33.8914C33.7613 25.9727 33.6334 25.9359 33.5245 25.8647C33.4155 25.7935 33.3305 25.6911 33.2806 25.571L22.1641 1.3297ZM51.8325 1.07817C51.8381 0.898769 51.9118 0.728236 52.0386 0.601193C52.1654 0.474149 52.3358 0.400115 52.5152 0.39412H55.8609C56.0402 0.400428 56.2104 0.474562 56.3372 0.60154C56.4639 0.728518 56.5377 0.898871 56.5437 1.07817V24.9228C56.5377 25.1021 56.4639 25.2725 56.3372 25.3995C56.2104 25.5264 56.0402 25.6006 55.8609 25.6069H52.5152C52.3359 25.6006 52.1657 25.5264 52.039 25.3995C51.9123 25.2725 51.8385 25.1021 51.8325 24.9228V1.07817ZM61.5649 24.2734L72.2848 4.89635V4.74996H63.2924C63.1127 4.7443 62.942 4.67041 62.8149 4.54333C62.6879 4.41625 62.614 4.24553 62.6083 4.06591V1.07817C62.614 0.898546 62.6879 0.727827 62.8149 0.600749C62.942 0.473672 63.1127 0.399784 63.2924 0.39412H78.3308C78.5104 0.400098 78.6809 0.474087 78.8079 0.601098C78.9349 0.72811 79.0089 0.898649 79.0149 1.07817V1.54663L68.4414 21.1765V21.2524H77.6149C77.7048 21.2524 77.7939 21.2701 77.8769 21.3046C77.96 21.339 78.0355 21.3895 78.099 21.4532C78.1626 21.5169 78.2129 21.5924 78.2472 21.6756C78.2815 21.7587 78.2991 21.8478 78.2989 21.9378V24.9268C78.2989 25.1083 78.2268 25.2822 78.0986 25.4105C77.9703 25.5388 77.7963 25.6109 77.6149 25.6109H62.249C62.0695 25.6049 61.8989 25.5309 61.7719 25.4039C61.6449 25.2769 61.5709 25.1064 61.5649 24.9268V24.2734ZM83.8352 1.3297C83.782 1.22912 83.7568 1.11613 83.7622 1.00249C83.7675 0.888846 83.8032 0.778719 83.8656 0.683582C83.928 0.588444 84.0148 0.511777 84.1169 0.461568C84.2189 0.411359 84.3326 0.389447 84.4461 0.398113H88.1152C88.2451 0.39766 88.3722 0.435221 88.481 0.506166C88.5898 0.57711 88.6754 0.678336 88.7274 0.797364L95.6331 16.2857H95.8846L102.792 0.797364C102.844 0.678336 102.929 0.57711 103.038 0.506166C103.147 0.435221 103.274 0.39766 103.404 0.398113H107.072C107.185 0.389188 107.299 0.410912 107.401 0.461014C107.504 0.511117 107.591 0.587761 107.653 0.682943C107.716 0.778126 107.752 0.888355 107.757 1.00212C107.762 1.11589 107.737 1.22902 107.684 1.3297L96.5328 25.571C96.4829 25.6913 96.398 25.7937 96.289 25.865C96.18 25.9362 96.0521 25.9729 95.9219 25.9702H95.5626C95.4324 25.9729 95.3044 25.9362 95.1955 25.865C95.0865 25.7937 95.0015 25.6913 94.9517 25.571L83.8352 1.3297Z" fill="#BD2340"/>
</svg>
