<svg width="108" height="24" viewBox="0 0 108 24" fill="none" xmlns="http://www.w3.org/2000/svg">
<path d="M0 24V0H24V24H11V19H19V5H5V24H0Z" fill="url(#paint0_linear_400_1576)"/>
<path d="M42.3912 4.51758C43.5587 4.51758 44.605 4.77467 45.5299 5.28885C46.4548 5.80303 47.1751 6.52137 47.6906 7.44386C48.2213 8.36636 48.4866 9.43255 48.4866 10.6424C48.4866 11.8522 48.2213 12.9259 47.6906 13.8636C47.1751 14.7861 46.4548 15.5044 45.5299 16.0186C44.605 16.5328 43.5587 16.7899 42.3912 16.7899C41.5269 16.7899 40.7309 16.6235 40.003 16.2908C39.2904 15.9581 38.6838 15.4742 38.1835 14.839V21.9997H36V4.631H38.0925V6.53649C38.5777 5.87108 39.1918 5.37202 39.9348 5.03932C40.6778 4.69149 41.4966 4.51758 42.3912 4.51758ZM42.2092 14.8843C42.9825 14.8843 43.6724 14.7104 44.2789 14.3626C44.9006 13.9997 45.3858 13.5006 45.7346 12.8654C46.0985 12.2152 46.2805 11.4742 46.2805 10.6424C46.2805 9.8106 46.0985 9.07714 45.7346 8.442C45.3858 7.79168 44.9006 7.29263 44.2789 6.94481C43.6724 6.59699 42.9825 6.42307 42.2092 6.42307C41.4511 6.42307 40.7611 6.60454 40.1395 6.96749C39.533 7.31531 39.0478 7.80682 38.6838 8.442C38.3351 9.07714 38.1607 9.8106 38.1607 10.6424C38.1607 11.4742 38.3351 12.2152 38.6838 12.8654C39.0326 13.5006 39.5178 13.9997 40.1395 14.3626C40.7611 14.7104 41.4511 14.8843 42.2092 14.8843Z" fill="#18181C"/>
<path d="M53.5938 6.6499C53.9729 5.95426 54.5341 5.42496 55.2769 5.062C56.0198 4.69905 56.922 4.51758 57.9836 4.51758V6.62722C57.8623 6.61208 57.6952 6.60454 57.4832 6.60454C56.3004 6.60454 55.3678 6.95995 54.6853 7.67072C54.0183 8.36636 53.6846 9.36446 53.6846 10.6651V16.6537H51.5015V4.631H53.5938V6.6499Z" fill="#18181C"/>
<path d="M65.729 16.7899C64.5312 16.7899 63.4546 16.5252 62.4993 15.9959C61.5439 15.4666 60.7934 14.7407 60.2476 13.8182C59.7168 12.8806 59.4517 11.822 59.4517 10.6424C59.4517 9.46278 59.7168 8.41173 60.2476 7.48922C60.7934 6.55163 61.5439 5.82571 62.4993 5.31153C63.4546 4.78223 64.5312 4.51758 65.729 4.51758C66.9268 4.51758 67.9956 4.78223 68.936 5.31153C69.8909 5.82571 70.6342 6.55163 71.1649 7.48922C71.7107 8.41173 71.9836 9.46278 71.9836 10.6424C71.9836 11.822 71.7107 12.8806 71.1649 13.8182C70.6342 14.7407 69.8909 15.4666 68.936 15.9959C67.9956 16.5252 66.9268 16.7899 65.729 16.7899ZM65.729 14.8843C66.5022 14.8843 67.192 14.7104 67.7986 14.3626C68.4202 13.9997 68.9056 13.5006 69.2543 12.8654C69.603 12.2152 69.7773 11.4742 69.7773 10.6424C69.7773 9.8106 69.603 9.07714 69.2543 8.442C68.9056 7.79168 68.4202 7.29263 67.7986 6.94481C67.192 6.59699 66.5022 6.42307 65.729 6.42307C64.9557 6.42307 64.2583 6.59699 63.6362 6.94481C63.0301 7.29263 62.5447 7.79168 62.1805 8.442C61.8318 9.07714 61.6575 9.8106 61.6575 10.6424C61.6575 11.4742 61.8318 12.2152 62.1805 12.8654C62.5447 13.5006 63.0301 13.9997 63.6362 14.3626C64.2583 14.7104 64.9557 14.8843 65.729 14.8843Z" fill="#18181C"/>
<path d="M82.2902 16.6536L78.8103 12.0487L75.2851 16.6536H72.8513L77.6048 10.5061L73.0788 4.63086H75.5121L78.8331 8.96359L82.1309 4.63086H84.5192L79.97 10.5061L84.7694 16.6536H82.2902Z" fill="#18181C"/>
<path d="M97.6463 10.7104C97.6463 10.8768 97.6313 11.0961 97.6009 11.3683H87.821C87.9572 12.4269 88.4199 13.2813 89.2086 13.9316C90.0118 14.5668 91.0053 14.8843 92.1877 14.8843C93.6284 14.8843 94.7885 14.4004 95.6676 13.4326L96.8731 14.839C96.3273 15.4742 95.6448 15.9581 94.8262 16.2908C94.0225 16.6235 93.1203 16.7899 92.1196 16.7899C90.8459 16.7899 89.7162 16.5328 88.7309 16.0186C87.7452 15.4893 86.9796 14.7558 86.4334 13.8182C85.9031 12.8806 85.6375 11.822 85.6375 10.6424C85.6375 9.47791 85.8953 8.42686 86.4107 7.48922C86.9415 6.55163 87.6616 5.82571 88.5716 5.31153C89.4965 4.78223 90.5354 4.51758 91.6873 4.51758C92.8397 4.51758 93.8636 4.78223 94.7581 5.31153C95.6675 5.82571 96.3727 6.55163 96.8731 7.48922C97.3889 8.42686 97.6463 9.5006 97.6463 10.7104ZM91.6873 6.35501C90.6411 6.35501 89.7616 6.67258 89.0492 7.30777C88.3518 7.94291 87.9422 8.77468 87.821 9.80305H95.554C95.4328 8.78982 95.016 7.96559 94.3031 7.33045C93.6057 6.68017 92.7339 6.35501 91.6873 6.35501Z" fill="#18181C"/>
<path d="M106.272 16.5861C105.802 16.7222 105.317 16.7902 104.817 16.7902C103.604 16.7902 102.664 16.4651 101.996 15.8148C101.329 15.1645 100.996 14.2345 100.996 13.0246V6.42346H98.9487V4.63139H100.996L101.392 2H103.179V4.63139H106.272V6.42346H103.179V12.9339C103.179 13.5842 103.339 14.0832 103.657 14.4311C103.991 14.7789 104.461 14.9528 105.067 14.9528C105.497 14.9528 105.887 14.8742 106.235 14.7168C106.235 15.4113 106.235 15.8148 106.272 16.5861Z" fill="#18181C"/>
<defs>
<linearGradient id="paint0_linear_400_1576" x1="19" y1="19" x2="3.59948e-06" y2="5" gradientUnits="userSpaceOnUse">
<stop offset="1.24176e-09" stop-color="#7272B0"/>
<stop offset="1" stop-color="#D23947"/>
</linearGradient>
</defs>
</svg>
