<?xml version="1.0" encoding="UTF-8"?>
<svg id="Layer_1" data-name="Layer 1" xmlns="http://www.w3.org/2000/svg" xmlns:v="https://vecta.io/nano" version="1.1" viewBox="0 0 133.8 28">
  <defs>
    <style>
      .cls-1 {
        fill: #000;
        stroke-width: 0px;
      }
    </style>
  </defs>
  <path class="cls-1" d="M28.9,28h.2l9.5-23.7c.9-2.2,1.8-3.4,2.7-3.9V.1h-5.7v.2c1.2.7,1.5,2.5.7,4.5l-5.8,14.7L22.4,0h-.2l-8.4,19.4L7.7,4.1c-.7-1.8-.6-3.1.7-3.8V.1H0v.2c.9.4,1.6,1.5,2.4,3.4l10,24.3h.2l8.3-19.7,8.1,19.7ZM90.7,14.3v-7.6h8.1c3.7,0,5,.6,6.4,2.5h.2c0-.1-.4-4.4-.4-4.4h-20.2v.2c1.2.8,1.6,1.8,1.6,3.4v15.2c0,1.6-.3,2.7-1.6,3.4v.2h21.2l.8-4.6h-.2c-1.3,1.7-3,2.7-6.6,2.7h-9.2v-9.1h6.2c2.7,0,3.9.4,4.7,1.6h.2v-4.9h-.2c-.7,1.1-2,1.6-4.7,1.6h-6.2ZM117.7,27v.2h7.7v-.2c-1.2-.8-1.7-1.9-1.7-3.8v-5.3l6.8-9.7c1.2-1.8,2.2-2.9,3.1-3.2v-.2h-6v.2c1.1.7,1.2,2.1.1,3.8l-5,7.2-5.4-8.1c-.9-1.2-.7-2.4.3-2.9v-.2h-8.5v.2c1,.4,1.7,1,2.7,2.6l7.5,10.8v4.9c.1,1.9-.3,3-1.7,3.8ZM80.3,27.2l1.1-4.7h-.2c-1.3,1.9-3.4,2.8-6.3,2.8h-8.7V8.7c0-1.9.4-3,1.8-3.8v-.2h-7.7v.2c1.2.8,1.6,1.8,1.6,3.4v15.2c0,1.6-.3,2.7-1.6,3.4v.2h20ZM46.1,23.4c0,1.8-.3,2.9-1.7,3.6v.2h7.7v-.2c-1.2-.7-1.7-1.8-1.7-3.6v-14.9c0-1.7.3-2.8,1.7-3.6v-.2h-7.6v.2c1.2.8,1.7,1.9,1.7,3.6v14.9h-.1Z"/>
</svg>