<svg width="64" height="26" viewBox="0 0 64 26" fill="none" xmlns="http://www.w3.org/2000/svg">
    <path d="M43.016 10.0311C43.3025 10.0311 43.5348 10.2633 43.5348 10.5499V21.0431C43.5348 21.3296 43.3025 21.5619 43.016 21.5619H40.9652C40.6787 21.5619 40.4464 21.3296 40.4464 21.0431V10.5499C40.4464 10.2633 40.6787 10.0311 40.9652 10.0311H43.016ZM40.037 7.17254C40.037 6.65835 40.2154 6.21647 40.572 5.8469C40.9449 5.46125 41.3826 5.26843 41.8852 5.26843C42.4202 5.26843 42.8741 5.45322 43.247 5.82279C43.6361 6.19237 43.8306 6.64228 43.8306 7.17254C43.8306 7.73493 43.6442 8.19288 43.2713 8.54639C42.9147 8.89989 42.4526 9.07665 41.8852 9.07665C41.3502 9.07665 40.9044 8.89989 40.5477 8.54639C40.2073 8.17682 40.037 7.71887 40.037 7.17254Z" fill="#6D91DE"/>
    <path d="M49.1133 5.26844C49.3998 5.26844 49.6321 5.50072 49.6321 5.78725V21.0431C49.6321 21.3296 49.3998 21.5619 49.1133 21.5619H47.0869C46.8003 21.5619 46.568 21.3296 46.568 21.0431V5.78725C46.568 5.50072 46.8003 5.26844 47.0869 5.26844H49.1133Z" fill="#6D91DE"/>
    <path d="M63.1626 16.2707C63.1626 16.5573 62.9303 16.7896 62.6438 16.7896H56.1418C55.8374 16.7896 55.5934 17.053 55.675 17.3463C55.8138 17.8449 56.0806 18.278 56.4752 18.6455C57.0264 19.1275 57.6749 19.3685 58.4207 19.3685C59.3244 19.3685 60.264 19.1321 61.2393 18.6594C61.5082 18.529 61.8374 18.6316 61.9671 18.9008L62.3353 19.6649C62.4362 19.8744 62.3867 20.1275 62.2027 20.2699C61.0892 21.1312 59.7312 21.5619 58.1288 21.5619C56.2483 21.5619 54.7811 21.0316 53.7273 19.9711C52.7222 18.9749 52.2196 17.601 52.2196 15.8496C52.2196 14.1302 52.787 12.7082 53.9219 11.5834C54.9432 10.555 56.2402 10.0408 57.8127 10.0408C59.5636 10.0408 60.9254 10.6273 61.8981 11.8003C62.7411 12.7966 63.1626 14.0901 63.1626 15.6808V16.2707ZM55.5055 13.976C55.4314 14.2767 55.6765 14.548 55.9861 14.548H59.5524C59.8494 14.548 60.0907 14.2977 60.0379 14.0054C59.8188 12.7924 59.0689 12.186 57.7884 12.186C56.5606 12.186 55.7996 12.7826 55.5055 13.976Z" fill="#6D91DE"/>
    <g clip-path="url(#clip0)">
        <path d="M21.7948 25.7027H4.935C2.69635 25.4638 0.928135 23.6956 0.689209 21.4567V4.59713C0.928135 2.35848 2.69635 0.590274 4.935 0.351349H21.7946C24.0334 0.590274 25.8016 2.35848 26.0406 4.59713V21.4567C25.8016 23.6956 24.0336 25.4638 21.7948 25.7027Z" fill="#6D91DE"/>
        <path d="M19.4328 7.39316C17.8927 7.39316 16.8989 7.80832 16.2636 8.26236C15.9308 8.50019 15.3166 8.28354 15.3166 7.87452C15.3166 7.65076 15.1378 7.46803 14.9141 7.46322L12.1809 7.40455C11.8901 7.39831 11.651 7.63235 11.651 7.92324V18.7928C11.651 19.0753 11.877 19.3059 12.1595 19.3115L15.0894 19.3696C15.3799 19.3754 15.6185 19.1415 15.6185 18.8509V13.3985C15.6185 11.67 16.4142 10.3255 17.9233 10.3255C19.4323 10.3255 19.6793 11.9991 19.6793 14.0572V18.8613C19.6793 19.1478 19.9115 19.3801 20.1981 19.3801H23.0019C23.2884 19.3801 23.5207 19.1478 23.5207 18.8613V11.057C23.5207 8.93544 21.5544 7.39316 19.4328 7.39316Z" fill="white"/>
    </g>
    <path d="M33.9002 8.5169C33.9002 8.80343 34.1324 9.03571 34.419 9.03571H37.8743C38.1608 9.03571 38.3931 9.26799 38.3931 9.55452V10.8705C38.3931 11.157 38.1608 11.3893 37.8743 11.3893H34.419C34.1324 11.3893 33.9002 11.6215 33.9002 11.9081V16.7696C33.9002 17.724 34.0257 18.371 34.2767 18.7107C34.5277 19.0342 34.9795 19.196 35.6321 19.196C36.2118 19.196 36.7653 19.1243 37.2928 18.9811C37.6079 18.8955 37.9453 19.0824 38.0035 19.4038L38.236 20.6857C38.2827 20.9435 38.1303 21.197 37.8769 21.2635C36.9646 21.5027 35.9904 21.6223 34.9544 21.6223C33.4463 21.6223 32.4459 21.1349 31.7451 20.4915C31.716 20.4649 31.6904 20.4344 31.6689 20.4013C31.1287 19.5669 31.0145 18.8344 31.0145 17.3277V11.9081C31.0145 11.6215 30.7823 11.3893 30.4957 11.3893H28.8225C28.536 11.3893 28.3037 11.157 28.3037 10.8705V9.55452C28.3037 9.26799 28.536 9.03571 28.8225 9.03571H30.4957C30.7823 9.03571 31.0145 8.80343 31.0145 8.5169V5.39717C31.0145 5.11064 31.2468 4.87836 31.5334 4.87836H33.3813C33.6679 4.87836 33.9002 5.11064 33.9002 5.39717V8.5169Z" fill="#6D91DE"/>
    <defs>
        <clipPath id="clip0">
            <rect width="25.3514" height="25.3514" fill="white" transform="translate(0.689209 0.351349)"/>
        </clipPath>
    </defs>
</svg>