<svg width="144" height="24" viewBox="0 0 144 24" fill="none" xmlns="http://www.w3.org/2000/svg">
<g clip-path="url(#clip0_2971_15551)">
<path d="M20.0517 0.0322266C22.6523 0.0322266 24.7536 2.13207 24.7536 4.73089V6.75451C24.7536 9.35333 22.6523 11.4532 20.0517 11.4532H0.786133V4.73089C0.786133 2.13207 2.88746 0.0322266 5.4881 0.0322266H20.0517Z" fill="#023DFF"/>
<path d="M20.0517 23.9912C22.6523 23.9912 24.7536 21.8914 24.7536 19.2926V17.269C24.7536 14.6702 22.6523 12.5703 20.0517 12.5703H0.786133V19.2926C0.786133 21.8914 2.88746 23.9912 5.4881 23.9912H20.0517Z" fill="#00BB00"/>
<path d="M32.9558 17.026H36.2569C37.0404 17.026 37.6509 16.8319 38.0738 16.4369C38.5039 16.0488 38.7188 15.5291 38.7188 14.8776C38.7188 14.2262 38.5039 13.7134 38.0738 13.3114C37.6439 12.9095 37.0404 12.7085 36.2569 12.7085H32.9558V17.0191V17.026ZM32.9558 10.6363H35.5634C36.2221 10.6363 36.7492 10.4492 37.1445 10.0681C37.5328 9.68691 37.7339 9.20873 37.7339 8.61967C37.7339 8.03061 37.5398 7.58013 37.1445 7.19205C36.7492 6.80395 36.2221 6.60299 35.5634 6.60299H32.9558V10.6433V10.6363ZM30.5146 19.2783V4.34375H35.7297C37.0474 4.34375 38.1154 4.73877 38.9268 5.52187C39.7381 6.30499 40.1474 7.28215 40.1474 8.44641C40.1474 9.67999 39.6897 10.6502 38.7812 11.3501C40.3694 12.0362 41.1599 13.249 41.1599 14.9885C41.1599 16.2775 40.7022 17.3171 39.7797 18.1002C38.8643 18.8833 37.6785 19.2783 36.2361 19.2783H30.5146Z" fill="black"/>
<path d="M47.2838 10.567C46.6665 10.567 46.0839 10.7541 45.5361 11.1214C44.9882 11.4956 44.6415 12.057 44.482 12.8124H50.0785C49.9677 12.0847 49.6554 11.5234 49.1423 11.1422C48.6291 10.7541 48.0119 10.567 47.2768 10.567H47.2838ZM47.4709 19.4376C45.966 19.4376 44.697 18.9179 43.6498 17.8783C42.6025 16.8388 42.0825 15.5498 42.0825 14.0113C42.0825 12.4728 42.5957 11.1768 43.615 10.1443C44.6345 9.10472 45.9106 8.58496 47.4225 8.58496C48.9343 8.58496 50.2589 9.13244 51.2089 10.2274C52.159 11.3224 52.5959 12.7431 52.5128 14.4964H44.3917C44.475 15.335 44.8148 16.0141 45.4113 16.5269C46.0077 17.0398 46.6942 17.2962 47.4641 17.2962C48.6291 17.2962 49.5516 16.8665 50.238 16.0141L51.9024 17.4417C50.8483 18.7723 49.3712 19.4376 47.4641 19.4376H47.4709Z" fill="black"/>
<path d="M53.9966 19.2705V8.76439H56.313V9.88015C56.9856 9.05545 57.8941 8.63965 59.0245 8.63965C59.3921 8.63965 59.6833 8.67429 59.9053 8.74359V11.1414C59.5863 11.0028 59.1772 10.9335 58.6846 10.9335C57.5891 10.9335 56.7983 11.3701 56.306 12.2364V19.2775H53.9897L53.9966 19.2705Z" fill="black"/>
<path d="M65.3147 10.567C64.6975 10.567 64.1149 10.7541 63.5671 11.1214C63.0191 11.4956 62.6725 12.057 62.513 12.8124H68.1095C67.9984 12.0847 67.6864 11.5234 67.1732 11.1422C66.6601 10.7541 66.0428 10.567 65.3147 10.567ZM65.5019 19.4376C63.997 19.4376 62.7279 18.9179 61.6806 17.8783C60.6334 16.8388 60.1133 15.5498 60.1133 14.0113C60.1133 12.4728 60.6266 11.1768 61.646 10.1443C62.6655 9.11166 63.9416 8.58496 65.4534 8.58496C66.9651 8.58496 68.2898 9.13244 69.2399 10.2274C70.1899 11.3224 70.6269 12.7431 70.5436 14.4964H62.4227C62.506 15.335 62.8458 16.0141 63.4422 16.5269C64.0386 17.0398 64.7251 17.2962 65.4949 17.2962C66.6601 17.2962 67.5823 16.8665 68.269 16.0141L69.9334 17.4417C68.8792 18.7723 67.402 19.4376 65.4949 19.4376H65.5019Z" fill="black"/>
<path d="M72.0208 19.2714V4.34375H74.3372V13.554L78.5467 8.76521H81.3831L76.9864 13.7203L81.9103 19.2714H78.9836L74.3372 14.0183V19.2714H72.0208Z" fill="black"/>
<path d="M86.3695 10.567C85.7522 10.567 85.1696 10.7541 84.6218 11.1214C84.0739 11.4956 83.7272 12.057 83.5677 12.8124H89.1642C89.0533 12.0847 88.7411 11.5233 88.228 11.1422C87.7148 10.7541 87.0976 10.567 86.3625 10.567H86.3695ZM86.5566 19.4376C85.0517 19.4376 83.7826 18.9179 82.7355 17.8783C81.6882 16.8388 81.1682 15.5498 81.1682 14.0113C81.1682 12.4728 81.6814 11.1768 82.7007 10.1442C83.7202 9.10472 84.9963 8.58496 86.5082 8.58496C88.02 8.58496 89.3446 9.13244 90.2946 10.2274C91.2447 11.3224 91.6816 12.7431 91.5985 14.4964H83.4774C83.5607 15.335 83.9005 16.0141 84.4969 16.5269C85.0934 17.0398 85.7799 17.2962 86.5498 17.2962C87.7148 17.2962 88.6373 16.8665 89.3237 16.0141L90.9881 17.4417C89.934 18.7723 88.4569 19.4376 86.5498 19.4376H86.5566Z" fill="black"/>
<path d="M99.861 17.0318H103.162C103.946 17.0318 104.556 16.8378 104.979 16.4428C105.409 16.0547 105.624 15.5349 105.624 14.8835C105.624 14.232 105.409 13.7192 104.979 13.3173C104.549 12.9153 103.946 12.7213 103.162 12.7213H99.861V17.0318ZM99.861 10.6422H102.469C103.127 10.6422 103.655 10.4551 104.05 10.0739C104.438 9.69279 104.639 9.21461 104.639 8.62553C104.639 8.03647 104.445 7.58601 104.05 7.19793C103.662 6.80983 103.127 6.60885 102.469 6.60885H99.861V10.6491V10.6422ZM97.4199 19.2842V4.34961H102.635C103.953 4.34961 105.021 4.74463 105.832 5.52775C106.643 6.31085 107.053 7.28801 107.053 8.45229C107.053 9.68585 106.595 10.6561 105.687 11.356C107.268 12.0421 108.065 13.2549 108.065 14.9944C108.065 16.2834 107.607 17.3229 106.685 18.106C105.77 18.8891 104.584 19.2842 103.141 19.2842H97.4199Z" fill="black"/>
<path d="M114.48 17.3028C115.659 17.3028 116.568 16.8385 117.213 15.9168V12.1537C116.582 11.2112 115.673 10.7469 114.48 10.7469C113.572 10.7469 112.816 11.0587 112.226 11.6825C111.637 12.3062 111.346 13.0893 111.346 14.0249C111.346 14.9604 111.644 15.7436 112.226 16.3673C112.816 16.991 113.565 17.3028 114.48 17.3028ZM117.213 19.2849V18.4047C116.429 19.1047 115.437 19.4581 114.244 19.4581C112.733 19.4581 111.471 18.9314 110.479 17.878C109.48 16.8247 108.988 15.5426 108.988 14.0318C108.988 12.521 109.487 11.2389 110.479 10.1855C111.477 9.13217 112.733 8.60547 114.244 8.60547C115.423 8.60547 116.408 8.96585 117.213 9.67965V8.77873H119.529V19.2918H117.213V19.2849Z" fill="black"/>
<path d="M121.741 19.2771V8.764H124.057V9.755C124.744 8.98576 125.736 8.59766 127.025 8.59766C128.315 8.59766 129.349 9.00654 130.119 9.8243C130.888 10.6421 131.277 11.7301 131.277 13.0746V19.2771H128.96V13.3448C128.96 12.5617 128.752 11.9311 128.343 11.4529C127.927 10.9747 127.338 10.7391 126.568 10.7391C125.361 10.7391 124.529 11.3143 124.064 12.4647V19.2771H121.748H121.741Z" fill="black"/>
<path d="M133.35 19.2772V4.34961H135.667V13.5598L139.876 8.76415H142.712L138.316 13.7262L143.239 19.2772H140.313L135.667 14.0242V19.2772H133.35Z" fill="black"/>
</g>
<defs>
<clipPath id="clip0_2971_15551">
<rect width="142.5" height="24" fill="white" transform="translate(0.75)"/>
</clipPath>
</defs>
</svg>
