<?xml version="1.0" encoding="UTF-8" standalone="no"?>
<!-- Created with Inkscape (http://www.inkscape.org/) -->

<svg
   width="223.73979mm"
   height="42.096973mm"
   viewBox="0 0 223.73979 42.096973"
   version="1.1"
   id="svg3221"
   inkscape:export-filename="Xceptance-transparent-2600x500.png"
   inkscape:export-xdpi="300"
   inkscape:export-ydpi="300"
   inkscape:version="1.2 (56b05e47e7, 2022-06-09, custom)"
   sodipodi:docname="xceptance-software-technologies.svg"
   xmlns:inkscape="http://www.inkscape.org/namespaces/inkscape"
   xmlns:sodipodi="http://sodipodi.sourceforge.net/DTD/sodipodi-0.dtd"
   xmlns="http://www.w3.org/2000/svg"
   xmlns:svg="http://www.w3.org/2000/svg">
  <sodipodi:namedview
     id="namedview3223"
     pagecolor="#ffffff"
     bordercolor="#666666"
     borderopacity="1.0"
     inkscape:showpageshadow="2"
     inkscape:pageopacity="0.0"
     inkscape:pagecheckerboard="0"
     inkscape:deskcolor="#d1d1d1"
     inkscape:document-units="mm"
     showgrid="false"
     inkscape:zoom="0.66279461"
     inkscape:cx="-55.824232"
     inkscape:cy="300.99822"
     inkscape:window-width="1703"
     inkscape:window-height="1008"
     inkscape:window-x="2154"
     inkscape:window-y="245"
     inkscape:window-maximized="0"
     inkscape:current-layer="layer1" />
  <defs
     id="defs3218" />
  <g
     inkscape:label="Layer 1"
     inkscape:groupmode="layer"
     id="layer1"
     transform="translate(18.552359,-69.848296)">
    <g
       transform="matrix(0.35277779,0,0,-0.35277779,-18.552359,111.94527)"
       inkscape:label="ink_ext_XXXXXX"
       id="g102379">
      <g
         transform="scale(0.1)"
         id="g102381">
        <path
           inkscape:connector-curvature="0"
           id="path102383"
           style="fill:#4f4c4c;fill-opacity:1;fill-rule:nonzero;stroke:none"
           d="m 1544.4,518.184 c 0,0 -152.54,-19.414 -237.58,-19.414 -246.08,0 -313.824,113.734 -313.824,347.222 0,252.928 89.894,347.308 313.824,347.308 92.44,0 238.84,-23.39 238.84,-23.39 l -4.92,-116.71 c 0,0 -155.1,11.66 -209.29,11.66 -116.92,0 -163.65,-42.77 -163.65,-218.868 0,-166.328 35.66,-218.847 168.61,-218.847 49.23,0 204.33,10.722 204.33,10.722 l 3.66,-119.683" />
        <path
           inkscape:connector-curvature="0"
           id="path102385"
           style="fill:#4f4c4c;fill-opacity:1;fill-rule:nonzero;stroke:none"
           d="m 1669.79,1181.62 h 526.83 v -123.5 H 1837.13 V 900.445 H 2122.7 V 780.816 H 1837.13 V 633.941 h 359.49 V 510.41 h -526.83 v 671.21" />
        <path
           inkscape:connector-curvature="0"
           id="path102387"
           style="fill:#4f4c4c;fill-opacity:1;fill-rule:nonzero;stroke:none"
           d="m 2975.72,1181.62 h 571.09 V 1052.2 H 3347.52 V 510.41 h -167.43 v 541.79 h -204.37 v 129.42" />
        <path
           inkscape:connector-curvature="0"
           id="path102389"
           style="fill:#4f4c4c;fill-opacity:1;fill-rule:nonzero;stroke:none"
           d="m 4338.85,1181.62 h 278.04 l 216.7,-531.136 h 13.45 v 531.136 h 169.93 V 510.41 h -270.73 l -224.06,531.11 h -13.52 V 510.41 h -169.81 v 671.21" />
        <path
           inkscape:connector-curvature="0"
           id="path102391"
           style="fill:#4f4c4c;fill-opacity:1;fill-rule:nonzero;stroke:none"
           d="m 5690.16,518.184 c 0,0 -152.63,-19.414 -237.6,-19.414 -246.18,0 -313.88,113.734 -313.88,347.222 0,252.928 89.89,347.308 313.88,347.308 92.37,0 238.79,-23.39 238.79,-23.39 l -4.96,-116.71 c 0,0 -154.99,11.66 -209.14,11.66 -116.96,0 -163.77,-42.77 -163.77,-218.868 0,-166.328 35.76,-218.847 168.68,-218.847 49.24,0 204.23,10.722 204.23,10.722 l 3.77,-119.683" />
        <path
           inkscape:connector-curvature="0"
           id="path102393"
           style="fill:#4f4c4c;fill-opacity:1;fill-rule:nonzero;stroke:none"
           d="m 5815.4,1181.62 h 526.83 v -123.5 h -359.4 V 900.445 h 285.54 V 780.816 H 5982.83 V 633.941 h 359.4 V 510.41 H 5815.4 v 671.21" />
        <path
           inkscape:connector-curvature="0"
           id="path102395"
           style="fill:#4f4c4c;fill-opacity:1;fill-rule:nonzero;stroke:none"
           d="m 2463.02,290.078 c 0,0 -44.2,5.313 -63.32,5.313 -33.3,0 -51.44,-14.278 -51.44,-40.821 0,-31.523 16.5,-39.511 56.71,-47.793 44.2,-9.629 64.63,-21.914 64.63,-60.41 0,-48.4568 -22.75,-69.7068 -70.9,-69.7068 -26.36,0 -68.93,5.6445 -68.93,5.6445 l 1.67,18.5933 c 0,0 43.52,-5.3121 66.26,-5.3121 33.99,0 51.47,15.6051 51.47,49.4731 0,26.543 -14.5,35.82 -52.76,43.457 -46.51,9.961 -68.61,22.226 -68.61,65.703 0,40.488 26.06,60.41 71.24,60.41 27.03,0 65.3,-6.289 65.3,-6.289 l -1.32,-18.262" />
        <path
           inkscape:connector-curvature="0"
           id="path102397"
           style="fill:#4f4c4c;fill-opacity:1;fill-rule:nonzero;stroke:none"
           d="m 2682.01,164.609 c 0,-56.074 -14.18,-88.6129 -66.94,-88.6129 -53.09,0 -67.93,29.5509 -67.93,88.9649 0,55.41 16.81,83.281 67.93,83.281 47.82,0 66.94,-28.867 66.94,-83.633 z m -20.44,0 c 0,44.161 -12.87,66.055 -46.5,66.055 -35.94,0 -47.81,-19.59 -47.81,-65.703 0,-47.148 7.91,-71.3672 47.81,-71.3672 39.9,0 46.5,26.8942 46.5,71.0152" />
        <path
           inkscape:connector-curvature="0"
           id="path102399"
           style="fill:#4f4c4c;fill-opacity:1;fill-rule:nonzero;stroke:none"
           d="m 2794.82,79.3164 h -19.46 V 227.676 h -21.09 v 17.597 h 21.09 v 16.915 c 0,44.472 12.52,60.078 43.21,60.078 11.53,0 29.34,-1.993 29.34,-1.993 V 303.34 c 0,0 -16.82,0.996 -26.39,0.996 -19.77,0 -26.7,-11.27 -26.7,-42.461 v -16.602 h 49.79 v -17.597 h -49.79 V 79.3164" />
        <path
           inkscape:connector-curvature="0"
           id="path102401"
           style="fill:#4f4c4c;fill-opacity:1;fill-rule:nonzero;stroke:none"
           d="m 2949.48,227.344 v -81.309 c 0,-38.828 3.97,-52.1092 26.08,-52.1092 9.21,0 27.67,1.6601 27.67,1.6601 l 1.34,-16.9336 c 0,0 -19.13,-2.9882 -30.67,-2.9882 -31.67,0 -44.19,15.6054 -44.19,60.0779 v 91.602 h -24.07 v 17.578 h 24.07 v 52.461 h 19.77 v -52.461 h 52.12 v -17.578 h -52.12" />
        <path
           inkscape:connector-curvature="0"
           id="path102403"
           style="fill:#4f4c4c;fill-opacity:1;fill-rule:nonzero;stroke:none"
           d="M 3089.68,245.273 3125.3,97.2461 h 7.56 l 39.91,144.7069 h 21.09 l 39.9,-144.7069 h 7.61 l 35.6,148.0269 h 20.12 L 3256.52,79.3164 h -37.25 L 3183,216.074 3146.4,79.3164 h -36.61 l -40.23,165.9566 h 20.12" />
        <path
           inkscape:connector-curvature="0"
           id="path102405"
           style="fill:#4f4c4c;fill-opacity:1;fill-rule:nonzero;stroke:none"
           d="m 3491.02,108.535 c 3.64,-9.9608 10.89,-13.6327 21.76,-14.9412 l -1.29,-17.2657 c -16.83,0 -27.71,3.9844 -36.28,13.3008 0,0 -28.02,-13.6328 -59.37,-13.6328 -26.39,0 -45.51,19.9219 -45.51,50.1169 0,29.883 17.16,45.801 49.14,49.121 l 51.79,4.981 v 15.273 c 0,24.219 -10.56,34.18 -31.01,34.18 -25.72,0 -60.67,-4.648 -60.67,-4.648 l -0.99,17.265 c 0,0 36.61,5.957 62.32,5.957 33.97,0 50.11,-16.582 50.11,-53.086 z m -69.25,51.094 c -21.76,-1.973 -31.31,-15.254 -31.31,-33.184 0,-18.593 11.22,-33.1833 27.37,-33.1833 28.03,0 53.43,11.2893 53.43,11.2893 v 59.414 l -49.49,-4.336" />
        <path
           inkscape:connector-curvature="0"
           id="path102407"
           style="fill:#4f4c4c;fill-opacity:1;fill-rule:nonzero;stroke:none"
           d="m 3594.62,245.273 h 19.78 v -23.574 c 0,0 26.38,20.254 57.71,26.875 V 228.34 c -29.34,-6.289 -57.71,-24.883 -57.71,-24.883 V 79.3164 h -19.78 V 245.273" />
        <path
           inkscape:connector-curvature="0"
           id="path102409"
           style="fill:#4f4c4c;fill-opacity:1;fill-rule:nonzero;stroke:none"
           d="m 3866.02,96.9141 0.67,-16.2696 c 0,0 -33.98,-4.6484 -60.36,-4.6484 -47.47,0 -63.63,33.5349 -63.63,85.6249 0,60.43 26.36,86.621 66.6,86.621 40.24,0 63.33,-23.867 63.33,-78.32 l -0.66,-15.918 h -109.15 c 0.32,-33.516 10.21,-60.0782 44.5,-60.0782 23.42,0 58.7,2.9883 58.7,2.9883 z m -13.18,73.3399 c 0,43.809 -14.84,60.762 -43.54,60.762 -27.36,0 -46.48,-17.598 -46.48,-60.762 h 90.02" />
        <path
           inkscape:connector-curvature="0"
           id="path102411"
           style="fill:#4f4c4c;fill-opacity:1;fill-rule:nonzero;stroke:none"
           d="m 4055.68,310.664 h 156.99 v -19.258 h -67.96 V 79.3164 h -20.09 V 291.406 h -68.94 v 19.258" />
        <path
           inkscape:connector-curvature="0"
           id="path102413"
           style="fill:#4f4c4c;fill-opacity:1;fill-rule:nonzero;stroke:none"
           d="m 4400.65,96.9141 0.66,-16.2696 c 0,0 -33.97,-4.6484 -60.35,-4.6484 -47.48,0 -63.66,33.5349 -63.66,85.6249 0,60.43 26.4,86.621 66.63,86.621 40.23,0 63.32,-23.867 63.32,-78.32 l -0.68,-15.918 h -109.13 c 0.31,-33.516 10.21,-60.0782 44.49,-60.0782 23.43,0 58.72,2.9883 58.72,2.9883 z m -13.2,73.3399 c 0,43.809 -14.84,60.762 -43.52,60.762 -27.38,0 -46.49,-17.598 -46.49,-60.762 h 90.01" />
        <path
           inkscape:connector-curvature="0"
           id="path102415"
           style="fill:#4f4c4c;fill-opacity:1;fill-rule:nonzero;stroke:none"
           d="m 4595.89,244.609 -1,-17.597 c 0,0 -23.39,3.32 -35.93,3.32 -38.27,0 -50.45,-20.254 -50.45,-65.059 0,-48.125 8.89,-71.0152 50.78,-71.0152 12.54,0 36.28,2.6563 36.28,2.6563 l 0.65,-17.2657 c 0,0 -25.06,-3.6523 -40.56,-3.6523 -52.76,0 -67.59,27.2069 -67.59,89.2769 0,57.403 19.45,82.969 67.93,82.969 15.83,0 39.89,-3.633 39.89,-3.633" />
        <path
           inkscape:connector-curvature="0"
           id="path102417"
           style="fill:#4f4c4c;fill-opacity:1;fill-rule:nonzero;stroke:none"
           d="M 4684.96,79.3164 V 318.945 h 19.45 v -82.324 c 0,0 27.7,11.621 50.45,11.621 44.53,0 54.75,-24.219 54.75,-82.637 V 79.3164 h -19.79 v 85.9566 c 0,45.137 -5.28,65.059 -37.26,65.059 -22.11,0 -48.15,-11.269 -48.15,-11.269 V 79.3164 h -19.45" />
        <path
           inkscape:connector-curvature="0"
           id="path102419"
           style="fill:#4f4c4c;fill-opacity:1;fill-rule:nonzero;stroke:none"
           d="M 4915.82,79.3164 V 245.273 h 19.79 V 233.32 c 0,0 25.39,14.922 50.46,14.922 44.51,0 54.74,-24.219 54.74,-82.637 V 79.3164 h -19.79 v 85.9566 c 0,45.137 -5.29,65.059 -37.26,65.059 -24.74,0 -48.15,-13.945 -48.15,-13.945 V 79.3164 h -19.79" />
        <path
           inkscape:connector-curvature="0"
           id="path102421"
           style="fill:#4f4c4c;fill-opacity:1;fill-rule:nonzero;stroke:none"
           d="m 5267.07,164.609 c 0,-56.074 -14.19,-88.6129 -66.95,-88.6129 -53.1,0 -67.94,29.5509 -67.94,88.9649 0,55.41 16.82,83.281 67.94,83.281 47.83,0 66.95,-28.867 66.95,-83.633 z m -20.47,0 c 0,44.161 -12.84,66.055 -46.48,66.055 -35.95,0 -47.82,-19.59 -47.82,-65.703 0,-47.148 7.91,-71.3672 47.82,-71.3672 39.9,0 46.48,26.8942 46.48,71.0152" />
        <path
           inkscape:connector-curvature="0"
           id="path102423"
           style="fill:#4f4c4c;fill-opacity:1;fill-rule:nonzero;stroke:none"
           d="m 5357.77,79.3164 h 19.7852 v 239.629 H 5357.77 Z" />
        <path
           inkscape:connector-curvature="0"
           id="path102425"
           style="fill:#4f4c4c;fill-opacity:1;fill-rule:nonzero;stroke:none"
           d="m 5603.13,164.609 c 0,-56.074 -14.17,-88.6129 -66.94,-88.6129 -53.09,0 -67.92,29.5509 -67.92,88.9649 0,55.41 16.81,83.281 67.92,83.281 47.83,0 66.94,-28.867 66.94,-83.633 z m -20.43,0 c 0,44.161 -12.88,66.055 -46.51,66.055 -35.94,0 -47.82,-19.59 -47.82,-65.703 0,-47.148 7.92,-71.3672 47.82,-71.3672 39.9,0 46.51,26.8942 46.51,71.0152" />
        <path
           inkscape:connector-curvature="0"
           id="path102427"
           style="fill:#4f4c4c;fill-opacity:1;fill-rule:nonzero;stroke:none"
           d="m 5682.63,51.7578 c 0,19.2578 11.87,30.5469 27.05,42.168 -5.93,3.6719 -8.59,11.9332 -8.59,22.2262 0,5.645 10.88,26.563 10.88,26.563 -14.5,7.305 -27.03,21.25 -27.03,49.453 0,35.84 24.4,56.406 58.04,56.406 16.15,0 29.69,-4.297 29.69,-4.297 l 50.44,0.996 v -17.597 h -33.31 c 6.94,-6.641 12.87,-17.598 12.87,-35.508 0,-38.496 -22.44,-55.449 -60.68,-55.449 -2.97,0 -11.53,0.683 -15.49,1.367 0,0 -6.27,-16.289 -6.27,-20.586 0,-14.297 2.3,-16.27 39.24,-16.27 43.2,0 62.33,-8.3003 62.33,-45.8003 C 5821.8,17.9102 5794.41,0 5750.23,0 c -44.52,0 -67.6,13.6133 -67.6,51.7578 z m 40.56,33.5352 c -13.2,-10.9375 -20.79,-17.9102 -20.79,-32.1875 0,-25.8789 16.51,-35.5078 48.17,-35.5078 32.98,0 50.78,12.9492 50.78,37.1679 0,25.5469 -13.19,29.1992 -43.21,29.1992 -12.53,0 -34.95,1.3282 -34.95,1.3282 z m 59.36,106.875 c 0,26.543 -13.19,39.16 -39.9,39.16 -24.4,0 -37.93,-14.609 -37.93,-39.16 0,-24.902 12.21,-38.496 37.27,-38.496 26.4,0 40.56,11.601 40.56,38.496" />
        <path
           inkscape:connector-curvature="0"
           id="path102429"
           style="fill:#4f4c4c;fill-opacity:1;fill-rule:nonzero;stroke:none"
           d="m 5903.63,310.977 h 19.77 v -24.883 h -19.77 z m 0,-65.704 h 19.77 V 79.3164 h -19.77 V 245.273" />
        <path
           inkscape:connector-curvature="0"
           id="path102431"
           style="fill:#4f4c4c;fill-opacity:1;fill-rule:nonzero;stroke:none"
           d="m 6135.77,96.9141 0.67,-16.2696 c 0,0 -33.98,-4.6484 -60.35,-4.6484 -47.5,0 -63.65,33.5349 -63.65,85.6249 0,60.43 26.38,86.621 66.61,86.621 40.23,0 63.31,-23.867 63.31,-78.32 l -0.65,-15.918 h -109.15 c 0.31,-33.516 10.21,-60.0782 44.51,-60.0782 23.43,0 58.7,2.9883 58.7,2.9883 z m -13.18,73.3399 c 0,43.809 -14.84,60.762 -43.54,60.762 -27.37,0 -46.49,-17.598 -46.49,-60.762 h 90.03" />
        <path
           inkscape:connector-curvature="0"
           id="path102433"
           style="fill:#4f4c4c;fill-opacity:1;fill-rule:nonzero;stroke:none"
           d="m 6335.97,225.684 c 0,0 -34.63,4.98 -55.39,4.98 -20.12,0 -37.28,-6.641 -37.28,-28.535 0,-15.938 7.59,-22.578 41.24,-27.91 42.52,-6.953 57.69,-15.235 57.69,-46.758 0,-38.8477 -24.39,-51.4649 -61.98,-51.4649 -20.12,0 -55.41,5.9766 -55.41,5.9766 l 1.3,17.2656 c 0,0 35.64,-5.6445 52.45,-5.6445 28.38,0 43.54,6.9722 43.54,32.8512 0,19.258 -8.56,23.575 -43.54,29.551 -37.61,6.621 -55.41,14.922 -55.41,45.469 0,35.156 28.37,46.777 56.41,46.777 25.06,0 57.04,-5.293 57.04,-5.293 l -0.66,-17.265" />
        <path
           inkscape:connector-curvature="0"
           id="path102435"
           style="fill:#4f4c4c;fill-opacity:1;fill-rule:nonzero;stroke:none"
           d="M 2634.49,1181.62 H 2339.06 V 510.332 h 169.87 v 548.688 h 124.31 c 84.94,0 126.72,-39.88 126.72,-111.836 0,-66.164 -33.94,-108.614 -133.92,-131.465 -81.95,-18.711 -100.79,-113.672 -100.79,-113.672 h 109.24 c 184.57,0 297.85,89.473 297.85,245.137 0,155.626 -113.28,234.436 -297.85,234.436" />
        <path
           inkscape:connector-curvature="0"
           id="path102437"
           style="fill:#4f4c4c;fill-opacity:1;fill-rule:nonzero;stroke:none"
           d="M 4042.42,1181.62 H 3732.27 L 3543.94,510.41 h 169.87 l 27.77,100.504 v 0 l 1.63,5.762 2.62,9.5 v 0 l 34.45,123.547 84.95,315.137 H 3907 l 81.29,-315.137 h -47.09 c -111.4,0 -171.59,-102.844 -179.72,-123.547 h 257.56 l 38.11,-115.766 h 169.91 l -184.64,671.21" />
        <path
           inkscape:connector-curvature="0"
           id="path102439"
           style="fill:#ed1c24;fill-opacity:1;fill-rule:nonzero;stroke:none"
           d="M 459.434,1014 292.168,1181.27 H 0 L 313.359,867.914 459.434,1014" />
        <path
           inkscape:connector-curvature="0"
           id="path102441"
           style="fill:#ed1c24;fill-opacity:1;fill-rule:nonzero;stroke:none"
           d="m 963.125,1181.27 c 0,0 -50.84,0 -167.207,0 -82.891,0 -162.09,-37.14 -228.75,-103.81 C 519.141,1029.45 0.800781,511.113 0.800781,511.113 H 292.957 l 188.606,188.61 188.613,-188.61 H 962.324 L 627.637,845.797 963.125,1181.27" />
      </g>
    </g>
  </g>
</svg>
