<svg width="176" height="35" viewBox="0 0 176 35" fill="none" xmlns="http://www.w3.org/2000/svg">
<g clip-path="url(#clip0_309_3171)">
<path d="M150.862 6.5338V27.2859H154.797V11.672H161.355V7.78152H154.797V6.5338C154.797 5.41595 155.718 4.50567 156.849 4.50567H161.355V0.615234H156.849C153.548 0.615234 150.862 3.2707 150.862 6.5338Z" fill="#171717"/>
<path d="M170.632 23.3954C169.501 23.3954 168.58 22.4852 168.58 21.3673V11.6708H175.174V7.78036H168.58V0.615234H164.645V21.3673C164.645 24.6304 167.331 27.2859 170.632 27.2859H175.173V23.3954H170.632Z" fill="#171717"/>
<path d="M142.636 7.77148H137.3C134.598 7.77148 132.4 9.99326 132.4 12.7218V22.3371C132.4 25.0657 134.598 27.2863 137.3 27.2863H142.636C145.338 27.2863 147.535 25.0657 147.535 22.3371V12.7218C147.535 9.99326 145.338 7.77148 142.636 7.77148ZM143.587 12.7218V22.3371C143.587 22.9204 143.117 23.3958 142.539 23.3958H137.398C136.82 23.3958 136.35 22.9204 136.35 22.3371V12.7218C136.35 12.1385 136.82 11.6619 137.398 11.6619H142.539C143.117 11.6619 143.587 12.1374 143.587 12.7218Z" fill="#171717"/>
<path d="M91.9662 7.77148H86.6299C83.9284 7.77148 81.7301 9.99326 81.7301 12.7218V22.3371C81.7301 25.0657 83.9284 27.2863 86.6299 27.2863H91.9662C94.6677 27.2863 96.8648 25.0657 96.8648 22.3371V12.7218C96.8648 9.99326 94.6677 7.77148 91.9662 7.77148ZM92.9163 12.7218V22.3371C92.9163 22.9204 92.4459 23.3958 91.8676 23.3958H86.7273C86.149 23.3958 85.6786 22.9204 85.6786 22.3371V12.7218C85.6786 12.1385 86.149 11.6619 86.7273 11.6619H91.8676C92.4459 11.6619 92.9163 12.1374 92.9163 12.7218Z" fill="#171717"/>
<path d="M124.368 15.4979L118.797 15.4805C118.315 15.4805 117.923 15.0874 117.923 14.6015V12.5223C117.923 12.0376 118.315 11.6422 118.797 11.6422L128.453 11.6596V7.77148H118.718C116.103 7.77148 113.976 9.90977 113.976 12.5409V14.62C113.976 17.25 116.103 19.3894 118.718 19.3894H124.288C124.769 19.3894 125.162 19.7837 125.162 20.2696V22.5169C125.162 23.0016 124.771 23.397 124.288 23.397H114.622V27.2886H124.369C126.984 27.2886 129.111 25.148 129.111 22.518V20.2707C129.11 17.6385 126.983 15.4979 124.368 15.4979Z" fill="#171717"/>
<path d="M23.8201 7.77344H19.8716V27.2859H23.8201V7.77344Z" fill="#171717"/>
<path d="M23.8201 0.615234H19.8716V5.81949H23.8201V0.615234Z" fill="#171717"/>
<path d="M36.9817 13.625L31.717 7.76562H27.1105V27.2851H31.059V12.9745L36.9723 18.8293L42.9044 12.9745V27.2851H46.8529V7.76562L42.2464 7.77026L36.9817 13.625Z" fill="#171717"/>
<path d="M60.1776 7.78125H50.1433V34.4415H54.1598V27.2902H60.1776C63.353 27.2902 65.9361 24.789 65.9361 21.7126V13.3577C65.9361 10.2825 63.3519 7.78125 60.1776 7.78125ZM61.9184 13.3577V21.7126C61.9184 22.6426 61.1383 23.3998 60.1776 23.3998H54.1598V11.6705H60.1776C61.1372 11.6705 61.9184 12.4277 61.9184 13.3577Z" fill="#171717"/>
<path d="M69.2266 13.69V27.3002H73.1633V13.69C73.1633 12.571 74.0842 11.6619 75.215 11.6619H79.7559V7.77148H75.215C71.9128 7.77148 69.2266 10.4258 69.2266 13.69Z" fill="#171717"/>
<path d="M11.5006 7.77148H2.02707V11.6619H11.4995C12.1141 11.6619 12.6127 12.1513 12.6127 12.7543V14.6514H5.67174C2.97959 14.6514 0.78833 16.8001 0.78833 19.4405V22.4995C0.78833 25.1399 2.97959 27.2874 5.67174 27.2874H16.5823V12.7531C16.5811 10.006 14.3019 7.77148 11.5006 7.77148ZM12.6139 18.5406V23.397H5.67174C5.16616 23.397 4.75559 22.9935 4.75559 22.4983V19.4393C4.75559 18.9442 5.16616 18.5406 5.67174 18.5406H12.6139Z" fill="#171717"/>
<path d="M107.394 21.4316H103.446V27.2864H107.394V21.4316Z" fill="#FF5B00"/>
</g>
<defs>
<clipPath id="clip0_309_3171">
<rect width="176" height="35" fill="white"/>
</clipPath>
</defs>
</svg>
