<?xml version="1.0" encoding="UTF-8"?>
<!-- Generator: Adobe Illustrator 24.0.2, SVG Export Plug-In . SVG Version: 6.00 Build 0)  -->
<svg xmlns="http://www.w3.org/2000/svg" xmlns:xlink="http://www.w3.org/1999/xlink" version="1.1" id="Шар_1" x="0px" y="0px" viewBox="0 0 803.2 1063.9" style="enable-background:new 0 0 803.2 1063.9;" xml:space="preserve">
<style type="text/css">
	.st0{fill:#FFD36A;}
</style>
<g id="Жовте">
	<g>
		<g>
			<path class="st0" d="M547.1,794.5l15.6-39.2c0.7-1.8,2.4-2.9,4.3-2.9h37.4c3.9,0,6.1,4.5,3.6,7.6l-32,39.2     c-0.9,1.1-2.2,1.7-3.6,1.7h-21C548.1,800.8,545.8,797.5,547.1,794.5z"></path>
		</g>
		<g>
			<g>
				<path class="st0" d="M541.2,1060.5V827c0-1.6,1.3-2.9,2.9-2.9h46.1c1.6,0,2.9,1.3,2.9,2.9v233.5c0,1.6-1.3,2.9-2.9,2.9h-46.1      C542.5,1063.5,541.2,1062.2,541.2,1060.5z"></path>
			</g>
			<g>
				<g>
					<path class="st0" d="M122.7,822C55.9,822,1.8,876.1,1.8,942.9s54.1,120.9,120.8,120.9c66.8,0,120.9-54.1,120.9-120.9       C243.6,876.1,189.5,822,122.7,822z M122.7,1012.7c-38.6,0-69.9-31.3-69.9-69.9c0-38.6,31.3-70,69.9-70s70,31.3,70,70       S161.3,1012.7,122.7,1012.7z"></path>
					<path class="st0" d="M13.8,535.3c-2.2-40.7,1-79.3,10.1-118.6c0.2,20.8,5,71.6,11.2,102.3c9.8,48.8,28.3,95.6,58.6,136       c-1,0.7-3.8,1-5.7,1c-16,0.1-32.1,0.1-48.1,0.1c-12.1,0-13.8,5.5-13.6,9.8c0.1,2.7,1.8,5.2,4.1,6.6c3.4,2.2,12.6,1.3,14.8,1.3       c95.9-0.5,191.9-0.1,287.8-0.1c90.1,0,180.2,0,270.2,0c53.3,0,109,0,162.2,0c5,0,8.5-3.4,8.5-8.6c0-4.6-3.8-8.1-9.1-8.1       c-17.1,0-55.4,0.1-58.1-0.2c0.4-0.7,1-1.9,1.4-2.6c36.6-61.3,68.4-117.5,81.7-189c14.4-77.4,9-157.9-16-232.6       c-15.7-47.3-38.4-91.3-67.8-131.6c-15.5-21.4-32.2-41.5-53.8-57.3C602.3,7.1,546.8-7,485.6,3.2c-49.2,8.2-90.4,31.3-124,68       c-4.8,5.4-11,8.1-18.3,8.2c-21.7,0.7-43.1,3.5-64.1,8.5C140.3,120.7,32.4,239,6.3,378.3c-3.9,20.6-6.1,41.4-6.3,62.4       c-0.3,22.7,1.7,45.4,6.8,67.6C8.5,516.9,10.2,525.5,13.8,535.3z M412.1,651.8c-0.4,0.1-0.7,0-1,0c0.1-0.3,0.4-0.7,0.5-0.9       C411.7,651.1,411.9,651.4,412.1,651.8z M469.2,664.7c0.3-0.1,0.4-0.4,0.7-0.5c-0.1,0.3-0.1,0.4,0,0.5H469.2z M622.2,162.5       c13.7-0.3,25.2,11.1,25.3,24.9c0.1,14.1-11.5,26.4-25.1,26.1c-14-0.1-25.3-11.6-25.5-25.7C597,174,608.2,162.6,622.2,162.5z        M512.9,556.6c4-42.4,18-81.2,40.6-117.1c4.4-6.9,10.4-11.1,18.3-12.8c22.3-5,43.1-13.8,62.4-26.4c17.4-11.3,35,11.4,41.6,25.9       c4.9,10.7,7.2,22.5,8.8,34.2c8.4,63.6-6.2,127.7-40.3,181.8c-8.1,12.8-18.1,13.7-32.1,13.7c-27,0-54,0.1-81,0.1       c-7.4-0.1-9.9-1.8-11.8-9.3C512,617.2,510.1,587,512.9,556.6z M223.7,580.6c8.6-21.4,22-41.4,43.9-51       c19.4-8.5,43.6-6.8,60.2,6.5c29.6,23.5,35.1,74.5,35.1,109.4c0,9.2-6.7,8.3-10.9,8.7c-11.1,1-107.6,0.2-124.4,0.2       c-2.5,0-5.2,0.1-7.8-0.3c-2.5-0.6-4.4-1.8-5.3-9.5C212.1,625.1,215.2,601.6,223.7,580.6z"></path>
					<path class="st0" d="M797.6,1015.9c-27.4,0.2-54.8,0-82.2,0.2c-3.9,0-5.1-1.1-5.1-5c0.2-12.5,0-25,0-37.5       c0.1-48.3,0.1-96.5,0.3-144.8c0-3.7-1.7-4.2-4.8-4.2c-14.2,0.1-28.3,0.1-42.5,0c-3.5,0-4.9,0.9-4.9,4.7c0,49,0.1,98-0.2,147       c0,27.6-0.4,55.1-0.4,82.7c0,2.9,1.3,4.6,4.5,4.6c23.5,0,123.8,0.3,135.4,0.3c4.3,0,5.5-0.5,5.4-4.8c-0.2-12.5-0.3-25,0-37.5       C803.4,1016.9,801.8,1015.9,797.6,1015.9z M659.6,1022.7c-0.3,0-0.5,0.1-0.8,0.1c0-0.3,0-0.5,0-0.8       C659.1,1022.3,659.4,1022.5,659.6,1022.7z"></path>
					<path class="st0" d="M462.2,1008.3c-6.4-10.8-12.8-21.6-19.2-32.5c-1-1.7-2.2-3.3,0.5-4.4c8.2-3.3,14.1-9.8,20.5-15.7       c27-24.8,27.6-70.8,6.9-99.5c-14-19.4-36.5-32-60.4-33.2c-34.5-1.7-68.9-0.4-103.5-0.5c-3,0-4.3,0.8-4.2,4       c0.1,14.8,0.1,29.5,0.1,44.3v89.6c-0.1,32.8-0.1,65.5-0.3,98.3c0,4,1.7,4.5,5,4.5c14-0.1,27.9-0.2,41.9,0.1       c4.6,0.1,6-1.1,5.9-5.9c-0.2-24,0-48.1-0.2-72.1c0-3.5,0.8-5.3,4.6-5c5,0.1,20.8-0.3,23.4,0.1c2.6,0.4,5,1.2,6.8,3       c3.6,3.6,31.5,53.9,44.9,77.2c0.9,1.5,2,2.5,4,2.5c17.8-0.1,35.6,0,54.2,0c0.8,0,1.4-0.9,0.9-1.6       C483.4,1043.8,472.8,1026.1,462.2,1008.3z M365.4,930.6c-8.2-0.1-8.1,0-8.2-8.5c-0.2-9.8-0.1-39.9-0.1-42c0-4.1,0.1-7.9,6-7.7       c12.3,0.3,24.7,0.1,36.9,0.1c9.6,0,31,5.5,31,27.9s-15.8,30.7-30.2,30.7C389.8,931.1,371.3,930.7,365.4,930.6z"></path>
				</g>
			</g>
		</g>
	</g>
</g>
</svg>
