<?xml version="1.0" encoding="UTF-8" standalone="no"?>
<!-- Creator: CorelDRAW X7 -->

<svg
   xmlns:dc="http://purl.org/dc/elements/1.1/"
   xmlns:cc="http://creativecommons.org/ns#"
   xmlns:rdf="http://www.w3.org/1999/02/22-rdf-syntax-ns#"
   xmlns:svg="http://www.w3.org/2000/svg"
   xmlns="http://www.w3.org/2000/svg"
   xmlns:sodipodi="http://sodipodi.sourceforge.net/DTD/sodipodi-0.dtd"
   xmlns:inkscape="http://www.inkscape.org/namespaces/inkscape"
   xml:space="preserve"
   width="707"
   height="111"
   version="1.1"
   style="clip-rule:evenodd;fill-rule:evenodd;image-rendering:optimizeQuality;shape-rendering:geometricPrecision;text-rendering:geometricPrecision"
   viewBox="0 0 18706.041 2936.8751"
   id="svg99"
   sodipodi:docname="Logo_Horizontal_2.svg"
   inkscape:version="0.92.2 5c3e80d, 2017-08-06"><metadata
     id="metadata103"><rdf:RDF><cc:Work
         rdf:about=""><dc:format>image/svg+xml</dc:format><dc:type
           rdf:resource="http://purl.org/dc/dcmitype/StillImage" /><dc:title></dc:title></cc:Work></rdf:RDF></metadata><sodipodi:namedview
     pagecolor="#ffffff"
     bordercolor="#666666"
     borderopacity="1"
     objecttolerance="10"
     gridtolerance="10"
     guidetolerance="10"
     inkscape:pageopacity="0"
     inkscape:pageshadow="2"
     inkscape:window-width="1465"
     inkscape:window-height="1064"
     id="namedview101"
     showgrid="false"
     units="px"
     inkscape:zoom="0.67882997"
     inkscape:cx="396.85039"
     inkscape:cy="561.25984"
     inkscape:window-x="829"
     inkscape:window-y="446"
     inkscape:window-maximized="0"
     inkscape:current-layer="svg99" /><defs
     id="defs87"><style
       type="text/css"
       id="style85"><![CDATA[
    .str0 {stroke:#1C407B;stroke-width:265}
    .fil1 {fill:none}
    .fil2 {fill:#2B2A29;fill-rule:nonzero}
    .fil0 {fill:#1C407B;fill-rule:nonzero}
   ]]></style></defs><g
     id="Layer_x0020_1"
     transform="translate(-1254.5,-14300.623)"><metadata
       id="CorelCorpID_0Corel-Layer" /><path
       class="fil0"
       d="m 3110,15922 -356,625 c -34,68 -117,96 -185,61 -48,-24 -76,-72 -76,-123 v 0 -1067 l -905,1604 c -35,68 -118,94 -186,59 -67,-34 -94,-118 -59,-185 l 1161,-2101 c 21,-49 70,-83 127,-83 77,0 139,62 139,138 v 1093 l 340,-615 z m 223,425 c 77,0 139,62 139,138 0,76 -62,138 -139,138 -76,0 -138,-62 -138,-138 0,-76 62,-138 138,-138 z m 139,-215 c 0,76 -62,138 -139,138 -76,0 -138,-62 -138,-138 v -314 l 1,-608 c 2,-85 56,-141 137,-140 77,0 139,62 139,138 z"
       id="path90"
       inkscape:connector-curvature="0"
       style="fill:#1c407b;fill-rule:nonzero" /><path
       class="fil1 str0"
       d="m 2717,14445 c 735,0 1330,596 1330,1330 0,735 -595,1330 -1330,1330 -734,0 -1330,-595 -1330,-1330 0,-734 596,-1330 1330,-1330 z"
       id="path92"
       inkscape:connector-curvature="0"
       style="fill:none;stroke:#1c407b;stroke-width:265" /><path
       class="fil0"
       d="m 14060,15072 v -150 h 1024 v 150 h -423 v 1157 h -175 v -1157 z m -1394,504 c 0,-99 15,-189 46,-271 31,-82 75,-153 131,-212 56,-59 124,-104 202,-137 79,-32 165,-49 260,-49 94,0 176,15 247,45 71,30 134,71 189,122 l -59,80 c -4,5 -9,10 -15,14 -6,4 -13,6 -23,6 -11,0 -24,-6 -40,-18 -16,-11 -37,-25 -62,-39 -26,-14 -58,-27 -96,-39 -39,-12 -86,-17 -141,-17 -68,0 -130,11 -186,35 -56,23 -104,57 -144,102 -41,44 -72,98 -95,162 -22,64 -34,136 -34,216 0,81 12,154 36,218 23,63 55,117 95,161 41,45 88,78 143,101 55,23 115,34 179,34 39,0 75,-2 106,-6 31,-5 60,-12 86,-21 27,-10 51,-22 74,-37 23,-14 46,-32 68,-52 11,-9 21,-13 32,-13 9,0 17,3 25,11 l 70,74 c -54,62 -118,110 -195,145 -76,35 -168,53 -277,53 -93,0 -179,-17 -255,-49 -77,-32 -142,-78 -196,-137 -55,-59 -97,-129 -126,-211 -31,-82 -45,-172 -45,-271 z m -1179,653 v -1307 h 805 v 144 h -629 v 433 h 509 v 139 h -509 v 447 h 630 l -1,144 z m -1170,0 v -1307 h 175 v 1157 h 566 v 150 z m -744,-174 v 174 h 175 v -174 z m 0,-1133 v 980 h 175 v -980 z m -1567,1307 450,-672 -431,-635 h 176 c 13,0 23,2 29,6 5,4 11,10 16,18 l 341,524 c 4,-13 10,-27 19,-42 l 323,-478 c 4,-9 10,-16 16,-21 7,-5 15,-7 25,-7 h 168 l -433,627 448,680 h -175 c -14,0 -25,-4 -32,-11 -7,-7 -14,-15 -18,-23 l -352,-548 c -4,13 -9,26 -16,37 l -341,511 c -6,8 -12,16 -20,23 -7,7 -16,11 -28,11 z m -1113,-486 h 488 l -206,-531 c -7,-17 -13,-35 -20,-55 -6,-21 -13,-43 -19,-67 -6,24 -13,46 -19,68 -7,21 -13,39 -20,54 z m -369,486 523,-1307 h 180 l 522,1307 h -136 c -16,0 -29,-4 -39,-12 -10,-8 -17,-18 -22,-30 l -122,-316 h -587 l -123,316 c -3,11 -10,20 -21,29 -10,9 -23,13 -37,13 z m -1767,0 v -1307 h 131 c 16,0 28,1 37,4 8,3 16,12 24,25 l 452,806 c 7,15 14,30 21,46 7,15 14,31 20,47 6,-16 12,-33 19,-49 7,-16 14,-31 22,-45 l 444,-805 c 7,-14 15,-22 24,-25 9,-3 22,-4 38,-4 h 130 v 1307 h -155 v -961 c 0,-13 0,-26 1,-41 0,-15 1,-29 2,-45 l -448,818 c -15,27 -36,41 -64,41 h -26 c -28,0 -49,-14 -64,-41 l -458,-821 c 2,16 3,32 4,47 1,15 1,29 1,42 v 961 z"
       id="path94"
       inkscape:connector-curvature="0"
       style="fill:#1c407b;fill-rule:nonzero" /><path
       class="fil2"
       d="m 4971,16735 h 33 v -15 c 0,-60 -49,-102 -122,-102 -69,0 -119,38 -119,101 0,37 20,69 56,87 l 115,56 c 27,12 42,36 42,63 0,44 -38,72 -91,72 -57,0 -94,-30 -94,-75 v -16 h -34 v 16 c 0,61 52,103 127,103 74,0 126,-39 126,-101 0,-37 -20,-70 -55,-86 l -116,-57 c -27,-12 -43,-36 -43,-64 0,-44 36,-71 86,-71 53,0 89,30 89,74 z m 153,286 v -326 l 118,250 h 20 l 119,-251 v 327 h 32 v -399 h -29 l -132,274 -131,-274 h -29 v 399 z m 379,0 33,-99 h 176 l 33,99 h 36 l -139,-399 h -35 l -139,399 z m 121,-361 78,234 h -157 z m 245,192 h 91 l 98,169 h 36 l -103,-173 c 54,-13 87,-50 87,-101 v -21 c 0,-62 -50,-104 -127,-104 h -115 v 399 h 33 z m 82,-202 c 57,0 94,30 94,74 v 24 c 0,45 -37,76 -94,76 h -82 v -174 z m 451,-28 h -280 v 28 h 123 v 371 h 34 v -371 h 123 z m 376,113 h 34 v -15 c 0,-60 -50,-102 -122,-102 -69,0 -120,38 -120,101 0,37 21,69 56,87 l 115,56 c 28,12 43,36 43,63 0,44 -38,72 -91,72 -57,0 -95,-30 -95,-75 v -16 h -33 v 16 c 0,61 52,103 127,103 73,0 126,-39 126,-101 0,-37 -21,-70 -55,-86 l -116,-57 c -28,-12 -43,-36 -43,-64 0,-44 36,-71 86,-71 52,0 88,30 88,74 z m 378,185 v -197 c 0,-63 -54,-105 -130,-105 -78,0 -132,42 -132,105 v 197 c 0,63 54,105 132,105 76,0 130,-42 130,-105 z m -33,2 c 0,45 -40,75 -97,75 -58,0 -98,-30 -98,-75 v -201 c 0,-45 40,-75 98,-75 57,0 97,30 97,75 z m 128,99 h 206 v -28 h -173 v -371 h -33 z m 485,-399 v 300 c 0,45 -40,75 -97,75 -58,0 -98,-30 -98,-75 v -300 h -33 v 298 c 0,63 54,105 131,105 77,0 131,-42 131,-105 v -298 z m 370,0 h -279 v 28 h 122 v 371 h 34 v -371 h 123 z m 61,399 h 34 v -399 h -34 z m 390,-101 v -197 c 0,-63 -55,-105 -131,-105 -77,0 -132,42 -132,105 v 197 c 0,63 55,105 132,105 76,0 131,-42 131,-105 z m -33,2 c 0,45 -41,75 -98,75 -57,0 -98,-30 -98,-75 v -201 c 0,-45 41,-75 98,-75 57,0 98,30 98,75 z m 159,99 v -336 l 200,336 h 30 v -399 h -32 v 336 l -200,-336 h -30 v 399 z m 522,-286 h 34 v -15 c 0,-60 -50,-102 -123,-102 -69,0 -119,38 -119,101 0,37 21,69 56,87 l 115,56 c 27,12 43,36 43,63 0,44 -39,72 -92,72 -56,0 -94,-30 -94,-75 v -16 h -34 v 16 c 0,61 52,103 128,103 73,0 125,-39 125,-101 0,-37 -20,-70 -54,-86 l -116,-57 c -28,-12 -43,-36 -43,-64 0,-44 36,-71 85,-71 53,0 89,30 89,74 z m 486,-113 h -280 v 28 h 123 v 371 h 34 v -371 h 123 z m 308,298 v -197 c 0,-63 -55,-105 -131,-105 -77,0 -132,42 -132,105 v 197 c 0,63 55,105 132,105 76,0 131,-42 131,-105 z m -34,2 c 0,45 -40,75 -97,75 -57,0 -98,-30 -98,-75 v -201 c 0,-45 41,-75 98,-75 57,0 97,30 97,75 z m 282,99 v -326 l 118,250 h 20 l 120,-251 v 327 h 31 v -399 h -29 l -132,274 -130,-274 h -29 v 399 z m 379,0 33,-99 h 176 l 34,99 h 35 l -139,-399 h -35 l -139,399 z m 121,-361 79,234 h -157 z m 418,-38 -100,163 -99,-163 h -39 l 118,193 -126,206 h 39 l 107,-175 107,175 h 38 l -125,-205 118,-194 z m 106,399 h 34 v -399 h -34 z m 164,0 v -326 l 119,250 h 20 l 119,-251 v 327 h 31 v -399 h -29 l -132,274 -130,-274 h -29 v 399 z m 389,0 h 34 v -399 h -34 z m 111,-371 h 199 l -204,349 v 22 h 245 v -28 h -204 l 204,-349 v -22 h -240 z m 524,343 h -180 v -157 h 164 v -28 h -164 v -158 h 180 v -28 h -214 v 399 h 214 z m 442,-371 h -280 v 28 h 123 v 371 h 34 v -371 h 123 z m 95,399 v -185 h 197 v 185 h 33 v -399 h -33 v 186 h -197 v -186 h -34 v 399 z m 543,-28 h -180 v -157 h 164 v -28 h -164 v -158 h 180 v -28 h -214 v 399 h 214 z m 435,-371 -119,358 -118,-358 h -35 l 136,399 h 35 l 135,-399 z m 65,399 33,-99 h 176 l 34,99 h 35 l -138,-399 h -36 l -139,399 z m 121,-361 79,234 h -157 z m 212,361 h 207 v -28 h -173 v -371 h -34 z m 486,-399 v 300 c 0,45 -41,75 -98,75 -57,0 -97,-30 -97,-75 v -300 h -34 v 298 c 0,63 55,105 131,105 77,0 132,-42 132,-105 v -298 z m 342,371 h -180 v -157 h 164 v -28 h -164 v -158 h 180 v -28 h -214 v 399 h 214 z m 457,-73 v -197 c 0,-63 -54,-105 -131,-105 -77,0 -131,42 -131,105 v 197 c 0,63 54,105 131,105 77,0 131,-42 131,-105 z m -33,2 c 0,45 -41,75 -98,75 -57,0 -97,-30 -97,-75 v -201 c 0,-45 40,-75 97,-75 57,0 98,30 98,75 z m 309,-114 h -148 v -158 h 177 v -28 h -211 v 399 h 34 v -185 h 148 z m 311,213 h 34 v -163 l 132,-236 h -36 l -113,206 -111,-206 h -35 l 129,236 z m 473,-101 v -197 c 0,-63 -54,-105 -131,-105 -77,0 -131,42 -131,105 v 197 c 0,63 54,105 131,105 77,0 131,-42 131,-105 z m -33,2 c 0,45 -41,75 -98,75 -57,0 -98,-30 -98,-75 v -201 c 0,-45 41,-75 98,-75 57,0 98,30 98,75 z m 351,-300 v 300 c 0,45 -40,75 -98,75 -57,0 -97,-30 -97,-75 v -300 h -33 v 298 c 0,63 54,105 130,105 78,0 132,-42 132,-105 v -298 z m 162,230 h 91 l 98,169 h 36 l -103,-173 c 54,-13 87,-50 87,-101 v -21 c 0,-62 -50,-104 -127,-104 h -115 v 399 h 33 z m 82,-202 c 57,0 94,30 94,74 v 24 c 0,45 -37,76 -94,76 h -82 v -174 z m 343,371 h 122 c 78,0 127,-40 127,-97 v -21 c 0,-43 -29,-76 -77,-90 40,-15 63,-43 63,-78 v -24 c 0,-52 -50,-89 -128,-89 h -107 z m 121,-192 c 59,0 94,30 94,71 v 24 c 0,40 -35,69 -94,69 h -87 v -164 z m -14,-179 c 58,0 94,26 94,62 v 25 c 0,37 -36,64 -94,64 h -73 v -151 z m 441,-28 v 300 c 0,45 -41,75 -98,75 -57,0 -97,-30 -97,-75 v -300 h -34 v 298 c 0,63 54,105 131,105 77,0 131,-42 131,-105 v -298 z m 321,113 h 33 v -15 c 0,-60 -49,-102 -122,-102 -69,0 -119,38 -119,101 0,37 20,69 56,87 l 115,56 c 27,12 42,36 42,63 0,44 -38,72 -91,72 -57,0 -94,-30 -94,-75 v -16 h -34 v 16 c 0,61 52,103 127,103 74,0 126,-39 126,-101 0,-37 -20,-70 -55,-86 l -116,-57 c -27,-12 -43,-36 -43,-64 0,-44 36,-71 86,-71 53,0 89,30 89,74 z m 121,286 h 34 v -399 h -34 z m 166,0 v -336 l 200,336 h 30 v -399 h -33 v 336 l -200,-336 h -29 v 399 z m 543,-28 h -180 v -157 h 164 v -28 h -164 v -158 h 180 v -28 h -214 v 399 h 214 z m 270,-258 h 34 v -15 c 0,-60 -50,-102 -123,-102 -69,0 -119,38 -119,101 0,37 21,69 56,87 l 115,56 c 27,12 43,36 43,63 0,44 -39,72 -92,72 -56,0 -94,-30 -94,-75 v -16 h -34 v 16 c 0,61 52,103 128,103 73,0 125,-39 125,-101 0,-37 -20,-70 -54,-86 l -116,-57 c -28,-12 -43,-36 -43,-64 0,-44 36,-71 85,-71 53,0 89,30 89,74 z m 314,0 h 34 v -15 c 0,-60 -50,-102 -122,-102 -69,0 -120,38 -120,101 0,37 21,69 56,87 l 115,56 c 28,12 43,36 43,63 0,44 -38,72 -91,72 -57,0 -95,-30 -95,-75 v -16 h -33 v 16 c 0,61 52,103 127,103 73,0 126,-39 126,-101 0,-37 -21,-70 -55,-86 l -116,-57 c -28,-12 -43,-36 -43,-64 0,-44 36,-71 86,-71 52,0 88,30 88,74 z"
       id="path96"
       inkscape:connector-curvature="0"
       style="fill:#2b2a29;fill-rule:nonzero" /></g></svg>