<svg viewBox="0 0 162 26" xmlns="http://www.w3.org/2000/svg">
  <g clip-path="url(#clip0_3889_203)">
    <path fill-rule="evenodd" clip-rule="evenodd" d="M55.0047 8.16429C53.7974 6.91481 52.3617 6.29007 50.6974 6.29007C48.8375 6.29007 47.41 6.97972 46.4149 8.359V6.60649H43.7717V23.6448H46.4149V17.0485C47.4264 18.4116 48.8539 19.0931 50.6974 19.0931C52.3779 19.0931 53.8138 18.4765 55.0047 17.2433C56.1957 16.01 56.7912 14.4928 56.7912 12.6916C56.7912 10.9066 56.1957 9.39753 55.0047 8.16429ZM50.2814 16.5861C49.1721 16.5861 48.2502 16.221 47.516 15.4907C46.7818 14.7281 46.4149 13.795 46.4149 12.6916C46.4149 11.5719 46.7818 10.647 47.516 9.9168C48.2502 9.17037 49.1721 8.79714 50.2814 8.79714C51.3909 8.79714 52.3126 9.17037 53.0468 9.9168C53.781 10.647 54.1481 11.5719 54.1481 12.6916C54.1481 13.8113 53.781 14.7443 53.0468 15.4907C52.3126 16.221 51.3909 16.5861 50.2814 16.5861ZM68.3882 6.60649V8.33468C67.3931 6.97161 65.9656 6.29007 64.1055 6.29007C62.425 6.29007 60.9893 6.9067 59.7984 8.13994C58.6074 9.37319 58.012 10.8904 58.012 12.6916C58.012 14.4928 58.6074 16.01 59.7984 17.2433C60.9893 18.4765 62.425 19.0931 64.1055 19.0931C65.9656 19.0931 67.3931 18.4035 68.3882 17.0242V18.7767H71.0312V6.60649H68.3882ZM64.5217 16.5861C63.4122 16.5861 62.4903 16.221 61.7563 15.4907C61.0221 14.7281 60.655 13.795 60.655 12.6916C60.655 11.5719 61.0221 10.647 61.7563 9.9168C62.4903 9.17037 63.4122 8.79714 64.5217 8.79714C65.631 8.79714 66.5529 9.17037 67.2871 9.9168C68.0211 10.647 68.3882 11.5719 68.3882 12.6916C68.3882 13.8113 68.0211 14.7443 67.2871 15.4907C66.5529 16.221 65.631 16.5861 64.5217 16.5861ZM87.4802 9.96547C87.4802 10.3387 87.6761 10.647 88.0675 10.8904C88.4592 11.1176 89.0301 11.3366 89.7807 11.5476C90.3516 11.6774 90.8493 11.8153 91.2735 11.9614C91.6977 12.1074 92.1464 12.3265 92.6195 12.6186C93.0926 12.8944 93.4516 13.2677 93.6963 13.7382C93.9572 14.1926 94.0796 14.7281 94.0634 15.3447C94.0634 16.513 93.6065 17.4299 92.6928 18.0952C91.7793 18.7605 90.6455 19.0931 89.2912 19.0931C88.0839 19.0931 87.0478 18.8416 86.1833 18.3386C85.3185 17.8355 84.6905 17.1378 84.2988 16.2453L86.5747 14.9309C86.9825 16.0992 87.888 16.6834 89.2912 16.6834C90.678 16.6834 91.3713 16.2291 91.3713 15.3204C91.3713 14.6551 90.5963 14.1358 89.0465 13.7626C88.4592 13.6165 87.9615 13.4705 87.5537 13.3244C87.162 13.1784 86.7217 12.9675 86.2322 12.6916C85.7591 12.4157 85.392 12.0506 85.1308 11.5963C84.8861 11.1419 84.7719 10.6146 84.7883 10.0142C84.7883 8.89451 85.2125 7.99391 86.0609 7.31236C86.9254 6.63084 87.9943 6.29007 89.2666 6.29007C90.2784 6.29007 91.1757 6.51726 91.9588 6.97161C92.7581 7.40973 93.3699 8.02636 93.7941 8.82149L91.5671 10.0628C91.1593 9.13791 90.3925 8.67543 89.2666 8.67543C88.7446 8.67543 88.3122 8.78903 87.9697 9.0162C87.6433 9.24339 87.4802 9.55981 87.4802 9.96547ZM97.6669 13.8113H107.407C107.472 13.4056 107.505 13.0405 107.505 12.7159C107.505 10.931 106.926 9.41377 105.767 8.16429C104.609 6.91481 103.141 6.29007 101.362 6.29007C99.4533 6.29007 97.9034 6.9067 96.7122 8.13994C95.5049 9.37319 94.9012 10.8904 94.9012 12.6916C94.9012 14.5415 95.5131 16.0749 96.7368 17.292C97.9766 18.4927 99.5838 19.0931 101.558 19.0931C103.94 19.0931 105.726 18.2088 106.917 16.44L104.739 15.1743C104.021 16.1804 102.969 16.6834 101.582 16.6834C100.554 16.6834 99.6898 16.4319 98.9884 15.9289C98.303 15.4258 97.8625 14.72 97.6669 13.8113ZM104.837 11.6693H97.6423C97.8218 10.7444 98.2378 10.0142 98.8903 9.47866C99.5429 8.94318 100.359 8.67543 101.338 8.67543C102.235 8.67543 102.994 8.93507 103.614 9.45434C104.25 9.97358 104.658 10.7119 104.837 11.6693ZM115.777 6.29007C117.197 6.29007 118.33 6.74442 119.179 7.65313C120.044 8.54563 120.476 9.76263 120.476 11.3042V18.7767H117.833V11.5719C117.833 10.6632 117.588 9.96547 117.099 9.47866C116.609 8.99185 115.94 8.74845 115.092 8.74845C114.129 8.74845 113.371 9.04865 112.816 9.64905C112.261 10.2332 111.984 11.1014 111.984 12.2535V18.7767H109.341V6.60649H111.984V8.16429C112.8 6.91481 114.064 6.29007 115.777 6.29007ZM132.572 6.60649V8.4077C131.577 6.99594 130.158 6.29007 128.314 6.29007C126.585 6.29007 125.125 6.9067 123.933 8.13994C122.743 9.34073 122.147 10.8174 122.147 12.5699C122.147 14.3062 122.743 15.791 123.933 17.0242C125.141 18.2412 126.601 18.8497 128.314 18.8497C130.158 18.8497 131.577 18.1439 132.572 16.7321V18.2169C132.572 19.2716 132.246 20.0911 131.593 20.6753C130.957 21.2756 130.068 21.5759 128.926 21.5759C127.18 21.5759 125.989 20.9511 125.353 19.7016L123.077 21.016C124.121 22.9795 126.054 23.9612 128.877 23.9612C130.639 23.9612 132.124 23.4663 133.331 22.4765C134.555 21.4866 135.167 20.0668 135.167 18.2169V6.60649H132.572ZM128.681 16.3913C127.572 16.3913 126.642 16.0262 125.891 15.296C125.157 14.5658 124.79 13.6571 124.79 12.5699C124.79 11.4827 125.157 10.574 125.891 9.84378C126.642 9.11357 127.572 8.74845 128.681 8.74845C129.791 8.74845 130.713 9.11357 131.447 9.84378C132.197 10.574 132.572 11.4827 132.572 12.5699C132.572 13.6571 132.197 14.5658 131.447 15.296C130.713 16.0262 129.791 16.3913 128.681 16.3913ZM149.578 13.8113H139.838C140.034 14.72 140.474 15.4258 141.159 15.9289C141.861 16.4319 142.726 16.6834 143.753 16.6834C145.14 16.6834 146.192 16.1804 146.911 15.1743L149.088 16.44C147.897 18.2088 146.111 19.0931 143.729 19.0931C141.755 19.0931 140.148 18.4927 138.908 17.292C137.684 16.0749 137.072 14.5415 137.072 12.6916C137.072 10.8904 137.676 9.37319 138.883 8.13994C140.074 6.9067 141.624 6.29007 143.533 6.29007C145.312 6.29007 146.78 6.91481 147.938 8.16429C149.097 9.41377 149.676 10.931 149.676 12.7159C149.676 13.0405 149.643 13.4056 149.578 13.8113ZM139.813 11.6693H147.008C146.829 10.7119 146.421 9.97358 145.785 9.45434C145.165 8.93507 144.406 8.67543 143.509 8.67543C142.53 8.67543 141.714 8.94318 141.062 9.47866C140.409 10.0142 139.993 10.7444 139.813 11.6693ZM154.155 8.6511V6.60649H151.512V18.7767H154.155V12.6429C154.155 11.3934 154.53 10.501 155.281 9.96547C156.048 9.41377 156.929 9.17037 157.924 9.23526V6.38744C156.08 6.38744 154.824 7.142 154.155 8.6511ZM78.7406 15.5319L81.8726 6.6963H84.6864L80.204 18.6802H80.2008L78.2954 23.7581H75.5727L77.3726 18.6802H77.3784L77.3947 18.6475L72.2075 6.6963H75.0947L78.7406 15.5319Z" fill="white"/>
    <path fill-rule="evenodd" clip-rule="evenodd" d="M21.1858 4.22247C15.3001 4.22247 10.5166 8.95982 10.5166 14.8036C10.5166 17.1133 11.2639 19.2502 12.5311 20.9901L8.38269 25.3848H20.5761V25.3678C20.7779 25.3791 20.9812 25.3848 21.1858 25.3848C27.0716 25.3848 31.8552 20.6474 31.8552 14.8036C31.8552 8.95982 27.0716 4.22247 21.1858 4.22247Z" fill="#FFD80A"/>
    <path fill-rule="evenodd" clip-rule="evenodd" d="M10.0117 0.443844C14.2207 0.472253 20.5694 2.19389 20.5694 14.36L9.90382 7.49209H9.82963H7.61828C3.41082 7.49209 0 4.32773 0 0.443482L9.82963 0.443481H9.90382H10.0117V0.443844Z" fill="#6E46F0"/>
    <path fill-rule="evenodd" clip-rule="evenodd" d="M13.1064 7.49373C17.2431 7.57469 20.5696 10.6988 20.5696 14.5407H13.1064H12.9417H12.1963H12.1789C7.9661 14.5407 4.55096 11.385 4.55096 7.49213H12.1963H12.9417H13.1064V7.49373Z" fill="#BA46F0"/>
    <path d="M25.7588 14.8035C27.0215 14.8035 28.0451 13.7884 28.0451 12.5362C28.0451 11.2839 27.0215 10.2688 25.7588 10.2688C24.4961 10.2688 23.4725 11.2839 23.4725 12.5362C23.4725 13.7884 24.4961 14.8035 25.7588 14.8035Z" fill="#0A0A1E"/>
  </g>
  <defs>
    <clipPath id="clip0_3889_203">
      <rect width="162" height="25" fill="white" transform="translate(0 0.443481)"/>
    </clipPath>
  </defs>
</svg>
