<?xml version="1.0" encoding="UTF-8"?> <svg xmlns="http://www.w3.org/2000/svg" width="180" height="29" viewBox="0 0 180 29" fill="none"><rect y="25.9893" width="28.877" height="2.8877" fill="#017EFF"></rect><path fill-rule="evenodd" clip-rule="evenodd" d="M91.4812 18.2431L93.4337 16.7934C94.7812 18.8516 96.7687 20.6043 99.6286 20.6043C102.256 20.6043 104.106 19.1545 104.106 16.8935C104.106 14.8354 102.591 14.0266 100.404 12.9825L97.9111 11.8032C95.5887 10.6915 92.8937 9.13908 92.8937 5.83399C92.8937 2.29353 95.9912 0.0325502 99.5936 0.0325502C102.624 0.0325502 105.184 1.61749 106.564 3.80837L104.644 5.2581C103.431 3.47035 101.579 2.45879 99.5586 2.45879C97.5036 2.45879 95.6187 3.5054 95.6187 5.69628C95.6187 7.7194 97.1687 8.46054 99.1886 9.43955L101.646 10.6189C104.879 12.1713 106.831 13.7888 106.831 16.8234C106.831 20.5667 103.766 23.028 99.6586 23.028C96.1262 23.033 93.1987 21.1776 91.4812 18.2431ZM113.366 12.95H123.771C123.738 9.91528 121.481 8.22768 118.888 8.22768C116.126 8.22768 113.938 10.1181 113.366 12.95ZM126.228 15.2435H113.266C113.603 18.5135 116.061 20.6393 119.293 20.6393C121.348 20.6393 122.963 19.763 124.311 18.4134L125.826 20.1686C124.176 21.9213 121.953 23.0355 119.261 23.0355C114.311 23.0355 110.573 19.2922 110.573 14.4698C110.573 9.68242 114.243 5.87155 118.958 5.87155C123.168 5.87155 126.433 8.90623 126.433 13.2905C126.431 14.1643 126.296 14.9055 126.228 15.2435ZM144.543 12.3415V22.6599H141.951V12.6445C141.951 10.048 140.401 8.26023 137.876 8.26023C135.351 8.26023 133.566 10.0805 133.566 12.6445V22.6599H130.973V6.23711H133.398V7.98981C134.576 6.67529 136.328 5.86654 138.448 5.86654C142.321 5.86905 144.543 8.53065 144.543 12.3415ZM148.483 19.8281L150.133 18.1079C151.48 19.5251 152.86 20.6368 154.848 20.6368C156.565 20.6368 157.98 19.793 157.98 18.3107C157.98 16.8935 156.768 16.3552 155.118 15.6792L153.535 15.0056C151.043 13.959 149.46 12.7797 149.46 10.4536C149.46 7.48654 151.985 5.86654 154.983 5.86654C157.34 5.86654 159.193 6.8781 160.47 8.46304L158.888 10.0805C157.81 8.96882 156.395 8.26023 154.848 8.26023C153.298 8.26023 152.12 8.96882 152.12 10.3159C152.12 11.4301 152.963 11.9359 154.78 12.7096L156.295 13.3506C159.225 14.5975 160.638 15.8795 160.638 18.2056C160.638 21.408 157.91 23.028 154.88 23.028C151.985 23.033 149.795 21.5833 148.483 19.8281ZM166.933 12.95H177.338C177.305 9.91528 175.048 8.22768 172.455 8.22768C169.695 8.22768 167.505 10.1181 166.933 12.95ZM179.795 15.2435H166.833C167.17 18.5135 169.628 20.6393 172.86 20.6393C174.915 20.6393 176.53 19.763 177.878 18.4134L179.393 20.1686C177.743 21.9213 175.52 23.0355 172.828 23.0355C167.878 23.0355 164.14 19.2922 164.14 14.4698C164.14 9.68242 167.81 5.87155 172.525 5.87155C176.735 5.87155 180 8.90623 180 13.2905C179.997 14.1643 179.862 14.9055 179.795 15.2435ZM9.93236 0L0 22.6624H4.88243L6.12741 19.763H15.2173L16.4623 22.6624H21.3447L11.4473 0H9.93236ZM10.6724 8.4981L13.6348 16.0172H7.70989L10.6724 8.4981ZM46.1269 14.3321C46.1269 11.5002 44.2069 9.71247 41.8169 9.71247C39.7295 9.71247 37.607 11.0946 37.607 14.2995C37.607 17.4694 39.6945 18.9192 41.8169 18.9192C44.1744 18.9192 46.1269 17.164 46.1269 14.3321ZM42.6594 23.0655C40.6044 23.0655 38.8545 22.3244 37.677 21.0424V28.877H33.132V5.9667H37.307V8.05742C38.452 6.47248 40.3719 5.59612 42.6594 5.59612C47.3743 5.59612 50.7393 9.27179 50.7393 14.297C50.7393 19.3223 47.3743 23.0655 42.6594 23.0655ZM83.4338 16.4228V16.22H79.8639C78.3814 16.22 77.5414 16.7934 77.5414 17.9051C77.5414 19.0519 78.5164 19.7254 79.9314 19.7254C81.8514 19.7279 83.4338 18.3783 83.4338 16.4228ZM87.9788 12.7471V22.6624H83.8038V21.0449C82.6264 22.2919 80.8739 23.0681 78.7189 23.0681C75.0815 23.0681 72.9615 20.9097 72.9615 18.0779C72.9615 15.0432 75.419 13.2229 79.2589 13.2229H83.4338V12.4817C83.4338 10.6614 82.3889 9.54721 80.3364 9.54721C78.5514 9.54721 77.3064 10.391 75.9264 11.8407L73.569 9.04144C75.5215 6.71535 77.9114 5.60113 80.8414 5.60113C85.0838 5.59863 87.9788 7.99232 87.9788 12.7471ZM24.0747 22.6624H28.6196V0H24.0747V22.6624ZM63.4341 5.59863C61.5491 5.59863 59.9667 6.27217 58.8542 7.38638V0H54.3092V22.6624H58.8542V12.95C58.8542 11.027 60.1667 9.71247 62.0191 9.71247C63.8716 9.71247 65.1166 10.9944 65.1166 12.95V22.6624H69.629V12.309C69.629 8.29528 67.2391 5.59863 63.4341 5.59863Z" fill="#0E1318"></path></svg> 