<svg version="1.1" xmlns="http://www.w3.org/2000/svg" x="0" y="0" viewBox="0 0 360 93.46" width="360" height="94">
  <path style="fill:#241f51;" d="M117.06 26.03h-6.97V59.5a7.65 7.65 0 0 0 7.65 7.65h22.96v-6.97h-23.65V26.03zM174.06 49.1c0 6.67-5.43 12.1-12.11 12.1-6.67 0-12.1-5.43-12.1-12.1V26.03h-6.97V49.1c0 10.51 8.56 19.06 19.07 19.06s19.07-8.55 19.07-19.06V26.03h-6.96V49.1zM285.31 49.1c0 6.67-5.43 12.09-12.1 12.09-6.68 0-12.11-5.42-12.11-12.09V26.03h-6.97V49.1c0 10.51 8.56 19.06 19.07 19.06s19.06-8.55 19.06-19.06V26.03h-6.96V49.1zM339.66 25.02c-4.61 0-8.97 2.15-11.87 5.71-2.89-3.57-7.26-5.71-11.87-5.71-8.46 0-15.34 6.89-15.34 15.34v26.79h6.97V40.36c0-4.62 3.76-8.38 8.38-8.38 4.62 0 8.38 3.76 8.38 8.38v26.79h6.97V40.36c0-4.62 3.76-8.38 8.38-8.38 4.62 0 8.37 3.76 8.37 8.38v26.79H355V40.36c0-8.45-6.88-15.34-15.34-15.34zM220.5 31.35c0 6.67-5.42 12.1-12.09 12.1-6.68 0-12.11-5.43-12.11-12.1v-5.33h-6.97v5.33c0 6.29 3.09 12.04 8.21 15.58-5.12 3.54-8.21 9.3-8.21 15.58v4.64h6.97v-4.64c0-6.68 5.43-12.11 12.11-12.11 6.67 0 12.09 5.43 12.09 12.11v4.64h6.97v-4.64c0-6.29-3.08-12.04-8.2-15.58 5.12-3.54 8.2-9.3 8.2-15.58v-5.33h-6.97v5.33zM237.32 26.03h6.96v41.13h-6.96z"/>
  <linearGradient id="SVGID_1_" gradientUnits="userSpaceOnUse" x1="13.736" y1="68.72" x2="62.419" y2="20.037">
    <stop offset="0" style="stop-color:#38c0eb"/>
    <stop offset=".3" style="stop-color:#359fd8"/>
    <stop offset=".5" style="stop-color:#377fc0"/>
    <stop offset=".7" style="stop-color:#3d66ae"/>
    <stop offset="1" style="stop-color:#3c57a3"/>
  </linearGradient>
  <path d="m57.11 47.41 22.06 12.73c-.93 2.01-2.12 4.05-3.6 6.14l-22.02-12.7 13 22.51c-1.9 1.65-3.8 3.12-5.66 4.44l-13.5-23.39v31.04h-7.12V57.14l-13.5 23.39a73.417 73.417 0 0 1-5.66-4.44l13-22.51-22.03 12.71c-1.48-2.09-2.67-4.13-3.6-6.14l22.06-12.74H5.21C5.08 45.73 5 44.07 5 42.45v-2.16h25.54L5 25.55v-8.22l29.1 16.8L17.28 5h8.22l14.76 25.57V5h7.12v30.85c-4.07-1.81-8.91-.33-11.19 3.6-2.43 4.21-.99 9.6 3.22 12.03 4.21 2.43 9.6.99 12.03-3.22 1.46-2.53 1.5-5.48.4-7.96h30.79v2.16c0 1.62-.08 3.28-.21 4.96H57.11z" style="fill:url(#SVGID_1_)"/>
  <path d="M82.65 33.15v-7.12H61.62V5H54.5v20.5a7.65 7.65 0 0 0 7.65 7.65h20.5z" style="fill:#3c57a3"/>
  <path style="fill:#241f51;" d="M247.55 85.5c0 1.75-1.66 2.96-4.8 2.96-2.24 0-4.07-.64-5.42-1.79l1.17-1.38c1.09 1 2.5 1.47 4.31 1.47 1.8 0 2.71-.34 2.71-1.08 0-.73-.91-.94-2.95-1.12-2.54-.21-4.89-.77-4.89-2.67 0-1.85 1.98-2.87 4.72-2.87 1.94 0 3.61.48 4.73 1.36L246 81.8c-.98-.75-2.18-1.05-3.62-1.07-1.21-.01-2.68.2-2.68 1.01 0 .76 1.27.84 3.03.98 2.83.23 4.82.82 4.82 2.78zM251.5 83.75c0-2.97 2.18-4.72 5.64-4.72 3.46 0 5.64 1.75 5.64 4.72 0 2.96-2.18 4.71-5.64 4.71-3.46 0-5.64-1.75-5.64-4.71zm9.2 0c0-1.9-1.38-2.97-3.57-2.97s-3.57 1.07-3.57 2.97c0 1.9 1.37 2.96 3.57 2.96 2.2 0 3.57-1.07 3.57-2.96zM275.76 86.43v1.75h-8.3v-8.87h2.03v7.12h6.27zM289.44 79.31V84c0 2.66-1.76 4.46-4.98 4.46-3.22 0-4.98-1.8-4.98-4.46v-4.69h2.03v4.54c0 1.78 1.04 2.84 2.95 2.84 1.91 0 2.95-1.06 2.95-2.84v-4.54h2.03zM303.3 81.06h-3.87v7.12h-2.03v-7.12h-3.85v-1.75h9.75v1.75zM307.56 88.18v-8.87h2.03v8.87h-2.03zM314.27 83.75c0-2.97 2.18-4.72 5.64-4.72 3.46 0 5.64 1.75 5.64 4.72 0 2.96-2.18 4.71-5.64 4.71-3.46 0-5.64-1.75-5.64-4.71zm9.21 0c0-1.9-1.38-2.97-3.58-2.97-2.19 0-3.57 1.07-3.57 2.97 0 1.9 1.37 2.96 3.57 2.96 2.19 0 3.58-1.07 3.58-2.96zM340.33 79.31v8.87h-1.77l-6.36-6.41v6.41h-1.96v-8.87h2.16l5.98 6.08v-6.08h1.95zM355 85.5c0 1.75-1.66 2.96-4.8 2.96-2.24 0-4.07-.64-5.42-1.79l1.17-1.38c1.09 1 2.5 1.47 4.31 1.47 1.8 0 2.71-.34 2.71-1.08 0-.73-.91-.94-2.95-1.12-2.54-.21-4.89-.77-4.89-2.67 0-1.85 1.98-2.87 4.72-2.87 1.94 0 3.61.48 4.73 1.36l-1.11 1.41c-.98-.75-2.18-1.05-3.62-1.07-1.21-.01-2.68.2-2.68 1.01 0 .76 1.27.84 3.03.98 2.81.24 4.8.83 4.8 2.79z"/>
</svg>
