<svg width="155" height="42" viewBox="0 0 155 42" fill="black" xmlns="http://www.w3.org/2000/svg">
  <path d="M28.8349 16.6406V24.9609L21.6211 20.8114L28.8349 16.6406Z"></path>
  <path d="M28.8349 16.6406L21.6211 20.8114V12.4912L28.8349 16.6406Z"></path>
  <path d="M28.8349 24.9609L21.6211 29.1318V20.8114L28.8349 24.9609Z"></path>
  <path d="M21.6191 29.1316V37.4732L14.4053 33.3024L21.6191 29.1316Z"></path>
  <path d="M21.6191 12.4912V20.8115L14.4053 16.6407L21.6191 12.4912Z"></path>
  <path d="M21.6191 4.14926V12.4912L14.4053 8.32006L21.6191 4.14926Z"></path>
  <path d="M21.6191 4.14926L14.4053 8.32006V0L21.6191 4.14926Z"></path>
  <path d="M21.6191 37.4732L14.4053 41.6229V33.3024L21.6191 37.4732Z"></path>
  <path d="M14.4091 33.3027V41.623L7.19531 37.4735L14.4091 33.3027Z"></path>
  <path d="M14.4091 0V8.32031L7.19531 4.14951L14.4091 0Z"></path>
  <path d="M14.4091 8.32031L7.19531 12.491V4.14951L14.4091 8.32031Z"></path>
  <path d="M14.4091 24.961L7.19531 29.1318V20.8115L14.4091 24.961Z"></path>
  <path d="M14.4091 33.3027L7.19531 37.4735V29.1318L14.4091 33.3027Z"></path>
  <path d="M7.19249 20.8114V29.1317L0 24.9609L7.19249 20.8114Z"></path>
  <path d="M7.19249 12.4912V20.8114L0 16.6407L7.19249 12.4912Z"></path>
  <path d="M7.19249 20.8114L0 24.9609V16.6407L7.19249 20.8114Z"></path>
  <path
      d="M44.9195 29.1955C43.6002 29.1955 42.4936 28.9401 41.5573 28.4507C40.621 27.94 39.8337 27.259 39.1953 26.3866L40.6423 25.1736C41.2169 25.9397 41.8553 26.5142 42.5362 26.8973C43.2384 27.3016 44.0471 27.4931 44.9834 27.4931C46.1324 27.4931 47.0262 27.2165 47.6433 26.6632C48.2604 26.1099 48.5583 25.3651 48.5583 24.4288C48.5583 23.6628 48.3242 23.0669 47.8561 22.6414C47.3879 22.2158 46.6219 21.8966 45.5579 21.6412L44.2386 21.3433C42.749 21.0028 41.6212 20.4921 40.8338 19.8112C40.0465 19.1302 39.6635 18.1514 39.6635 16.8959C39.6635 16.1936 39.7911 15.5553 40.0678 15.002C40.3444 14.4487 40.7062 13.9806 41.1743 13.6188C41.6425 13.2571 42.217 12.9592 42.8767 12.7676C43.5363 12.5761 44.2598 12.4697 45.0472 12.4697C46.2601 12.4697 47.3241 12.7038 48.1966 13.1507C49.069 13.5975 49.8138 14.2572 50.4096 15.1297L48.9414 16.1936C48.4945 15.5765 47.9625 15.0871 47.3241 14.7254C46.6857 14.3636 45.8984 14.1934 44.9621 14.1934C43.9194 14.1934 43.1108 14.4062 42.5149 14.853C41.9191 15.2999 41.6212 15.9596 41.6212 16.832C41.6212 17.5981 41.8765 18.1939 42.366 18.577C42.8767 18.9813 43.6215 19.2792 44.6429 19.5133L45.9622 19.8112C47.5582 20.1729 48.7073 20.7049 49.4095 21.4284C50.1117 22.1519 50.4735 23.1308 50.4735 24.3224C50.4735 25.0672 50.3458 25.7269 50.0904 26.344C49.8351 26.9398 49.4733 27.4505 48.9839 27.8761C48.4945 28.3017 47.9199 28.6209 47.239 28.855C46.558 29.0678 45.7707 29.1955 44.9195 29.1955Z"></path>
  <path
      d="M53.6455 16.9597H55.4968V18.8749H55.5819C55.8799 18.1301 56.348 17.5768 56.9438 17.2151C57.5397 16.8533 58.2632 16.6831 59.0931 16.6831C59.8379 16.6831 60.4975 16.832 61.1146 17.13C61.7105 17.4279 62.2212 17.8322 62.6468 18.3854C63.0724 18.9174 63.3916 19.5771 63.6256 20.3644C63.8597 21.1305 63.9661 22.003 63.9661 22.9606C63.9661 23.9181 63.8597 24.7906 63.6256 25.5567C63.3916 26.3227 63.0724 26.9824 62.6468 27.5357C62.2212 28.0676 61.7105 28.4932 61.1146 28.7912C60.5188 29.0891 59.8379 29.238 59.0931 29.238C57.4758 29.238 56.3055 28.4932 55.6032 27.0249H55.5181V32.5151L53.6668 33.5791V16.9597H53.6455ZM58.5824 27.5569C59.6251 27.5569 60.455 27.2165 61.0721 26.5568C61.6679 25.8971 61.9658 25.0247 61.9658 23.9607V21.9179C61.9658 20.8539 61.6679 19.9814 61.0721 19.3217C60.4763 18.6621 59.6463 18.3216 58.5824 18.3216C58.1568 18.3216 57.7737 18.3854 57.3907 18.4918C57.0077 18.5982 56.6885 18.7685 56.4119 18.96C56.1352 19.1515 55.9224 19.4069 55.7522 19.6835C55.5819 19.9814 55.5181 20.2793 55.5181 20.5985V25.0672C55.5181 25.4503 55.6032 25.812 55.7522 26.1099C55.9224 26.4078 56.1352 26.6632 56.4119 26.876C56.6885 27.0888 57.0077 27.2377 57.3907 27.3441C57.7737 27.4931 58.1781 27.5569 58.5824 27.5569Z"></path>
  <path
      d="M68.0086 14.1509C67.6043 14.1509 67.3064 14.0445 67.1362 13.853C66.9659 13.6615 66.8595 13.4061 66.8595 13.1082V12.8103C66.8595 12.4911 66.9447 12.257 67.1362 12.0655C67.3064 11.874 67.6043 11.7676 68.0086 11.7676C68.413 11.7676 68.7109 11.874 68.8811 12.0655C69.0513 12.257 69.1577 12.5124 69.1577 12.8103V13.1082C69.1577 13.4274 69.0726 13.6615 68.8811 13.853C68.6896 14.0445 68.413 14.1509 68.0086 14.1509ZM67.0936 16.9598H68.9449V28.9189H67.0936V16.9598Z"></path>
  <path
      d="M72.8825 28.9186V16.9595H74.7338V19.1513H74.8402C75.053 18.5768 75.436 18.0661 75.9893 17.6192C76.5426 17.1723 77.3086 16.9383 78.2875 16.9383H79.011V18.7896H77.9257C76.9256 18.7896 76.1383 18.9811 75.5637 19.3641C74.9892 19.7472 74.7125 20.2153 74.7125 20.7899V28.8974H72.8825V28.9186Z"></path>
  <path
      d="M89.9908 28.9191C89.2886 28.9191 88.7991 28.7276 88.5012 28.3659C88.2033 28.0041 88.0118 27.536 87.9267 26.9827H87.8203C87.5649 27.7275 87.1181 28.2808 86.5222 28.6425C85.9264 29.0043 85.2029 29.1958 84.373 29.1958C83.0962 29.1958 82.1174 28.8766 81.4151 28.2169C80.7129 27.5573 80.3512 26.6848 80.3512 25.5783C80.3512 24.4504 80.7555 23.578 81.5854 22.9821C82.4153 22.3863 83.6921 22.0884 85.437 22.0884H87.799V20.8968C87.799 20.0456 87.5649 19.4072 87.0968 18.939C86.6286 18.4709 85.9264 18.2581 84.9688 18.2581C84.2453 18.2581 83.6282 18.4283 83.1601 18.7475C82.6706 19.0667 82.2663 19.5136 81.9471 20.0456L80.8406 19.0029C81.1598 18.3432 81.6918 17.8112 82.394 17.3431C83.0962 16.8962 84.0112 16.6621 85.0752 16.6621C86.5222 16.6621 87.65 17.0239 88.4587 17.7261C89.2673 18.4283 89.6716 19.4285 89.6716 20.684V27.2593H91.0335V28.8979H89.9908V28.9191ZM84.6496 27.6211C85.1178 27.6211 85.5434 27.5573 85.9264 27.4509C86.3094 27.3445 86.6499 27.1955 86.9266 26.9827C87.2032 26.7912 87.416 26.5571 87.5862 26.2805C87.7352 26.0251 87.8203 25.7272 87.8203 25.4293V23.4716H85.3731C84.3092 23.4716 83.5218 23.6205 83.0537 23.9397C82.5855 24.2589 82.3302 24.7058 82.3302 25.2803V25.7698C82.3302 26.3656 82.543 26.8125 82.9686 27.1317C83.3516 27.4509 83.9261 27.6211 84.6496 27.6211Z"></path>
  <path
      d="M95.653 28.9189C94.9934 28.9189 94.5039 28.7274 94.1847 28.3656C93.8443 28.0039 93.6953 27.5357 93.6953 26.9825V12.9592L95.5466 11.7676V27.2804H97.3128V28.9189H95.653Z"></path>
  <path
      d="M104.717 29.1952C103.397 29.1952 102.291 28.9399 101.355 28.4504C100.418 27.9397 99.6309 27.2588 98.9925 26.3863L100.439 25.1734C101.014 25.9394 101.652 26.514 102.333 26.897C103.036 27.3013 103.844 27.4928 104.781 27.4928C105.93 27.4928 106.823 27.2162 107.44 26.6629C108.058 26.1097 108.355 25.3649 108.355 24.4286C108.355 23.6625 108.121 23.0667 107.653 22.6411C107.185 22.2155 106.419 21.8963 105.355 21.641L104.036 21.3431C102.546 21.0026 101.418 20.4919 100.631 19.8109C99.8437 19.13 99.4606 18.1511 99.4606 16.8956C99.4606 16.1934 99.5883 15.555 99.865 15.0017C100.12 14.4485 100.503 13.9803 100.971 13.6186C101.44 13.2568 102.014 12.9589 102.674 12.7674C103.334 12.5759 104.057 12.4695 104.844 12.4695C106.057 12.4695 107.121 12.7036 107.994 13.1504C108.866 13.5973 109.611 14.257 110.207 15.1294L108.739 16.1934C108.292 15.5763 107.76 15.0869 107.121 14.7251C106.483 14.3634 105.696 14.1931 104.759 14.1931C103.717 14.1931 102.908 14.4059 102.312 14.8528C101.716 15.2997 101.418 15.9593 101.418 16.8318C101.418 17.5979 101.674 18.1937 102.163 18.5767C102.674 18.981 103.419 19.2789 104.44 19.513L105.759 19.8109C107.355 20.1727 108.504 20.7047 109.207 21.4282C109.909 22.1517 110.271 23.1305 110.271 24.3222C110.271 25.067 110.143 25.7266 109.888 26.3438C109.632 26.9396 109.271 27.4503 108.781 27.8759C108.292 28.3015 107.717 28.6207 107.036 28.8547C106.355 29.0675 105.568 29.1952 104.717 29.1952Z"></path>
  <path
      d="M117.889 29.1954C117.059 29.1954 116.314 29.0464 115.633 28.7485C114.952 28.4506 114.399 28.0463 113.952 27.493C113.505 26.961 113.144 26.3014 112.909 25.514C112.675 24.7479 112.548 23.8755 112.548 22.9179C112.548 21.9603 112.675 21.0879 112.909 20.3218C113.144 19.5557 113.505 18.8961 113.952 18.3428C114.399 17.8108 114.974 17.3852 115.633 17.0873C116.293 16.7894 117.038 16.6404 117.889 16.6404C119.081 16.6404 120.038 16.8958 120.74 17.4065C121.464 17.9172 121.996 18.5981 122.358 19.4281L120.804 20.2154C120.591 19.5983 120.23 19.1089 119.74 18.7684C119.251 18.4279 118.634 18.2577 117.889 18.2577C117.336 18.2577 116.846 18.3428 116.421 18.5343C115.995 18.7045 115.655 18.9599 115.378 19.2791C115.101 19.5983 114.888 19.9813 114.761 20.4069C114.612 20.8538 114.548 21.3219 114.548 21.8539V23.8968C114.548 24.9395 114.825 25.8119 115.399 26.4716C115.952 27.1525 116.804 27.4717 117.889 27.4717C119.378 27.4717 120.464 26.7695 121.123 25.3863L122.464 26.2801C122.081 27.1525 121.506 27.8335 120.74 28.3442C119.996 28.94 119.038 29.1954 117.889 29.1954Z"></path>
  <path
      d="M129.487 29.1955C128.678 29.1955 127.955 29.0465 127.295 28.7486C126.635 28.4507 126.061 28.0251 125.593 27.4931C125.125 26.9611 124.763 26.2802 124.486 25.5141C124.231 24.748 124.082 23.8969 124.082 22.9393C124.082 22.003 124.209 21.1305 124.486 20.3644C124.741 19.5984 125.125 18.9387 125.593 18.3854C126.061 17.8322 126.635 17.4066 127.295 17.13C127.955 16.832 128.699 16.6831 129.487 16.6831C130.295 16.6831 131.019 16.832 131.679 17.13C132.338 17.4279 132.913 17.8535 133.381 18.3854C133.849 18.9387 134.232 19.5984 134.488 20.3644C134.743 21.1305 134.892 22.003 134.892 22.9393C134.892 23.8969 134.764 24.748 134.488 25.5141C134.211 26.2802 133.849 26.9398 133.381 27.4931C132.892 28.0464 132.338 28.472 131.679 28.7486C131.019 29.0465 130.295 29.1955 129.487 29.1955ZM129.487 27.5569C130.487 27.5569 131.317 27.2377 131.934 26.6206C132.572 26.0035 132.892 25.0672 132.892 23.7905V22.0668C132.892 20.79 132.572 19.8537 131.934 19.2366C131.296 18.6195 130.487 18.3003 129.487 18.3003C128.487 18.3003 127.657 18.6195 127.04 19.2366C126.401 19.8537 126.082 20.79 126.082 22.0668V23.7905C126.082 25.0672 126.401 26.0035 127.04 26.6206C127.657 27.2377 128.487 27.5569 129.487 27.5569Z"></path>
  <path
      d="M145.318 26.9822H145.212C145.084 27.2588 144.935 27.5355 144.765 27.7908C144.595 28.0675 144.361 28.3015 144.105 28.4931C143.85 28.7059 143.531 28.8548 143.148 28.9825C142.786 29.1102 142.339 29.174 141.85 29.174C140.616 29.174 139.637 28.7697 138.913 27.9823C138.19 27.195 137.828 26.0672 137.828 24.6202V16.9595H139.679V24.3223C139.679 26.4715 140.594 27.5568 142.424 27.5568C142.786 27.5568 143.148 27.5142 143.51 27.4078C143.85 27.3227 144.169 27.1737 144.446 26.9822C144.722 26.7907 144.935 26.5566 145.084 26.28C145.254 26.0033 145.318 25.6416 145.318 25.2373V16.9383H147.17V28.8974H145.318V26.9822Z"></path>
  <path
      d="M152.489 28.9184C151.851 28.9184 151.34 28.7269 151.021 28.3651C150.701 28.0034 150.531 27.5352 150.531 26.9394V14.7462L152.383 13.6396V16.9593H155V18.5978H152.383V27.2586H154.808V28.8971H152.489V28.9184Z"></path>
</svg>
